<svg xmlns="http://www.w3.org/2000/svg" xml:space="preserve" width="500" height="500"><path fill="#fff" d="M0 0h500v500H0Z" style="stroke-width:.507691"/><path d="M126.18 31.822h12.15V43.97h-12.15z" style="stroke-width:.512821"/><path d="M137.975 31.822h12.15V43.97h-12.15zm35.385 0h12.149V43.97H173.36Zm35.385 0h12.148V43.97h-12.148zm70.769 0h12.149V43.97h-12.15z" style="stroke-width:.512821"/><path d="M291.309 31.822h12.148V43.97H291.31zm23.59 0h12.148V43.97h-12.149zm23.59 0h12.148V43.97h-12.149zm23.589 0h12.149V43.97h-12.149ZM126.18 43.616h12.148v12.15h-12.148z" style="stroke-width:.512821"/><path d="M137.975 43.616h12.15v12.15h-12.15Z" style="stroke-width:.512821"/><path d="M149.77 43.616h12.149v12.15H149.77zm23.59 0h12.149v12.15H173.36Z" style="stroke-width:.512821"/><path d="M185.155 43.616h12.149v12.15h-12.15z" style="stroke-width:.512821"/><path d="M196.95 43.616h12.148v12.15H196.95z" style="stroke-width:.512821"/><path d="M208.745 43.616h12.148v12.15h-12.148zm58.974 0h12.149v12.15h-12.149zm23.59 0h12.148v12.15H291.31zm47.18 0h12.148v12.15h-12.149z" style="stroke-width:.512821"/><path d="M350.283 43.616h12.149v12.15h-12.149ZM126.181 55.411h12.148V67.56h-12.148zm70.769 0h12.148V67.56H196.95zm23.59 0h12.148V67.56H220.54z" style="stroke-width:.512821"/><path d="M232.334 55.411h12.15V67.56h-12.15zm23.59 0h12.149V67.56h-12.149Z" style="stroke-width:.512821"/><path d="M267.719 55.411h12.149V67.56h-12.149zm23.59 0h12.148V67.56H291.31zm23.59 0h12.148V67.56h-12.149zm47.179 0h12.149V67.56h-12.149ZM137.975 67.206h12.15v12.149h-12.15zm58.975 0h12.148v12.149H196.95z" style="stroke-width:.512821"/><path d="M208.745 67.206h12.148v12.149h-12.148z" style="stroke-width:.512821"/><path d="M220.54 67.206h12.148v12.149H220.54z" style="stroke-width:.512821"/><path d="M232.334 67.206h12.15v12.149h-12.15z" style="stroke-width:.512821"/><path d="M244.13 67.206h12.148v12.149h-12.149z" style="stroke-width:.512821"/><path d="M255.924 67.206h12.149v12.149h-12.149Z" style="stroke-width:.512821"/><path d="M267.719 67.206h12.149v12.149h-12.149z" style="stroke-width:.512821"/><path d="M279.514 67.206h12.149v12.149h-12.15z" style="stroke-width:.512821"/><path d="M291.309 67.206h12.148v12.149H291.31z" style="stroke-width:.512821"/><path d="M303.104 67.206h12.148v12.149h-12.148zm23.59 0h12.148v12.149h-12.149z" style="stroke-width:.512821"/><path d="M338.488 67.206h12.149v12.149h-12.149z" style="stroke-width:.512821"/><path d="M350.283 67.206h12.149v12.149h-12.149zM137.975 79.001h12.15V91.15h-12.15z" style="stroke-width:.512821"/><path d="M149.77 79.001h12.149V91.15H149.77z" style="stroke-width:.512821"/><path d="M161.565 79.001h12.149V91.15h-12.149zm47.18 0h12.148V91.15h-12.148z" style="stroke-width:.512821"/><path d="M220.54 79.001h12.148V91.15H220.54z" style="stroke-width:.512821"/><path d="M232.334 79.001h12.15V91.15h-12.15zm82.564 0h12.15V91.15h-12.15zm23.59 0h12.149V91.15h-12.149zM126.181 90.796h12.148v12.149h-12.148z" style="stroke-width:.512821"/><path d="M137.975 90.796h12.15v12.149h-12.15Z" style="stroke-width:.512821"/><path d="M149.77 90.796h12.149v12.149H149.77z" style="stroke-width:.512821"/><path d="M161.565 90.796h12.149v12.149h-12.149z" style="stroke-width:.512821"/><path d="M173.36 90.796h12.149v12.149H173.36Z" style="stroke-width:.512821"/><path d="M185.155 90.796h12.149v12.149h-12.15z" style="stroke-width:.512821"/><path d="M196.95 90.796h12.148v12.149H196.95zm23.59 0h12.148v12.149H220.54zm23.59 0h12.148v12.149h-12.149z" style="stroke-width:.512821"/><path d="M255.924 90.796h12.149v12.149h-12.149Z" style="stroke-width:.512821"/><path d="M267.719 90.796h12.149v12.149h-12.149zm47.18 0h12.148v12.149h-12.149zm35.384 0h12.149v12.149h-12.149z" style="stroke-width:.512821"/><path d="M362.078 90.796h12.149v12.149h-12.149ZM126.18 102.59h12.148v12.148h-12.148zm23.59 0h12.148v12.148H149.77zm23.589 0h12.149v12.148H173.36Zm23.59 0h12.148v12.148H196.95zm23.59 0h12.148v12.148H220.54zm23.59 0h12.148v12.148h-12.149zm23.589 0h12.149v12.148h-12.149zm23.59 0h12.148v12.148H291.31zm23.59 0h12.148v12.148h-12.149zm23.59 0h12.148v12.148h-12.149z" style="stroke-width:.512821"/><path d="M362.078 102.59h12.149v12.15h-12.149zM126.18 114.387h12.148v12.148h-12.148zm35.384 0h12.149v12.148h-12.149z" style="stroke-width:.512821"/><path d="M173.36 114.386h12.149v12.148H173.36Z" style="stroke-width:.512821"/><path d="M185.155 114.386h12.149v12.148h-12.15z" style="stroke-width:.512821"/><path d="M196.95 114.386h12.148v12.148H196.95zm47.18 0h12.148v12.148h-12.149z" style="stroke-width:.512821"/><path d="M255.924 114.386h12.149v12.148h-12.149Z" style="stroke-width:.512821"/><path d="M267.719 114.386h12.149v12.148h-12.149z" style="stroke-width:.512821"/><path d="M279.514 114.386h12.149v12.148h-12.15z" style="stroke-width:.512821"/><path d="M291.309 114.386h12.148v12.148H291.31zm47.18 0h12.148v12.148h-12.149zm23.589 0h12.149v12.148h-12.149ZM55.411 126.18H67.56v12.148H55.411Z" style="stroke-width:.512821"/><path d="M67.206 126.18h12.149v12.15H67.206Z" style="stroke-width:.512821"/><path d="M79.001 126.18H91.15v12.15H79Zm23.59 0h12.148v12.15h-12.148zm23.59 0h12.148v12.15h-12.148z" style="stroke-width:.512821"/><path d="M137.975 126.18h12.15v12.15h-12.15z" style="stroke-width:.512821"/><path d="M149.77 126.18h12.149v12.15H149.77z" style="stroke-width:.512821"/><path d="M161.565 126.18h12.149v12.15h-12.149zm35.385 0h12.148v12.15H196.95z" style="stroke-width:.512821"/><path d="M208.745 126.18h12.148v12.15h-12.148z" style="stroke-width:.512821"/><path d="M220.54 126.18h12.148v12.15H220.54z" style="stroke-width:.512821"/><path d="M232.334 126.18h12.15v12.15h-12.15z" style="stroke-width:.512821"/><path d="M244.13 126.18h12.148v12.15h-12.149zm23.589 0h12.149v12.15h-12.149zm23.59 0h12.148v12.15H291.31z" style="stroke-width:.512821"/><path d="M303.104 126.18h12.148v12.15h-12.148z" style="stroke-width:.512821"/><path d="M314.898 126.18h12.15v12.15h-12.15zm58.975 0h12.149v12.15h-12.15z" style="stroke-width:.512821"/><path d="M385.668 126.18h12.148v12.15h-12.148z" style="stroke-width:.512821"/><path d="M397.463 126.18h12.148v12.15h-12.148zm35.384 0h12.149v12.15h-12.149z" style="stroke-width:.512821"/><path d="M444.642 126.18h12.149v12.15h-12.149z" style="stroke-width:.512821"/><path d="M456.437 126.18h12.149v12.15h-12.15Zm-412.82 11.795h12.148v12.15H43.616Zm23.59 0h12.148v12.15H67.206Z" style="stroke-width:.512821"/><path d="M79.001 137.975H91.15v12.15H79Zm47.18 0h12.148v12.15h-12.148z" style="stroke-width:.512821"/><path d="M137.975 137.975h12.15v12.15h-12.15Z" style="stroke-width:.512821"/><path d="M149.77 137.975h12.149v12.15H149.77z" style="stroke-width:.512821"/><path d="M161.565 137.975h12.149v12.15h-12.149zm23.59 0h12.149v12.15h-12.15zm35.384 0h12.15v12.15h-12.15z" style="stroke-width:.512821"/><path d="M232.334 137.975h12.15v12.15h-12.15z" style="stroke-width:.512821"/><path d="M244.13 137.975h12.148v12.15h-12.149zm23.589 0h12.149v12.15h-12.149z" style="stroke-width:.512821"/><path d="M279.514 137.975h12.149v12.15h-12.15zm23.59 0h12.148v12.15h-12.148zm23.59 0h12.148v12.15h-12.149z" style="stroke-width:.512821"/><path d="M338.488 137.975h12.149v12.15h-12.149z" style="stroke-width:.512821"/><path d="M350.283 137.975h12.149v12.15h-12.149z" style="stroke-width:.512821"/><path d="M362.078 137.975h12.149v12.15h-12.149zm23.59 0h12.148v12.15h-12.148zm35.384 0h12.149v12.15h-12.149ZM55.412 149.77H67.56v12.149H55.411Z" style="stroke-width:.512821"/><path d="M67.206 149.77h12.149v12.149H67.206Z" style="stroke-width:.512821"/><path d="M79.001 149.77H91.15v12.149H79Z" style="stroke-width:.512821"/><path d="M90.796 149.77h12.149v12.149h-12.15Z" style="stroke-width:.512821"/><path d="M102.59 149.77h12.15v12.149h-12.15z" style="stroke-width:.512821"/><path d="M114.386 149.77h12.148v12.149h-12.148zm35.384 0h12.149v12.149H149.77zm47.18 0h12.148v12.149H196.95zm23.59 0h12.148v12.149H220.54z" style="stroke-width:.512821"/><path d="M232.334 149.77h12.15v12.149h-12.15z" style="stroke-width:.512821"/><path d="M244.13 149.77h12.148v12.149h-12.149z" style="stroke-width:.512821"/><path d="M255.924 149.77h12.149v12.149h-12.149Z" style="stroke-width:.512821"/><path d="M267.719 149.77h12.149v12.149h-12.149z" style="stroke-width:.512821"/><path d="M279.514 149.77h12.149v12.149h-12.15z" style="stroke-width:.512821"/><path d="M291.309 149.77h12.148v12.149H291.31zm35.384 0h12.15v12.149h-12.15z" style="stroke-width:.512821"/><path d="M338.488 149.77h12.149v12.149h-12.149zm47.18 0h12.148v12.149h-12.148zm23.59 0h12.148v12.149h-12.149z" style="stroke-width:.512821"/><path d="M421.052 149.77h12.149v12.149h-12.149zm23.59 0h12.149v12.149h-12.149z" style="stroke-width:.512821"/><path d="M456.437 149.77h12.149v12.149h-12.15Zm-412.82 11.795h12.148v12.149H43.616Z" style="stroke-width:.512821"/><path d="M55.411 161.565H67.56v12.149H55.411Zm23.59 0H91.15v12.149H79Zm70.77 0h12.148v12.149H149.77z" style="stroke-width:.512821"/><path d="M161.565 161.565h12.149v12.149h-12.149zm94.36 0h12.148v12.149h-12.149Z" style="stroke-width:.512821"/><path d="M267.719 161.565h12.149v12.149h-12.149zm23.59 0h12.148v12.149H291.31zm23.59 0h12.148v12.149h-12.149zm23.59 0h12.148v12.149h-12.149zm23.589 0h12.149v12.149h-12.149zm23.59 0h12.148v12.149h-12.148z" style="stroke-width:.512821"/><path d="M397.463 161.565h12.148v12.149h-12.148zm23.59 0H433.2v12.149h-12.149zm23.589 0h12.149v12.149h-12.149ZM79.001 173.36H91.15v12.149H79Z" style="stroke-width:.512821"/><path d="M90.796 173.36h12.149v12.149h-12.15Z" style="stroke-width:.512821"/><path d="M102.59 173.36h12.15v12.149h-12.15zm35.385 0h12.15v12.149h-12.15zm23.59 0h12.149v12.149h-12.149z" style="stroke-width:.512821"/><path d="M173.36 173.36h12.149v12.149H173.36Zm35.385 0h12.148v12.149h-12.148z" style="stroke-width:.512821"/><path d="M220.54 173.36h12.148v12.149H220.54z" style="stroke-width:.512821"/><path d="M232.334 173.36h12.15v12.149h-12.15zm35.385 0h12.149v12.149h-12.149zm23.59 0h12.148v12.149H291.31zm23.59 0h12.148v12.149h-12.149z" style="stroke-width:.512821"/><path d="M326.693 173.36h12.15v12.149h-12.15z" style="stroke-width:.512821"/><path d="M338.488 173.36h12.149v12.149h-12.149zm35.385 0h12.149v12.149h-12.15z" style="stroke-width:.512821"/><path d="M385.668 173.36h12.148v12.149h-12.148z" style="stroke-width:.512821"/><path d="M397.463 173.36h12.148v12.149h-12.148z" style="stroke-width:.512821"/><path d="M409.257 173.36h12.15v12.149h-12.15zm23.59 0h12.149v12.149h-12.149zm23.59 0h12.149v12.149h-12.15ZM31.822 185.155H43.97v12.149H31.822Zm47.179 0H91.15v12.149H79Zm35.385 0h12.148v12.149h-12.148zm224.102 0h12.149v12.149h-12.149zm23.59 0h12.149v12.149h-12.149z" style="stroke-width:.512821"/><path d="M373.873 185.155h12.149v12.149h-12.15zm23.59 0h12.148v12.149h-12.148zm23.59 0H433.2v12.149h-12.149z" style="stroke-width:.512821"/><path d="M432.847 185.155h12.149v12.149h-12.149ZM31.822 196.95H43.97v12.148H31.822Z" style="stroke-width:.512821"/><path d="M43.616 196.95h12.15v12.148h-12.15Zm47.18 0h12.149v12.148h-12.15Z" style="stroke-width:.512821"/><path d="M102.59 196.95h12.15v12.148h-12.15z" style="stroke-width:.512821"/><path d="M114.386 196.95h12.148v12.148h-12.148z" style="stroke-width:.512821"/><path d="M126.18 196.95h12.15v12.148h-12.15z" style="stroke-width:.512821"/><path d="M137.975 196.95h12.15v12.148h-12.15z" style="stroke-width:.512821"/><path d="M149.77 196.95h12.149v12.148H149.77z" style="stroke-width:.512821"/><path d="M161.565 196.95h12.149v12.148h-12.149zm153.333 0h12.15v12.148h-12.15zm23.59 0h12.149v12.148h-12.149z" style="stroke-width:.512821"/><path d="M350.283 196.95h12.149v12.148h-12.149z" style="stroke-width:.512821"/><path d="M362.078 196.95h12.149v12.148h-12.149zm23.59 0h12.148v12.148h-12.148z" style="stroke-width:.512821"/><path d="M397.463 196.95h12.148v12.148h-12.148z" style="stroke-width:.512821"/><path d="M409.257 196.95h12.15v12.148h-12.15z" style="stroke-width:.512821"/><path d="M421.052 196.95h12.149v12.148h-12.149zm35.385 0h12.149v12.148h-12.15ZM31.822 208.745H43.97v12.148H31.822Zm23.59 0H67.56v12.148H55.411Z" style="stroke-width:.512821"/><path d="M67.206 208.745h12.149v12.148H67.206Z" style="stroke-width:.512821"/><path d="M79.001 208.745H91.15v12.148H79Zm235.897 0h12.15v12.148h-12.15zm23.59 0h12.149v12.148h-12.149zm23.59 0h12.149v12.148h-12.149z" style="stroke-width:.512821"/><path d="M373.873 208.745h12.149v12.148h-12.15z" style="stroke-width:.512821"/><path d="M385.668 208.745h12.148v12.148h-12.148z" style="stroke-width:.512821"/><path d="M397.463 208.745h12.148v12.148h-12.148z" style="stroke-width:.512821"/><path d="M409.257 208.745h12.15v12.148h-12.15zm35.385 0h12.149v12.148h-12.149ZM43.616 220.539h12.15v12.15h-12.15Zm23.59 0h12.149v12.15H67.206Zm23.59 0h12.149v12.15h-12.15Z" style="stroke-width:.512821"/><path d="M102.59 220.54h12.15v12.148h-12.15zm35.385 0h12.15v12.148h-12.15zm23.59 0h12.149v12.148h-12.149z" style="stroke-width:.512821"/><path d="M173.36 220.54h12.149v12.148H173.36Zm153.333 0h12.15v12.148h-12.15z" style="stroke-width:.512821"/><path d="M338.488 220.54h12.149v12.148h-12.149zm35.385 0h12.149v12.148h-12.15z" style="stroke-width:.512821"/><path d="M385.668 220.54h12.148v12.148h-12.148zm23.59 0h12.148v12.148h-12.149zm23.59 0h12.148v12.148h-12.149z" style="stroke-width:.512821"/><path d="M444.642 220.54h12.149v12.148h-12.149z" style="stroke-width:.512821"/><path d="M456.437 220.54h12.149v12.148h-12.15ZM31.822 232.333H43.97v12.15H31.822Z" style="stroke-width:.512821"/><path d="M43.616 232.334h12.15v12.15h-12.15Z" style="stroke-width:.512821"/><path d="M55.411 232.334H67.56v12.15H55.411Z" style="stroke-width:.512821"/><path d="M67.206 232.334h12.149v12.15H67.206Zm47.18 0h12.148v12.15h-12.148zm47.18 0h12.148v12.15h-12.149zm153.332 0h12.15v12.15h-12.15zm47.18 0h12.149v12.15h-12.149z" style="stroke-width:.512821"/><path d="M373.873 232.334h12.149v12.15h-12.15zm23.59 0h12.148v12.15h-12.148zm35.384 0h12.149v12.15h-12.149ZM67.207 244.13h12.148v12.149H67.206Z" style="stroke-width:.512821"/><path d="M79.001 244.13H91.15v12.148H79Zm23.59 0h12.148v12.148h-12.148z" style="stroke-width:.512821"/><path d="M114.386 244.13h12.148v12.148h-12.148z" style="stroke-width:.512821"/><path d="M126.18 244.13h12.15v12.148h-12.15z" style="stroke-width:.512821"/><path d="M137.975 244.13h12.15v12.148h-12.15zm23.59 0h12.149v12.148h-12.149z" style="stroke-width:.512821"/><path d="M173.36 244.13h12.149v12.148H173.36Zm165.128 0h12.149v12.148h-12.149z" style="stroke-width:.512821"/><path d="M350.283 244.13h12.149v12.148h-12.149z" style="stroke-width:.512821"/><path d="M362.078 244.13h12.149v12.148h-12.149zm23.59 0h12.148v12.148h-12.148zm35.384 0h12.149v12.148h-12.149z" style="stroke-width:.512821"/><path d="M432.847 244.13h12.149v12.148h-12.149z" style="stroke-width:.512821"/><path d="M444.642 244.13h12.149v12.148h-12.149z" style="stroke-width:.512821"/><path d="M456.437 244.13h12.149v12.148h-12.15ZM31.822 255.923H43.97v12.149H31.822Z" style="stroke-width:.512821"/><path d="M43.616 255.924h12.15v12.149h-12.15Zm47.18 0h12.149v12.149h-12.15Zm23.59 0h12.148v12.149h-12.148z" style="stroke-width:.512821"/><path d="M126.18 255.924h12.15v12.149h-12.15z" style="stroke-width:.512821"/><path d="M137.975 255.924h12.15v12.149h-12.15z" style="stroke-width:.512821"/><path d="M149.77 255.924h12.149v12.149H149.77zm23.59 0h12.149v12.149H173.36Zm165.128 0h12.149v12.149h-12.149zm47.18 0h12.148v12.149h-12.148zm58.974 0h12.149v12.149h-12.149z" style="stroke-width:.512821"/><path d="M456.437 255.924h12.149v12.149h-12.15ZM43.617 267.72h12.148v12.149H43.616Zm35.384 0H91.15v12.149H79Zm23.59 0h12.148v12.149h-12.148zm35.384 0h12.15v12.149h-12.15z" style="stroke-width:.512821"/><path d="M149.77 267.719h12.149v12.149H149.77zm23.59 0h12.149v12.149H173.36Zm153.333 0h12.15v12.149h-12.15z" style="stroke-width:.512821"/><path d="M338.488 267.719h12.149v12.149h-12.149zm35.385 0h12.149v12.149h-12.15z" style="stroke-width:.512821"/><path d="M385.668 267.719h12.148v12.149h-12.148z" style="stroke-width:.512821"/><path d="M397.463 267.719h12.148v12.149h-12.148z" style="stroke-width:.512821"/><path d="M409.257 267.719h12.15v12.149h-12.15zm23.59 0h12.149v12.149h-12.149zm23.59 0h12.149v12.149h-12.15ZM31.822 279.514H43.97v12.149H31.822Z" style="stroke-width:.512821"/><path d="M43.616 279.514h12.15v12.149h-12.15Z" style="stroke-width:.512821"/><path d="M55.411 279.514H67.56v12.149H55.411Z" style="stroke-width:.512821"/><path d="M67.206 279.514h12.149v12.149H67.206Zm58.975 0h12.148v12.149h-12.148zm47.179 0h12.149v12.149H173.36Zm153.333 0h12.15v12.149h-12.15zm47.18 0h12.149v12.149h-12.15zm23.59 0h12.148v12.149h-12.148zm35.384 0h12.149v12.149h-12.149ZM31.822 291.309H43.97v12.148H31.822Z" style="stroke-width:.512821"/><path d="M43.616 291.309h12.15v12.148h-12.15Z" style="stroke-width:.512821"/><path d="M55.411 291.309H67.56v12.148H55.411Zm23.59 0H91.15v12.148H79Z" style="stroke-width:.512821"/><path d="M90.796 291.309h12.149v12.148h-12.15Z" style="stroke-width:.512821"/><path d="M102.59 291.309h12.15v12.148h-12.15z" style="stroke-width:.512821"/><path d="M114.386 291.309h12.148v12.148h-12.148zm23.59 0h12.148v12.148h-12.149z" style="stroke-width:.512821"/><path d="M149.77 291.309h12.149v12.148H149.77zm176.923 0h12.15v12.148h-12.15z" style="stroke-width:.512821"/><path d="M338.488 291.309h12.149v12.148h-12.149z" style="stroke-width:.512821"/><path d="M350.283 291.309h12.149v12.148h-12.149zm35.385 0h12.148v12.148h-12.148zm47.18 0h12.148v12.148h-12.149zm23.589 0h12.149v12.148h-12.15Zm-412.82 11.795h12.148v12.148H43.616Zm23.59 0h12.148v12.148H67.206Z" style="stroke-width:.512821"/><path d="M79.001 303.104H91.15v12.148H79Z" style="stroke-width:.512821"/><path d="M90.796 303.104h12.149v12.148h-12.15Zm35.385 0h12.148v12.148h-12.148zm47.179 0h12.149v12.148H173.36Zm153.333 0h12.15v12.148h-12.15zm70.77 0h12.148v12.148h-12.148zm47.179 0h12.149v12.148h-12.149Zm-412.82 11.794H43.97v12.15H31.822Z" style="stroke-width:.512821"/><path d="M43.616 314.898h12.15v12.15h-12.15Z" style="stroke-width:.512821"/><path d="M55.411 314.898H67.56v12.15H55.411Zm47.18 0h12.148v12.15h-12.148zm47.18 0h12.148v12.15H149.77z" style="stroke-width:.512821"/><path d="M161.565 314.898h12.149v12.15h-12.149z" style="stroke-width:.512821"/><path d="M173.36 314.898h12.149v12.15H173.36Z" style="stroke-width:.512821"/><path d="M185.155 314.898h12.149v12.15h-12.15zm35.384 0h12.15v12.15h-12.15z" style="stroke-width:.512821"/><path d="M232.334 314.898h12.15v12.15h-12.15z" style="stroke-width:.512821"/><path d="M244.13 314.898h12.148v12.15h-12.149z" style="stroke-width:.512821"/><path d="M255.924 314.898h12.149v12.15h-12.149Zm58.974 0h12.15v12.15h-12.15zm23.59 0h12.149v12.15h-12.149zm47.18 0h12.148v12.15h-12.148zm35.384 0h12.149v12.15h-12.149z" style="stroke-width:.512821"/><path d="M432.847 314.898h12.149v12.15h-12.149zm23.59 0h12.149v12.15h-12.15ZM31.822 326.693H43.97v12.15H31.822Zm35.384 0h12.149v12.15H67.206Zm23.59 0h12.149v12.15h-12.15Zm23.59 0h12.148v12.15h-12.148zm47.18 0h12.148v12.15h-12.149z" style="stroke-width:.512821"/><path d="M173.36 326.693h12.149v12.15H173.36Z" style="stroke-width:.512821"/><path d="M185.155 326.693h12.149v12.15h-12.15z" style="stroke-width:.512821"/><path d="M196.95 326.693h12.148v12.15H196.95z" style="stroke-width:.512821"/><path d="M208.745 326.693h12.148v12.15h-12.148zm23.59 0h12.148v12.15h-12.149zm35.384 0h12.149v12.15h-12.149z" style="stroke-width:.512821"/><path d="M279.514 326.693h12.149v12.15h-12.15z" style="stroke-width:.512821"/><path d="M291.309 326.693h12.148v12.15H291.31zm58.974 0h12.149v12.15h-12.149zm23.59 0h12.149v12.15h-12.15ZM31.822 338.488H43.97v12.149H31.822Zm47.179 0H91.15v12.149H79Z" style="stroke-width:.512821"/><path d="M90.796 338.488h12.149v12.149h-12.15Z" style="stroke-width:.512821"/><path d="M102.59 338.488h12.15v12.149h-12.15z" style="stroke-width:.512821"/><path d="M114.386 338.488h12.148v12.149h-12.148zm23.59 0h12.148v12.149h-12.149zm23.59 0h12.148v12.149h-12.149zm23.589 0h12.149v12.149h-12.15zm23.59 0h12.148v12.149h-12.148zm35.384 0h12.149v12.149h-12.149z" style="stroke-width:.512821"/><path d="M255.924 338.488h12.149v12.149h-12.149Zm23.59 0h12.149v12.149h-12.15zm23.59 0h12.148v12.149h-12.148z" style="stroke-width:.512821"/><path d="M314.898 338.488h12.15v12.149h-12.15z" style="stroke-width:.512821"/><path d="M326.693 338.488h12.15v12.149h-12.15z" style="stroke-width:.512821"/><path d="M338.488 338.488h12.149v12.149h-12.149z" style="stroke-width:.512821"/><path d="M350.283 338.488h12.149v12.149h-12.149zm35.385 0h12.148v12.149h-12.148z" style="stroke-width:.512821"/><path d="M397.463 338.488h12.148v12.149h-12.148zm35.384 0h12.149v12.149h-12.149z" style="stroke-width:.512821"/><path d="M444.642 338.488h12.149v12.149h-12.149z" style="stroke-width:.512821"/><path d="M456.437 338.488h12.149v12.149h-12.15ZM31.822 350.283H43.97v12.149H31.822Zm47.179 0H91.15v12.149H79Z" style="stroke-width:.512821"/><path d="M90.796 350.283h12.149v12.149h-12.15Zm47.18 0h12.148v12.149h-12.149z" style="stroke-width:.512821"/><path d="M149.77 350.283h12.149v12.149H149.77zm35.385 0h12.149v12.149h-12.15zm35.384 0h12.15v12.149h-12.15z" style="stroke-width:.512821"/><path d="M232.334 350.283h12.15v12.149h-12.15zm23.59 0h12.149v12.149h-12.149Zm47.18 0h12.148v12.149h-12.148zm35.384 0h12.149v12.149h-12.149z" style="stroke-width:.512821"/><path d="M350.283 350.283h12.149v12.149h-12.149zm23.59 0h12.149v12.149h-12.15zm47.18 0H433.2v12.149h-12.149z" style="stroke-width:.512821"/><path d="M432.847 350.283h12.149v12.149h-12.149ZM31.822 362.078H43.97v12.149H31.822Zm35.384 0h12.149v12.149H67.206Zm35.385 0h12.148v12.149h-12.148zm70.769 0h12.149v12.149H173.36Zm58.974 0h12.15v12.149h-12.15zm23.59 0h12.149v12.149h-12.149Z" style="stroke-width:.512821"/><path d="M267.719 362.078h12.149v12.149h-12.149zm23.59 0h12.148v12.149H291.31z" style="stroke-width:.512821"/><path d="M303.104 362.078h12.148v12.149h-12.148zm23.59 0h12.148v12.149h-12.149z" style="stroke-width:.512821"/><path d="M338.488 362.078h12.149v12.149h-12.149zm23.59 0h12.149v12.149h-12.149z" style="stroke-width:.512821"/><path d="M373.873 362.078h12.149v12.149h-12.15z" style="stroke-width:.512821"/><path d="M385.668 362.078h12.148v12.149h-12.148z" style="stroke-width:.512821"/><path d="M397.463 362.078h12.148v12.149h-12.148z" style="stroke-width:.512821"/><path d="M409.257 362.078h12.15v12.149h-12.15zm35.385 0h12.149v12.149h-12.149zm-318.461 11.795h12.148v12.149h-12.148z" style="stroke-width:.512821"/><path d="M137.975 373.873h12.15v12.149h-12.15zm23.59 0h12.149v12.149h-12.149zm23.59 0h12.149v12.149h-12.15zm47.18 0h12.148v12.149h-12.149zm23.59 0h12.148v12.149h-12.149Zm47.179 0h12.148v12.149h-12.148zm23.59 0h12.148v12.149h-12.149z" style="stroke-width:.512821"/><path d="M338.488 373.873h12.149v12.149h-12.149z" style="stroke-width:.512821"/><path d="M350.283 373.873h12.149v12.149h-12.149z" style="stroke-width:.512821"/><path d="M362.078 373.873h12.149v12.149h-12.149zm47.18 0h12.148v12.149h-12.149zm35.384 0h12.149v12.149h-12.149zm-283.077 11.795h12.149v12.148h-12.149z" style="stroke-width:.512821"/><path d="M173.36 385.668h12.149v12.148H173.36Zm35.385 0h12.148v12.148h-12.148zm23.59 0h12.148v12.148h-12.149z" style="stroke-width:.512821"/><path d="M244.13 385.668h12.148v12.148h-12.149z" style="stroke-width:.512821"/><path d="M255.924 385.668h12.149v12.148h-12.149Zm35.385 0h12.148v12.148H291.31zm23.59 0h12.148v12.148h-12.149z" style="stroke-width:.512821"/><path d="M326.693 385.668h12.15v12.148h-12.15z" style="stroke-width:.512821"/><path d="M338.488 385.668h12.149v12.148h-12.149zm23.59 0h12.149v12.148h-12.149zm23.59 0h12.148v12.148h-12.148zm23.59 0h12.148v12.148h-12.149z" style="stroke-width:.512821"/><path d="M421.052 385.668h12.149v12.148h-12.149zm23.59 0h12.149v12.148h-12.149z" style="stroke-width:.512821"/><path d="M456.437 385.668h12.149v12.148h-12.15zm-318.462 11.795h12.15v12.148h-12.15z" style="stroke-width:.512821"/><path d="M149.77 397.463h12.149v12.148H149.77z" style="stroke-width:.512821"/><path d="M161.565 397.463h12.149v12.148h-12.149z" style="stroke-width:.512821"/><path d="M173.36 397.463h12.149v12.148H173.36Z" style="stroke-width:.512821"/><path d="M185.155 397.463h12.149v12.148h-12.15z" style="stroke-width:.512821"/><path d="M196.95 397.463h12.148v12.148H196.95zm35.384 0h12.15v12.148h-12.15z" style="stroke-width:.512821"/><path d="M244.13 397.463h12.148v12.148h-12.149zm23.589 0h12.149v12.148h-12.149z" style="stroke-width:.512821"/><path d="M279.514 397.463h12.149v12.148h-12.15zm82.564 0h12.149v12.148h-12.149zm47.18 0h12.148v12.148h-12.149zm35.384 0h12.149v12.148h-12.149zm-318.461 11.794h12.148v12.15h-12.148zm70.769 0h12.148v12.15H196.95z" style="stroke-width:.512821"/><path d="M208.745 409.257h12.148v12.15h-12.148zm23.59 0h12.148v12.15h-12.149zm23.59 0h12.148v12.15h-12.149Z" style="stroke-width:.512821"/><path d="M267.719 409.257h12.149v12.15h-12.149z" style="stroke-width:.512821"/><path d="M279.514 409.257h12.149v12.15h-12.15z" style="stroke-width:.512821"/><path d="M291.309 409.257h12.148v12.15H291.31zm35.384 0h12.15v12.15h-12.15zm23.59 0h12.149v12.15h-12.149z" style="stroke-width:.512821"/><path d="M362.078 409.257h12.149v12.15h-12.149z" style="stroke-width:.512821"/><path d="M373.873 409.257h12.149v12.15h-12.15z" style="stroke-width:.512821"/><path d="M385.668 409.257h12.148v12.15h-12.148z" style="stroke-width:.512821"/><path d="M397.463 409.257h12.148v12.15h-12.148z" style="stroke-width:.512821"/><path d="M409.257 409.257h12.15v12.15h-12.15zm23.59 0h12.149v12.15h-12.149z" style="stroke-width:.512821"/><path d="M444.642 409.257h12.149v12.15h-12.149z" style="stroke-width:.512821"/><path d="M456.437 409.257h12.149v12.15h-12.15zM126.18 421.052h12.148v12.149h-12.148z" style="stroke-width:.512821"/><path d="M137.975 421.052h12.15v12.149h-12.15zm35.385 0h12.149v12.149H173.36Z" style="stroke-width:.512821"/><path d="M185.155 421.052h12.149v12.149h-12.15zm35.384 0h12.15v12.149h-12.15zm23.59 0h12.149v12.149h-12.149z" style="stroke-width:.512821"/><path d="M255.924 421.052h12.149v12.149h-12.149Zm58.974 0h12.15v12.149h-12.15zm35.385 0h12.149v12.149h-12.149z" style="stroke-width:.512821"/><path d="M362.078 421.052h12.149v12.149h-12.149zm23.59 0h12.148v12.149h-12.148zm23.59 0h12.148v12.149h-12.149z" style="stroke-width:.512821"/><path d="M421.052 421.052h12.149v12.149h-12.149zm-294.871 11.795h12.148v12.149h-12.148z" style="stroke-width:.512821"/><path d="M137.975 432.847h12.15v12.149h-12.15Z" style="stroke-width:.512821"/><path d="M149.77 432.847h12.149v12.149H149.77zm23.59 0h12.149v12.149H173.36Zm23.59 0h12.148v12.149H196.95zm35.384 0h12.15v12.149h-12.15zm23.59 0h12.149v12.149h-12.149Z" style="stroke-width:.512821"/><path d="M267.719 432.847h12.149v12.149h-12.149zm23.59 0h12.148v12.149H291.31zm35.384 0h12.15v12.149h-12.15zm23.59 0h12.149v12.149h-12.149zm23.59 0h12.149v12.149h-12.15zm58.974 0h12.149v12.149h-12.149zm23.59 0h12.149v12.149h-12.15zm-294.872 11.795h12.149v12.149h-12.149z" style="stroke-width:.512821"/><path d="M173.36 444.642h12.149v12.149H173.36Zm23.59 0h12.148v12.149H196.95zm23.59 0h12.148v12.149H220.54z" style="stroke-width:.512821"/><path d="M232.334 444.642h12.15v12.149h-12.15z" style="stroke-width:.512821"/><path d="M244.13 444.642h12.148v12.149h-12.149z" style="stroke-width:.512821"/><path d="M255.924 444.642h12.149v12.149h-12.149Z" style="stroke-width:.512821"/><path d="M267.719 444.642h12.149v12.149h-12.149z" style="stroke-width:.512821"/><path d="M279.514 444.642h12.149v12.149h-12.15zm35.384 0h12.15v12.149h-12.15zm23.59 0h12.149v12.149h-12.149z" style="stroke-width:.512821"/><path d="M350.283 444.642h12.149v12.149h-12.149z" style="stroke-width:.512821"/><path d="M362.078 444.642h12.149v12.149h-12.149zm23.59 0h12.148v12.149h-12.148z" style="stroke-width:.512821"/><path d="M397.463 444.642h12.148v12.149h-12.148zm58.974 0h12.149v12.149h-12.15zm-318.462 11.795h12.15v12.149h-12.15zm23.59 0h12.149v12.149h-12.149zm58.974 0h12.15v12.149h-12.15zm35.385 0h12.149v12.149h-12.149Z" style="stroke-width:.512821"/><path d="M267.719 456.437h12.149v12.149h-12.149zm58.974 0h12.15v12.149h-12.15z" style="stroke-width:.512821"/><path d="M338.488 456.437h12.149v12.149h-12.149zm58.975 0h12.148v12.149h-12.148z" style="stroke-width:.512821"/><path d="M409.257 456.437h12.15v12.149h-12.15zm23.59 0h12.149v12.149h-12.149z" style="stroke-width:.512821"/><path d="M444.642 456.437h12.149v12.149h-12.149z" style="stroke-width:.512821"/><path d="M456.437 456.437h12.149v12.149h-12.15ZM31.822 31.822v82.564h82.564V31.822Zm70.769 70.769H43.616V43.616h58.975zm283.077-70.77v82.565h82.564V31.822Zm70.769 70.77h-58.974V43.616h58.974zM31.822 385.668v82.564h82.564v-82.564zm70.769 70.769H43.616v-58.974h58.975z" style="stroke-width:.512821"/><path d="M55.411 55.411h35.385v35.385H55.41Zm353.846 0h35.385v35.385h-35.385ZM55.411 409.257h35.385v35.385H55.41Z" style="stroke-width:.512821"/><path d="M277.26 206.21s1.839 7.76-4.02 8.84c-4.08.72-10.658-3.321-13.97-7.354-4.08-4.973-3.564-8.885-.39-12.358 4.767-5.274 12.93-3.236 12.93-3.236s-14.955-13.12-30.53-2.368c-13.872 9.547-9.89 22.566 2.628 33.923 11.282 10.266 2.27 21.522-9.095 20.06-7.791-.993-10.98-7.245-9.108-11.083 1.612-3.282 7.205-5.3 7.205-5.3s-6.424-2.612-13.986.235c-6.792 2.56-12.392 8.174-11.944 22.237V315s7.02-8.656 15.274-17.46c9.242-9.93 13.46-16.641 22.95-15.857 17.958 1.112 30.944-6.866 39.773-19.667 16.949-24.62 3.673-52.127-7.717-55.806" style="fill:#e0311d;fill-opacity:1;stroke-width:3.5871"/></svg>