<svg xmlns="http://www.w3.org/2000/svg" xml:space="preserve" width="500" height="500"><path fill="#fff" d="M0 0h500v500H0Z" style="stroke-width:.507685"/><path d="M124.9 31.498h12.025v12.026h-12.026z" style="stroke-width:.507614"/><path d="M136.575 31.498H148.6v12.026h-12.025zm23.35 0h12.025v12.026h-12.025z" style="stroke-width:.507614"/><path d="M171.6 31.498h12.025v12.026H171.6Zm35.025 0h12.026v12.026h-12.026zm70.051 0h12.026v12.026h-12.026z" style="stroke-width:.507614"/><path d="M288.351 31.498h12.026v12.026H288.35zm23.35 0h12.026v12.026h-12.025zm23.35 0h12.026v12.026h-12.025zm23.351 0h12.025v12.026h-12.025ZM124.899 43.174h12.026v12.025h-12.026z" style="stroke-width:.507614"/><path d="M136.575 43.174H148.6v12.025h-12.025z" style="stroke-width:.507614"/><path d="M148.25 43.174h12.025v12.025H148.25z" style="stroke-width:.507614"/><path d="M159.925 43.174h12.025v12.025h-12.025zm23.35 0h12.026v12.025h-12.026z" style="stroke-width:.507614"/><path d="M194.95 43.174h12.026v12.025H194.95z" style="stroke-width:.507614"/><path d="M206.625 43.174h12.026v12.025h-12.026zm46.7 0h12.026v12.025h-12.025z" style="stroke-width:.507614"/><path d="M265.001 43.174h12.025v12.025h-12.025zm23.35 0h12.026v12.025H288.35zm46.7 0h12.026v12.025h-12.025z" style="stroke-width:.507614"/><path d="M346.727 43.174h12.025v12.025h-12.025ZM124.899 54.849h12.026v12.025h-12.026zm35.026 0h12.025v12.025h-12.025zm35.025 0h12.026v12.025H194.95zm23.35 0h12.026v12.025H218.3z" style="stroke-width:.507614"/><path d="M229.976 54.849H242v12.025h-12.025zm35.025 0h12.025v12.025h-12.025zm23.35 0h12.026v12.025H288.35zm23.35 0h12.026v12.025h-12.025zm46.701 0h12.025v12.025h-12.025ZM136.575 66.524H148.6v12.025h-12.025zm23.35 0h12.025v12.025h-12.025zm35.025 0h12.026v12.025H194.95z" style="stroke-width:.507614"/><path d="M206.625 66.524h12.026v12.025h-12.026z" style="stroke-width:.507614"/><path d="M218.3 66.524h12.026v12.025H218.3z" style="stroke-width:.507614"/><path d="M229.976 66.524H242v12.025h-12.025z" style="stroke-width:.507614"/><path d="M241.65 66.524h12.026v12.025h-12.025zm23.351 0h12.025v12.025h-12.025z" style="stroke-width:.507614"/><path d="M276.676 66.524h12.026v12.025h-12.026z" style="stroke-width:.507614"/><path d="M288.351 66.524h12.026v12.025H288.35z" style="stroke-width:.507614"/><path d="M300.026 66.524h12.026v12.025h-12.026Zm23.35 0h12.026v12.025h-12.025z" style="stroke-width:.507614"/><path d="M335.052 66.524h12.025v12.025h-12.025z" style="stroke-width:.507614"/><path d="M346.727 66.524h12.025v12.025h-12.025ZM136.575 78.199H148.6v12.025h-12.025z" style="stroke-width:.507614"/><path d="M148.25 78.199h12.025v12.025H148.25z" style="stroke-width:.507614"/><path d="M159.925 78.199h12.025v12.025h-12.025zm23.35 0h12.026v12.025h-12.026zm23.35 0h12.026v12.025h-12.026z" style="stroke-width:.507614"/><path d="M218.3 78.199h12.026v12.025H218.3z" style="stroke-width:.507614"/><path d="M229.976 78.199H242v12.025h-12.025zm81.726 0h12.025v12.025h-12.025zm23.35 0h12.025v12.025h-12.025ZM124.899 89.874h12.026V101.9h-12.026z" style="stroke-width:.507614"/><path d="M136.575 89.874H148.6V101.9h-12.025z" style="stroke-width:.507614"/><path d="M148.25 89.874h12.025V101.9H148.25z" style="stroke-width:.507614"/><path d="M159.925 89.874h12.025V101.9h-12.025z" style="stroke-width:.507614"/><path d="M171.6 89.874h12.025V101.9H171.6Z" style="stroke-width:.507614"/><path d="M183.275 89.874h12.026V101.9h-12.026z" style="stroke-width:.507614"/><path d="M194.95 89.874h12.026V101.9H194.95zm23.35 0h12.026V101.9H218.3zm23.35 0h12.026V101.9h-12.025z" style="stroke-width:.507614"/><path d="M253.326 89.874h12.025V101.9h-12.025z" style="stroke-width:.507614"/><path d="M265.001 89.874h12.025V101.9h-12.025Z" style="stroke-width:.507614"/><path d="M276.676 89.874h12.026V101.9h-12.026zm35.026 0h12.025V101.9h-12.025zm35.025 0h12.025V101.9h-12.025Z" style="stroke-width:.507614"/><path d="M358.402 89.874h12.025V101.9h-12.025ZM124.899 101.55h12.026v12.026h-12.026zm23.35 0h12.026v12.026H148.25zm23.351 0h12.025v12.026H171.6Zm23.35 0h12.026v12.026H194.95zm23.35 0h12.026v12.026H218.3zm23.35 0h12.026v12.026h-12.025zm23.351 0h12.025v12.026h-12.025zm23.35 0h12.026v12.026H288.35zm23.35 0h12.026v12.026h-12.025zm23.35 0h12.026v12.026h-12.025z" style="stroke-width:.507614"/><path d="M358.402 101.55h12.025v12.025h-12.025zm-233.503 11.674h12.026v12.026h-12.026zm35.026 0h12.025v12.026h-12.025z" style="stroke-width:.507614"/><path d="M171.6 113.224h12.025v12.026H171.6Z" style="stroke-width:.507614"/><path d="M183.275 113.224h12.026v12.026h-12.026z" style="stroke-width:.507614"/><path d="M194.95 113.224h12.026v12.026H194.95zm46.7 0h12.026v12.026h-12.025z" style="stroke-width:.507614"/><path d="M253.326 113.224h12.025v12.026h-12.025z" style="stroke-width:.507614"/><path d="M265.001 113.224h12.025v12.026h-12.025zm70.05 0h12.026v12.026h-12.025zm23.351 0h12.025v12.026h-12.025ZM54.849 124.9h12.025v12.026H54.85Z" style="stroke-width:.507614"/><path d="M66.524 124.9h12.025v12.025H66.524Z" style="stroke-width:.507614"/><path d="M78.199 124.9h12.025v12.025H78.2zm23.35 0h12.026v12.025h-12.026zm23.35 0h12.026v12.025h-12.026z" style="stroke-width:.507614"/><path d="M136.575 124.9H148.6v12.025h-12.025z" style="stroke-width:.507614"/><path d="M148.25 124.9h12.025v12.025H148.25z" style="stroke-width:.507614"/><path d="M159.925 124.9h12.025v12.025h-12.025zm23.35 0h12.026v12.025h-12.026zm23.35 0h12.026v12.025h-12.026z" style="stroke-width:.507614"/><path d="M218.3 124.9h12.026v12.025H218.3z" style="stroke-width:.507614"/><path d="M229.976 124.9H242v12.025h-12.025z" style="stroke-width:.507614"/><path d="M241.65 124.9h12.026v12.025h-12.025zm23.351 0h12.025v12.025h-12.025zm35.025 0h12.026v12.025h-12.026Zm70.051 0h12.026v12.025h-12.026z" style="stroke-width:.507614"/><path d="M381.752 124.9h12.026v12.025h-12.026z" style="stroke-width:.507614"/><path d="M393.427 124.9h12.026v12.025h-12.026zm35.026 0h12.025v12.025h-12.025z" style="stroke-width:.507614"/><path d="M440.128 124.9h12.025v12.025h-12.025z" style="stroke-width:.507614"/><path d="M451.803 124.9h12.025v12.025h-12.025Zm-408.63 11.675H55.2V148.6H43.174Zm35.026 0h12.025V148.6H78.2zm46.7 0h12.026V148.6h-12.026z" style="stroke-width:.507614"/><path d="M136.575 136.575H148.6V148.6h-12.025z" style="stroke-width:.507614"/><path d="M148.25 136.575h12.025V148.6H148.25z" style="stroke-width:.507614"/><path d="M159.925 136.575h12.025V148.6h-12.025zm23.35 0h12.026V148.6h-12.026z" style="stroke-width:.507614"/><path d="M194.95 136.575h12.026V148.6H194.95z" style="stroke-width:.507614"/><path d="M206.625 136.575h12.026V148.6h-12.026z" style="stroke-width:.507614"/><path d="M218.3 136.575h12.026V148.6H218.3z" style="stroke-width:.507614"/><path d="M229.976 136.575H242V148.6h-12.025z" style="stroke-width:.507614"/><path d="M241.65 136.575h12.026V148.6h-12.025zm23.351 0h12.025V148.6h-12.025z" style="stroke-width:.507614"/><path d="M276.676 136.575h12.026V148.6h-12.026zm23.35 0h12.026V148.6h-12.026Z" style="stroke-width:.507614"/><path d="M311.702 136.575h12.025V148.6h-12.025z" style="stroke-width:.507614"/><path d="M323.377 136.575h12.025V148.6h-12.025z" style="stroke-width:.507614"/><path d="M335.052 136.575h12.025V148.6h-12.025z" style="stroke-width:.507614"/><path d="M346.727 136.575h12.025V148.6h-12.025Z" style="stroke-width:.507614"/><path d="M358.402 136.575h12.025V148.6h-12.025zm23.35 0h12.026V148.6h-12.026zm35.026 0h12.025V148.6h-12.025ZM78.199 148.25h12.025v12.025H78.2z" style="stroke-width:.507614"/><path d="M89.874 148.25H101.9v12.025H89.874Z" style="stroke-width:.507614"/><path d="M101.55 148.25h12.025v12.025h-12.026z" style="stroke-width:.507614"/><path d="M113.224 148.25h12.026v12.025h-12.026zm35.026 0h12.025v12.025H148.25zm46.7 0h12.026v12.025H194.95z" style="stroke-width:.507614"/><path d="M206.625 148.25h12.026v12.025h-12.026zm23.35 0h12.026v12.025h-12.025z" style="stroke-width:.507614"/><path d="M241.65 148.25h12.026v12.025h-12.025z" style="stroke-width:.507614"/><path d="M253.326 148.25h12.025v12.025h-12.025z" style="stroke-width:.507614"/><path d="M265.001 148.25h12.025v12.025h-12.025z" style="stroke-width:.507614"/><path d="M276.676 148.25h12.026v12.025h-12.026z" style="stroke-width:.507614"/><path d="M288.351 148.25h12.026v12.025H288.35z" style="stroke-width:.507614"/><path d="M300.026 148.25h12.026v12.025h-12.026Zm23.35 0h12.026v12.025h-12.025z" style="stroke-width:.507614"/><path d="M335.052 148.25h12.025v12.025h-12.025zm46.7 0h12.026v12.025h-12.026zm23.35 0h12.026v12.025h-12.025z" style="stroke-width:.507614"/><path d="M416.778 148.25h12.025v12.025h-12.025zm23.35 0h12.025v12.025h-12.025z" style="stroke-width:.507614"/><path d="M451.803 148.25h12.025v12.025h-12.025Zm-408.63 11.675H55.2v12.025H43.174Z" style="stroke-width:.507614"/><path d="M54.849 159.925h12.025v12.025H54.85Zm23.35 0h12.025v12.025H78.2zm70.05 0h12.026v12.025H148.25z" style="stroke-width:.507614"/><path d="M159.925 159.925h12.025v12.025h-12.025zm46.7 0h12.026v12.025h-12.026zm46.7 0h12.026v12.025h-12.025z" style="stroke-width:.507614"/><path d="M265.001 159.925h12.025v12.025h-12.025zm23.35 0h12.026v12.025H288.35zm46.7 0h12.026v12.025h-12.025zm23.351 0h12.025v12.025h-12.025zm23.35 0h12.026v12.025h-12.026z" style="stroke-width:.507614"/><path d="M393.427 159.925h12.026v12.025h-12.026zm23.35 0h12.026v12.025h-12.025zm23.35 0h12.026v12.025h-12.025ZM78.2 171.6h12.025v12.025H78.2z" style="stroke-width:.507614"/><path d="M89.874 171.6H101.9v12.025H89.874Z" style="stroke-width:.507614"/><path d="M101.55 171.6h12.025v12.025h-12.026zm35.025 0H148.6v12.025h-12.025zm23.35 0h12.025v12.025h-12.025z" style="stroke-width:.507614"/><path d="M171.6 171.6h12.025v12.025H171.6Zm35.025 0h12.026v12.025h-12.026z" style="stroke-width:.507614"/><path d="M218.3 171.6h12.026v12.025H218.3z" style="stroke-width:.507614"/><path d="M229.976 171.6H242v12.025h-12.025zm35.025 0h12.025v12.025h-12.025zm23.35 0h12.026v12.025H288.35z" style="stroke-width:.507614"/><path d="M300.026 171.6h12.026v12.025h-12.026Z" style="stroke-width:.507614"/><path d="M311.702 171.6h12.025v12.025h-12.025z" style="stroke-width:.507614"/><path d="M323.377 171.6h12.025v12.025h-12.025z" style="stroke-width:.507614"/><path d="M335.052 171.6h12.025v12.025h-12.025zm35.025 0h12.026v12.025h-12.026z" style="stroke-width:.507614"/><path d="M381.752 171.6h12.026v12.025h-12.026z" style="stroke-width:.507614"/><path d="M393.427 171.6h12.026v12.025h-12.026z" style="stroke-width:.507614"/><path d="M405.103 171.6h12.025v12.025h-12.025zm23.35 0h12.025v12.025h-12.025zm23.35 0h12.025v12.025h-12.025ZM31.498 183.275h12.026v12.026H31.498Zm46.701 0h12.025v12.026H78.2zm35.025 0h12.026v12.026h-12.026zm23.35 0H148.6v12.026h-12.025zm198.478 0h12.025v12.026h-12.025zm23.35 0h12.025v12.026h-12.025z" style="stroke-width:.507614"/><path d="M370.077 183.275h12.026v12.026h-12.026zm23.35 0h12.026v12.026h-12.026zm23.35 0h12.026v12.026h-12.025z" style="stroke-width:.507614"/><path d="M428.453 183.275h12.025v12.026h-12.025ZM31.498 194.95h12.026v12.026H31.498Z" style="stroke-width:.507614"/><path d="M43.174 194.95h12.025v12.026H43.174Zm58.375 0h12.026v12.026h-12.026z" style="stroke-width:.507614"/><path d="M113.224 194.95h12.026v12.026h-12.026z" style="stroke-width:.507614"/><path d="M124.9 194.95h12.025v12.026h-12.026z" style="stroke-width:.507614"/><path d="M136.575 194.95H148.6v12.026h-12.025zm23.35 0h12.025v12.026h-12.025zm151.777 0h12.025v12.026h-12.025zm23.35 0h12.025v12.026h-12.025z" style="stroke-width:.507614"/><path d="M346.727 194.95h12.025v12.026h-12.025Z" style="stroke-width:.507614"/><path d="M358.402 194.95h12.025v12.026h-12.025zm23.35 0h12.026v12.026h-12.026z" style="stroke-width:.507614"/><path d="M393.427 194.95h12.026v12.026h-12.026z" style="stroke-width:.507614"/><path d="M405.103 194.95h12.025v12.026h-12.025z" style="stroke-width:.507614"/><path d="M416.778 194.95h12.025v12.026h-12.025zm35.025 0h12.025v12.026h-12.025ZM31.498 206.625h12.026v12.026H31.498Zm23.35 0h12.026v12.026H54.85Z" style="stroke-width:.507614"/><path d="M66.524 206.625h12.025v12.026H66.524Z" style="stroke-width:.507614"/><path d="M78.199 206.625h12.025v12.026H78.2zm233.503 0h12.025v12.026h-12.025zm23.35 0h12.025v12.026h-12.025zm23.35 0h12.025v12.026h-12.025z" style="stroke-width:.507614"/><path d="M370.077 206.625h12.026v12.026h-12.026z" style="stroke-width:.507614"/><path d="M381.752 206.625h12.026v12.026h-12.026z" style="stroke-width:.507614"/><path d="M393.427 206.625h12.026v12.026h-12.026z" style="stroke-width:.507614"/><path d="M405.103 206.625h12.025v12.026h-12.025zm35.025 0h12.025v12.026h-12.025ZM43.174 218.301h12.025v12.025H43.174Zm23.35 0h12.025v12.025H66.524Zm35.025 0h12.026v12.025h-12.026zm35.026 0H148.6v12.025h-12.025z" style="stroke-width:.507614"/><path d="M148.25 218.3h12.025v12.026H148.25z" style="stroke-width:.507614"/><path d="M159.925 218.3h12.025v12.026h-12.025z" style="stroke-width:.507614"/><path d="M171.6 218.3h12.025v12.026H171.6Zm151.777 0h12.025v12.026h-12.025z" style="stroke-width:.507614"/><path d="M335.052 218.3h12.025v12.026h-12.025zm35.025 0h12.026v12.026h-12.026z" style="stroke-width:.507614"/><path d="M381.752 218.3h12.026v12.026h-12.026zm23.35 0h12.026v12.026h-12.025zm23.35 0h12.026v12.026h-12.025z" style="stroke-width:.507614"/><path d="M440.128 218.3h12.025v12.026h-12.025z" style="stroke-width:.507614"/><path d="M451.803 218.3h12.025v12.026h-12.025ZM31.498 229.977h12.026V242H31.498Z" style="stroke-width:.507614"/><path d="M43.174 229.976h12.025V242H43.174Z" style="stroke-width:.507614"/><path d="M54.849 229.976h12.025V242H54.85Z" style="stroke-width:.507614"/><path d="M66.524 229.976h12.025V242H66.524Zm23.35 0H101.9V242H89.874Zm70.05 0h12.026V242h-12.025zm151.778 0h12.025V242h-12.025zm46.7 0h12.025V242h-12.025z" style="stroke-width:.507614"/><path d="M370.077 229.976h12.026V242h-12.026zm23.35 0h12.026V242h-12.026zm35.026 0h12.025V242h-12.025ZM66.523 241.65H78.55v12.025H66.524Z" style="stroke-width:.507614"/><path d="M78.199 241.65h12.025v12.026H78.2zm23.35 0h12.026v12.026h-12.026zm35.026 0H148.6v12.026h-12.025zm198.477 0h12.025v12.026h-12.025z" style="stroke-width:.507614"/><path d="M346.727 241.65h12.025v12.026h-12.025Z" style="stroke-width:.507614"/><path d="M358.402 241.65h12.025v12.026h-12.025zm23.35 0h12.026v12.026h-12.026zm35.026 0h12.025v12.026h-12.025z" style="stroke-width:.507614"/><path d="M428.453 241.65h12.025v12.026h-12.025z" style="stroke-width:.507614"/><path d="M440.128 241.65h12.025v12.026h-12.025z" style="stroke-width:.507614"/><path d="M451.803 241.65h12.025v12.026h-12.025ZM31.498 253.327h12.026v12.025H31.498Z" style="stroke-width:.507614"/><path d="M43.174 253.326h12.025v12.025H43.174Zm46.7 0H101.9v12.025H89.874Zm23.35 0h12.026v12.025h-12.026z" style="stroke-width:.507614"/><path d="M124.9 253.326h12.025v12.025h-12.026z" style="stroke-width:.507614"/><path d="M136.575 253.326H148.6v12.025h-12.025z" style="stroke-width:.507614"/><path d="M148.25 253.326h12.025v12.025H148.25zm23.35 0h12.025v12.025H171.6Zm163.452 0h12.025v12.025h-12.025zm46.7 0h12.026v12.025h-12.026zm58.376 0h12.025v12.025h-12.025z" style="stroke-width:.507614"/><path d="M451.803 253.326h12.025v12.025h-12.025ZM43.173 265H55.2v12.025H43.174Zm35.026 0h12.025v12.025H78.2zm23.35 0h12.026v12.025h-12.026z" style="stroke-width:.507614"/><path d="M113.224 265.001h12.026v12.025h-12.026zm23.35 0H148.6v12.025h-12.025z" style="stroke-width:.507614"/><path d="M148.25 265.001h12.025v12.025H148.25z" style="stroke-width:.507614"/><path d="M159.925 265.001h12.025v12.025h-12.025z" style="stroke-width:.507614"/><path d="M171.6 265.001h12.025v12.025H171.6Zm151.777 0h12.025v12.025h-12.025z" style="stroke-width:.507614"/><path d="M335.052 265.001h12.025v12.025h-12.025zm35.025 0h12.026v12.025h-12.026z" style="stroke-width:.507614"/><path d="M381.752 265.001h12.026v12.025h-12.026z" style="stroke-width:.507614"/><path d="M393.427 265.001h12.026v12.025h-12.026z" style="stroke-width:.507614"/><path d="M405.103 265.001h12.025v12.025h-12.025zm23.35 0h12.025v12.025h-12.025zm23.35 0h12.025v12.025h-12.025ZM31.498 276.676h12.026v12.026H31.498Z" style="stroke-width:.507614"/><path d="M43.174 276.676h12.025v12.026H43.174Z" style="stroke-width:.507614"/><path d="M54.849 276.676h12.025v12.026H54.85Z" style="stroke-width:.507614"/><path d="M66.524 276.676h12.025v12.026H66.524Zm58.375 0h12.026v12.026h-12.026zm46.701 0h12.025v12.026H171.6Zm151.777 0h12.025v12.026h-12.025zm46.7 0h12.026v12.026h-12.026zm23.35 0h12.026v12.026h-12.026zm35.026 0h12.025v12.026h-12.025ZM31.498 288.351h12.026v12.026H31.498Z" style="stroke-width:.507614"/><path d="M43.174 288.351h12.025v12.026H43.174Z" style="stroke-width:.507614"/><path d="M54.849 288.351h12.025v12.026H54.85Zm23.35 0h12.025v12.026H78.2z" style="stroke-width:.507614"/><path d="M89.874 288.351H101.9v12.026H89.874Z" style="stroke-width:.507614"/><path d="M101.55 288.351h12.025v12.026h-12.026z" style="stroke-width:.507614"/><path d="M113.224 288.351h12.026v12.026h-12.026zm23.35 0H148.6v12.026h-12.025z" style="stroke-width:.507614"/><path d="M148.25 288.351h12.025v12.026H148.25zm175.127 0h12.025v12.026h-12.025z" style="stroke-width:.507614"/><path d="M335.052 288.351h12.025v12.026h-12.025z" style="stroke-width:.507614"/><path d="M346.727 288.351h12.025v12.026h-12.025Zm35.025 0h12.026v12.026h-12.026zm46.7 0h12.026v12.026h-12.025zm23.351 0h12.025v12.026h-12.025ZM31.498 300.026h12.026v12.026H31.498Z" style="stroke-width:.507614"/><path d="M43.174 300.026h12.025v12.026H43.174Zm23.35 0h12.025v12.026H66.524Z" style="stroke-width:.507614"/><path d="M78.199 300.026h12.025v12.026H78.2z" style="stroke-width:.507614"/><path d="M89.874 300.026H101.9v12.026H89.874Zm35.025 0h12.026v12.026h-12.026zm46.701 0h12.025v12.026H171.6Zm151.777 0h12.025v12.026h-12.025zm70.05 0h12.026v12.026h-12.026zm46.7 0h12.026v12.026h-12.025ZM54.85 311.702h12.025v12.025H54.85Z" style="stroke-width:.507614"/><path d="M101.55 311.702h12.025v12.025h-12.026zm46.7 0h12.025v12.025H148.25z" style="stroke-width:.507614"/><path d="M159.925 311.702h12.025v12.025h-12.025z" style="stroke-width:.507614"/><path d="M171.6 311.702h12.025v12.025H171.6Zm46.7 0h12.026v12.025H218.3z" style="stroke-width:.507614"/><path d="M229.976 311.702H242v12.025h-12.025z" style="stroke-width:.507614"/><path d="M241.65 311.702h12.026v12.025h-12.025z" style="stroke-width:.507614"/><path d="M253.326 311.702h12.025v12.025h-12.025zm23.35 0h12.026v12.025h-12.026zm35.026 0h12.025v12.025h-12.025zm23.35 0h12.025v12.025h-12.025zm46.7 0h12.026v12.025h-12.026zm35.026 0h12.025v12.025h-12.025z" style="stroke-width:.507614"/><path d="M428.453 311.702h12.025v12.025h-12.025zm23.35 0h12.025v12.025h-12.025ZM31.498 323.377h12.026v12.025H31.498Z" style="stroke-width:.507614"/><path d="M43.174 323.377h12.025v12.025H43.174Z" style="stroke-width:.507614"/><path d="M54.849 323.377h12.025v12.025H54.85Zm35.025 0H101.9v12.025H89.874Zm23.35 0h12.026v12.025h-12.026zm46.7 0h12.026v12.025h-12.025z" style="stroke-width:.507614"/><path d="M171.6 323.377h12.025v12.025H171.6Z" style="stroke-width:.507614"/><path d="M183.275 323.377h12.026v12.025h-12.026z" style="stroke-width:.507614"/><path d="M194.95 323.377h12.026v12.025H194.95zm23.35 0h12.026v12.025H218.3z" style="stroke-width:.507614"/><path d="M229.976 323.377H242v12.025h-12.025zm35.025 0h12.025v12.025h-12.025z" style="stroke-width:.507614"/><path d="M276.676 323.377h12.026v12.025h-12.026zm70.05 0h12.026v12.025h-12.025Zm23.351 0h12.026v12.025h-12.026ZM31.498 335.052h12.026v12.025H31.498Zm23.35 0h12.026v12.025H54.85Z" style="stroke-width:.507614"/><path d="M66.524 335.052h12.025v12.025H66.524Z" style="stroke-width:.507614"/><path d="M78.199 335.052h12.025v12.025H78.2z" style="stroke-width:.507614"/><path d="M89.874 335.052H101.9v12.025H89.874Z" style="stroke-width:.507614"/><path d="M101.55 335.052h12.025v12.025h-12.026z" style="stroke-width:.507614"/><path d="M113.224 335.052h12.026v12.025h-12.026zm23.35 0H148.6v12.025h-12.025zm23.35 0h12.026v12.025h-12.025zm23.351 0h12.026v12.025h-12.026zm23.35 0h12.026v12.025h-12.026z" style="stroke-width:.507614"/><path d="M218.3 335.052h12.026v12.025H218.3zm23.35 0h12.026v12.025h-12.025z" style="stroke-width:.507614"/><path d="M253.326 335.052h12.025v12.025h-12.025zm23.35 0h12.026v12.025h-12.026zm23.35 0h12.026v12.025h-12.026Z" style="stroke-width:.507614"/><path d="M311.702 335.052h12.025v12.025h-12.025z" style="stroke-width:.507614"/><path d="M323.377 335.052h12.025v12.025h-12.025z" style="stroke-width:.507614"/><path d="M335.052 335.052h12.025v12.025h-12.025z" style="stroke-width:.507614"/><path d="M346.727 335.052h12.025v12.025h-12.025Zm35.025 0h12.026v12.025h-12.026z" style="stroke-width:.507614"/><path d="M393.427 335.052h12.026v12.025h-12.026zm35.026 0h12.025v12.025h-12.025z" style="stroke-width:.507614"/><path d="M440.128 335.052h12.025v12.025h-12.025z" style="stroke-width:.507614"/><path d="M451.803 335.052h12.025v12.025h-12.025ZM31.498 346.727h12.026v12.025H31.498Zm23.35 0h12.026v12.025H54.85Zm23.351 0h12.025v12.025H78.2z" style="stroke-width:.507614"/><path d="M89.874 346.727H101.9v12.025H89.874Zm46.7 0H148.6v12.025h-12.025z" style="stroke-width:.507614"/><path d="M148.25 346.727h12.025v12.025H148.25zm35.025 0h12.026v12.025h-12.026zm46.7 0h12.026v12.025h-12.025zm23.35 0h12.026v12.025h-12.025zm46.701 0h12.026v12.025h-12.026Zm35.026 0h12.025v12.025h-12.025z" style="stroke-width:.507614"/><path d="M346.727 346.727h12.025v12.025h-12.025Z" style="stroke-width:.507614"/><path d="M358.402 346.727h12.025v12.025h-12.025z" style="stroke-width:.507614"/><path d="M370.077 346.727h12.026v12.025h-12.026zm46.7 0h12.026v12.025h-12.025z" style="stroke-width:.507614"/><path d="M428.453 346.727h12.025v12.025h-12.025ZM31.498 358.402h12.026v12.025H31.498Zm35.026 0h12.025v12.025H66.524Zm35.025 0h12.026v12.025h-12.026zm70.051 0h12.025v12.025H171.6Zm35.025 0h12.026v12.025h-12.026zm23.35 0h12.026v12.025h-12.025zm23.35 0h12.026v12.025h-12.025z" style="stroke-width:.507614"/><path d="M265.001 358.402h12.025v12.025h-12.025zm23.35 0h12.026v12.025H288.35z" style="stroke-width:.507614"/><path d="M300.026 358.402h12.026v12.025h-12.026Zm23.35 0h12.026v12.025h-12.025z" style="stroke-width:.507614"/><path d="M335.052 358.402h12.025v12.025h-12.025zm23.35 0h12.025v12.025h-12.025z" style="stroke-width:.507614"/><path d="M370.077 358.402h12.026v12.025h-12.026z" style="stroke-width:.507614"/><path d="M381.752 358.402h12.026v12.025h-12.026z" style="stroke-width:.507614"/><path d="M393.427 358.402h12.026v12.025h-12.026z" style="stroke-width:.507614"/><path d="M405.103 358.402h12.025v12.025h-12.025zm35.025 0h12.025v12.025h-12.025zm-315.229 11.675h12.026v12.026h-12.026zm35.026 0h12.025v12.026h-12.025zm23.35 0h12.026v12.026h-12.026zm70.05 0h12.026v12.026h-12.025zm46.701 0h12.026v12.026h-12.026Zm23.35 0h12.026v12.026h-12.025z" style="stroke-width:.507614"/><path d="M335.052 370.077h12.025v12.026h-12.025z" style="stroke-width:.507614"/><path d="M346.727 370.077h12.025v12.026h-12.025Z" style="stroke-width:.507614"/><path d="M358.402 370.077h12.025v12.026h-12.025zm46.7 0h12.026v12.026h-12.025zm35.026 0h12.025v12.026h-12.025zm-303.553 11.675H148.6v12.026h-12.025zm23.35 0h12.025v12.026h-12.025z" style="stroke-width:.507614"/><path d="M171.6 381.752h12.025v12.026H171.6Zm35.025 0h12.026v12.026h-12.026zm35.026 0h12.025v12.026h-12.025z" style="stroke-width:.507614"/><path d="M253.326 381.752h12.025v12.026h-12.025zm35.025 0h12.026v12.026H288.35zm23.35 0h12.026v12.026h-12.025z" style="stroke-width:.507614"/><path d="M323.377 381.752h12.025v12.026h-12.025z" style="stroke-width:.507614"/><path d="M335.052 381.752h12.025v12.026h-12.025zm23.35 0h12.025v12.026h-12.025zm23.35 0h12.026v12.026h-12.026zm23.35 0h12.026v12.026h-12.025z" style="stroke-width:.507614"/><path d="M416.778 381.752h12.025v12.026h-12.025zm23.35 0h12.025v12.026h-12.025z" style="stroke-width:.507614"/><path d="M451.803 381.752h12.025v12.026h-12.025Zm-315.228 11.675H148.6v12.026h-12.025zm23.35 0h12.025v12.026h-12.025z" style="stroke-width:.507614"/><path d="M171.6 393.427h12.025v12.026H171.6Z" style="stroke-width:.507614"/><path d="M183.275 393.427h12.026v12.026h-12.026z" style="stroke-width:.507614"/><path d="M194.95 393.427h12.026v12.026H194.95zm46.7 0h12.026v12.026h-12.025zm23.351 0h12.025v12.026h-12.025z" style="stroke-width:.507614"/><path d="M276.676 393.427h12.026v12.026h-12.026zm81.726 0h12.025v12.026h-12.025zm46.7 0h12.026v12.026h-12.025zm35.026 0h12.025v12.026h-12.025zm-315.229 11.676h12.026v12.025h-12.026zm23.35 0h12.026v12.025H148.25zm23.351 0h12.025v12.025H171.6Zm23.35 0h12.026v12.025H194.95z" style="stroke-width:.507614"/><path d="M206.625 405.103h12.026v12.025h-12.026zm46.7 0h12.026v12.025h-12.025z" style="stroke-width:.507614"/><path d="M265.001 405.103h12.025v12.025h-12.025z" style="stroke-width:.507614"/><path d="M276.676 405.103h12.026v12.025h-12.026z" style="stroke-width:.507614"/><path d="M288.351 405.103h12.026v12.025H288.35zm35.026 0h12.025v12.025h-12.025zm23.35 0h12.025v12.025h-12.025Z" style="stroke-width:.507614"/><path d="M358.402 405.103h12.025v12.025h-12.025z" style="stroke-width:.507614"/><path d="M370.077 405.103h12.026v12.025h-12.026z" style="stroke-width:.507614"/><path d="M381.752 405.103h12.026v12.025h-12.026z" style="stroke-width:.507614"/><path d="M393.427 405.103h12.026v12.025h-12.026z" style="stroke-width:.507614"/><path d="M405.103 405.103h12.025v12.025h-12.025zm23.35 0h12.025v12.025h-12.025z" style="stroke-width:.507614"/><path d="M440.128 405.103h12.025v12.025h-12.025z" style="stroke-width:.507614"/><path d="M451.803 405.103h12.025v12.025h-12.025zm-326.904 11.675h12.026v12.025h-12.026z" style="stroke-width:.507614"/><path d="M136.575 416.778H148.6v12.025h-12.025zm23.35 0h12.025v12.025h-12.025zm23.35 0h12.026v12.025h-12.026zm35.026 0h12.025v12.025H218.3zm46.7 0h12.025v12.025h-12.025zm46.7 0h12.026v12.025h-12.025zm35.026 0h12.025v12.025h-12.025Z" style="stroke-width:.507614"/><path d="M358.402 416.778h12.025v12.025h-12.025zm23.35 0h12.026v12.025h-12.026zm23.35 0h12.026v12.025h-12.025z" style="stroke-width:.507614"/><path d="M416.778 416.778h12.025v12.025h-12.025zm-291.879 11.675h12.026v12.025h-12.026z" style="stroke-width:.507614"/><path d="M136.575 428.453H148.6v12.025h-12.025z" style="stroke-width:.507614"/><path d="M148.25 428.453h12.025v12.025H148.25z" style="stroke-width:.507614"/><path d="M159.925 428.453h12.025v12.025h-12.025zm35.025 0h12.026v12.025H194.95zm35.026 0H242v12.025h-12.025zm35.025 0h12.025v12.025h-12.025zm23.35 0h12.026v12.025H288.35zm35.026 0h12.025v12.025h-12.025zm23.35 0h12.025v12.025h-12.025Zm23.35 0h12.026v12.025h-12.026zm58.376 0h12.025v12.025h-12.025zm23.35 0h12.025v12.025h-12.025z" style="stroke-width:.507614"/><path d="M159.925 440.128h12.025v12.025h-12.025zm35.025 0h12.026v12.025H194.95zm23.35 0h12.026v12.025H218.3z" style="stroke-width:.507614"/><path d="M229.976 440.128H242v12.025h-12.025z" style="stroke-width:.507614"/><path d="M241.65 440.128h12.026v12.025h-12.025zm23.351 0h12.025v12.025h-12.025z" style="stroke-width:.507614"/><path d="M276.676 440.128h12.026v12.025h-12.026zm35.026 0h12.025v12.025h-12.025zm23.35 0h12.025v12.025h-12.025z" style="stroke-width:.507614"/><path d="M346.727 440.128h12.025v12.025h-12.025Z" style="stroke-width:.507614"/><path d="M358.402 440.128h12.025v12.025h-12.025zm23.35 0h12.026v12.025h-12.026z" style="stroke-width:.507614"/><path d="M393.427 440.128h12.026v12.025h-12.026zm58.376 0h12.025v12.025h-12.025Zm-315.228 11.675H148.6v12.025h-12.025zm81.726 0h12.025v12.025H218.3zm46.7 0h12.025v12.025h-12.025zm58.376 0h12.025v12.025h-12.025z" style="stroke-width:.507614"/><path d="M335.052 451.803h12.025v12.025h-12.025zm58.375 0h12.026v12.025h-12.026z" style="stroke-width:.507614"/><path d="M405.103 451.803h12.025v12.025h-12.025zm23.35 0h12.025v12.025h-12.025z" style="stroke-width:.507614"/><path d="M440.128 451.803h12.025v12.025h-12.025z" style="stroke-width:.507614"/><path d="M451.803 451.803h12.025v12.025h-12.025ZM31.498 31.498v81.726h81.726V31.498Zm70.051 70.051H43.174V43.174h58.375ZM381.752 31.5v81.725h81.726V31.498Zm70.051 70.05h-58.376V43.174h58.376zM31.498 381.752v81.726h81.726v-81.726zm70.051 70.051H43.174v-58.376h58.375z" style="stroke-width:.507614"/><path d="M54.849 54.849h35.025v35.025H54.85Zm350.254 0h35.025v35.025h-35.025ZM54.849 405.103h35.025v35.025H54.85Z" style="stroke-width:.507614"/><path d="M276.944 204.07s1.818 7.67-3.973 8.737c-4.032.712-10.534-3.282-13.809-7.268-4.032-4.916-3.522-8.782-.385-12.215 4.712-5.213 12.78-3.199 12.78-3.199s-14.781-12.968-30.175-2.34c-13.712 9.437-9.777 22.304 2.597 33.53 11.151 10.147 2.244 21.273-8.99 19.828-7.7-.982-10.852-7.162-9.002-10.955 1.593-3.244 7.121-5.24 7.121-5.24s-6.35-2.58-13.823.234c-6.714 2.53-12.249 8.08-11.807 21.979V311.6s6.94-8.556 15.097-17.258c9.135-9.815 13.304-16.448 22.685-15.673 17.75 1.099 30.586-6.787 39.312-19.44 16.752-24.334 3.63-51.522-7.628-55.158" style="fill:#e0311d;fill-opacity:1;stroke-width:3.54555"/></svg>