G04 EAGLE Gerber RS-274X export*
G75*
%MOMM*%
%FSLAX34Y34*%
%LPD*%
%INBottom Copper*%
%IPPOS*%
%AMOC8*
5,1,8,0,0,1.08239X$1,22.5*%
G01*
%ADD10C,0.279400*%
%ADD11C,0.635000*%
%ADD12C,0.099059*%
%ADD13C,1.879600*%
%ADD14R,2.032000X2.032000*%
%ADD15C,2.032000*%
%ADD16C,2.000000*%
%ADD17C,2.300000*%
%ADD18C,0.736600*%
%ADD19C,0.705600*%
%ADD20C,0.203200*%
%ADD21C,0.254000*%

G36*
X160478Y4073D02*
X160478Y4073D01*
X160536Y4071D01*
X160618Y4093D01*
X160701Y4105D01*
X160755Y4128D01*
X160811Y4143D01*
X160884Y4186D01*
X160961Y4221D01*
X161005Y4259D01*
X161056Y4288D01*
X161113Y4350D01*
X161178Y4404D01*
X161210Y4453D01*
X161250Y4496D01*
X161288Y4571D01*
X161335Y4641D01*
X161353Y4697D01*
X161379Y4749D01*
X161391Y4817D01*
X161421Y4912D01*
X161424Y5012D01*
X161435Y5080D01*
X161435Y8319D01*
X164039Y10923D01*
X164583Y10923D01*
X164640Y10931D01*
X164699Y10929D01*
X164780Y10951D01*
X164864Y10963D01*
X164917Y10986D01*
X164974Y11001D01*
X165046Y11044D01*
X165123Y11079D01*
X165168Y11117D01*
X165218Y11146D01*
X165276Y11208D01*
X165340Y11262D01*
X165373Y11311D01*
X165413Y11354D01*
X165451Y11429D01*
X165498Y11499D01*
X165516Y11555D01*
X165542Y11607D01*
X165554Y11675D01*
X165584Y11770D01*
X165586Y11870D01*
X165598Y11938D01*
X165598Y21161D01*
X165589Y21224D01*
X165592Y21273D01*
X165421Y22810D01*
X165462Y22890D01*
X165479Y22916D01*
X165481Y22923D01*
X165520Y22989D01*
X165528Y23020D01*
X165542Y23048D01*
X165555Y23125D01*
X165591Y23264D01*
X165590Y23297D01*
X166686Y24393D01*
X166724Y24444D01*
X166761Y24476D01*
X167727Y25684D01*
X167816Y25713D01*
X167924Y25741D01*
X167951Y25757D01*
X167981Y25766D01*
X168045Y25812D01*
X168169Y25885D01*
X168192Y25909D01*
X169741Y25909D01*
X169804Y25918D01*
X169853Y25915D01*
X171390Y26086D01*
X171474Y26043D01*
X171570Y25986D01*
X171600Y25979D01*
X171628Y25964D01*
X171705Y25951D01*
X171845Y25915D01*
X171878Y25916D01*
X172973Y24820D01*
X173024Y24782D01*
X173057Y24746D01*
X177300Y21351D01*
X177378Y21305D01*
X177451Y21251D01*
X177500Y21233D01*
X177545Y21206D01*
X177633Y21183D01*
X177718Y21152D01*
X177770Y21148D01*
X177820Y21135D01*
X177911Y21137D01*
X178001Y21130D01*
X178052Y21141D01*
X178104Y21143D01*
X178191Y21170D01*
X178279Y21189D01*
X178326Y21213D01*
X178375Y21229D01*
X178451Y21279D01*
X178531Y21322D01*
X178568Y21358D01*
X178612Y21387D01*
X178670Y21456D01*
X178735Y21519D01*
X178757Y21559D01*
X178795Y21604D01*
X178858Y21746D01*
X178895Y21814D01*
X179338Y23105D01*
X183263Y25909D01*
X188087Y25909D01*
X192012Y23105D01*
X192685Y21142D01*
X192717Y21078D01*
X192733Y21027D01*
X192804Y20880D01*
X192879Y20769D01*
X192952Y20658D01*
X192958Y20652D01*
X192963Y20645D01*
X193066Y20559D01*
X193167Y20472D01*
X193174Y20468D01*
X193181Y20463D01*
X193303Y20409D01*
X193425Y20353D01*
X193433Y20352D01*
X193441Y20348D01*
X193573Y20330D01*
X193706Y20310D01*
X193714Y20311D01*
X193723Y20310D01*
X194004Y20352D01*
X194022Y20360D01*
X194037Y20362D01*
X196754Y21268D01*
X199289Y20000D01*
X199305Y19995D01*
X199319Y19985D01*
X199440Y19950D01*
X199558Y19910D01*
X199575Y19909D01*
X199592Y19904D01*
X199718Y19903D01*
X199842Y19898D01*
X199859Y19902D01*
X199876Y19902D01*
X199944Y19922D01*
X200119Y19965D01*
X200160Y19989D01*
X200197Y20000D01*
X202732Y21268D01*
X204984Y20517D01*
X205009Y20512D01*
X205032Y20502D01*
X205148Y20487D01*
X205263Y20466D01*
X205288Y20468D01*
X205313Y20465D01*
X205429Y20482D01*
X205546Y20494D01*
X205570Y20503D01*
X205595Y20507D01*
X205701Y20556D01*
X205810Y20600D01*
X205830Y20615D01*
X205853Y20626D01*
X205942Y20702D01*
X206035Y20774D01*
X206049Y20795D01*
X206068Y20811D01*
X206133Y20909D01*
X206202Y21004D01*
X206210Y21028D01*
X206224Y21049D01*
X206258Y21161D01*
X206298Y21272D01*
X206300Y21297D01*
X206307Y21321D01*
X206307Y21398D01*
X206317Y21555D01*
X206305Y21612D01*
X206305Y21656D01*
X205645Y25400D01*
X207029Y33251D01*
X211015Y40155D01*
X217122Y45280D01*
X224614Y48007D01*
X232586Y48007D01*
X240078Y45280D01*
X246185Y40156D01*
X248041Y36941D01*
X248053Y36926D01*
X248061Y36908D01*
X248140Y36814D01*
X248216Y36717D01*
X248232Y36706D01*
X248245Y36691D01*
X248347Y36623D01*
X248446Y36551D01*
X248465Y36544D01*
X248481Y36533D01*
X248598Y36496D01*
X248714Y36454D01*
X248734Y36453D01*
X248752Y36447D01*
X248875Y36444D01*
X248998Y36436D01*
X249017Y36441D01*
X249036Y36440D01*
X249155Y36471D01*
X249275Y36498D01*
X249293Y36507D01*
X249311Y36512D01*
X249417Y36574D01*
X249525Y36633D01*
X249539Y36647D01*
X249556Y36657D01*
X249640Y36747D01*
X249727Y36833D01*
X249737Y36850D01*
X249750Y36864D01*
X249806Y36974D01*
X249866Y37081D01*
X249871Y37100D01*
X249880Y37118D01*
X249892Y37190D01*
X249931Y37358D01*
X249929Y37409D01*
X249935Y37449D01*
X249935Y64785D01*
X249919Y64899D01*
X249909Y65013D01*
X249899Y65039D01*
X249895Y65067D01*
X249848Y65172D01*
X249807Y65279D01*
X249791Y65301D01*
X249779Y65326D01*
X249705Y65414D01*
X249636Y65505D01*
X249613Y65522D01*
X249596Y65543D01*
X249500Y65607D01*
X249408Y65675D01*
X249382Y65685D01*
X249359Y65701D01*
X249249Y65735D01*
X249142Y65776D01*
X249114Y65778D01*
X249088Y65786D01*
X248973Y65789D01*
X248859Y65799D01*
X248834Y65793D01*
X248804Y65794D01*
X248547Y65727D01*
X248531Y65723D01*
X243776Y63753D01*
X238824Y63753D01*
X234249Y65648D01*
X230748Y69149D01*
X228853Y73724D01*
X228853Y78676D01*
X230748Y83251D01*
X234249Y86752D01*
X237911Y88269D01*
X237971Y88304D01*
X238035Y88330D01*
X238093Y88376D01*
X238156Y88413D01*
X238204Y88463D01*
X238258Y88506D01*
X238301Y88566D01*
X238351Y88620D01*
X238383Y88681D01*
X238423Y88738D01*
X238448Y88807D01*
X238482Y88873D01*
X238495Y88940D01*
X238518Y89006D01*
X238522Y89079D01*
X238537Y89152D01*
X238531Y89220D01*
X238535Y89289D01*
X238519Y89361D01*
X238512Y89435D01*
X238487Y89499D01*
X238472Y89567D01*
X238437Y89631D01*
X238410Y89700D01*
X238368Y89755D01*
X238335Y89816D01*
X238283Y89868D01*
X238239Y89927D01*
X238183Y89968D01*
X238134Y90017D01*
X238079Y90046D01*
X238011Y90097D01*
X237903Y90138D01*
X237837Y90172D01*
X236717Y90536D01*
X235043Y91389D01*
X233522Y92494D01*
X232194Y93822D01*
X231089Y95343D01*
X230236Y97017D01*
X229655Y98804D01*
X229534Y99569D01*
X240284Y99569D01*
X240342Y99577D01*
X240400Y99575D01*
X240482Y99597D01*
X240565Y99609D01*
X240619Y99633D01*
X240675Y99647D01*
X240748Y99690D01*
X240825Y99725D01*
X240869Y99763D01*
X240920Y99793D01*
X240977Y99854D01*
X241042Y99909D01*
X241074Y99957D01*
X241114Y100000D01*
X241153Y100075D01*
X241199Y100145D01*
X241217Y100201D01*
X241244Y100253D01*
X241255Y100321D01*
X241285Y100416D01*
X241288Y100516D01*
X241299Y100584D01*
X241299Y101601D01*
X242316Y101601D01*
X242374Y101609D01*
X242432Y101608D01*
X242514Y101629D01*
X242597Y101641D01*
X242651Y101665D01*
X242707Y101679D01*
X242780Y101722D01*
X242857Y101757D01*
X242902Y101795D01*
X242952Y101825D01*
X243010Y101886D01*
X243074Y101941D01*
X243106Y101989D01*
X243146Y102032D01*
X243185Y102107D01*
X243231Y102177D01*
X243249Y102233D01*
X243276Y102285D01*
X243287Y102353D01*
X243317Y102448D01*
X243320Y102548D01*
X243331Y102616D01*
X243331Y125984D01*
X243323Y126042D01*
X243325Y126100D01*
X243303Y126182D01*
X243291Y126265D01*
X243267Y126319D01*
X243253Y126375D01*
X243210Y126448D01*
X243175Y126525D01*
X243137Y126569D01*
X243107Y126620D01*
X243046Y126677D01*
X242991Y126742D01*
X242943Y126774D01*
X242900Y126814D01*
X242825Y126853D01*
X242755Y126899D01*
X242699Y126917D01*
X242647Y126944D01*
X242579Y126955D01*
X242484Y126985D01*
X242384Y126988D01*
X242316Y126999D01*
X241299Y126999D01*
X241299Y128016D01*
X241291Y128074D01*
X241292Y128132D01*
X241271Y128214D01*
X241259Y128297D01*
X241235Y128351D01*
X241221Y128407D01*
X241178Y128480D01*
X241143Y128557D01*
X241105Y128602D01*
X241075Y128652D01*
X241014Y128710D01*
X240959Y128774D01*
X240911Y128806D01*
X240868Y128846D01*
X240793Y128885D01*
X240723Y128931D01*
X240667Y128949D01*
X240615Y128976D01*
X240547Y128987D01*
X240452Y129017D01*
X240352Y129020D01*
X240284Y129031D01*
X229534Y129031D01*
X229655Y129796D01*
X230236Y131583D01*
X231089Y133257D01*
X232194Y134778D01*
X233522Y136106D01*
X235043Y137211D01*
X236717Y138064D01*
X237837Y138428D01*
X237899Y138458D01*
X237965Y138479D01*
X238026Y138520D01*
X238092Y138553D01*
X238143Y138599D01*
X238201Y138638D01*
X238248Y138694D01*
X238303Y138743D01*
X238339Y138802D01*
X238384Y138855D01*
X238414Y138922D01*
X238453Y138985D01*
X238471Y139052D01*
X238499Y139115D01*
X238509Y139188D01*
X238529Y139259D01*
X238529Y139328D01*
X238538Y139397D01*
X238528Y139469D01*
X238527Y139543D01*
X238507Y139610D01*
X238498Y139678D01*
X238467Y139745D01*
X238446Y139816D01*
X238409Y139874D01*
X238380Y139937D01*
X238333Y139993D01*
X238293Y140055D01*
X238241Y140101D01*
X238196Y140153D01*
X238143Y140186D01*
X238079Y140243D01*
X237975Y140292D01*
X237911Y140331D01*
X234249Y141848D01*
X230748Y145349D01*
X228853Y149924D01*
X228853Y154876D01*
X230748Y159451D01*
X234249Y162952D01*
X237171Y164162D01*
X237196Y164177D01*
X237224Y164186D01*
X237319Y164249D01*
X237416Y164307D01*
X237436Y164328D01*
X237461Y164344D01*
X237534Y164431D01*
X237611Y164513D01*
X237625Y164539D01*
X237644Y164562D01*
X237690Y164665D01*
X237741Y164766D01*
X237747Y164795D01*
X237759Y164822D01*
X237775Y164934D01*
X237796Y165045D01*
X237794Y165074D01*
X237798Y165103D01*
X237782Y165215D01*
X237772Y165328D01*
X237761Y165355D01*
X237757Y165385D01*
X237711Y165488D01*
X237670Y165593D01*
X237652Y165617D01*
X237640Y165644D01*
X237567Y165730D01*
X237498Y165820D01*
X237475Y165838D01*
X237456Y165860D01*
X237389Y165902D01*
X237271Y165990D01*
X237212Y166012D01*
X237171Y166038D01*
X234249Y167248D01*
X230748Y170749D01*
X228853Y175324D01*
X228853Y180276D01*
X230748Y184851D01*
X234249Y188352D01*
X238824Y190247D01*
X243776Y190247D01*
X248531Y188277D01*
X248643Y188248D01*
X248752Y188214D01*
X248780Y188213D01*
X248807Y188206D01*
X248921Y188209D01*
X249036Y188206D01*
X249063Y188213D01*
X249091Y188214D01*
X249200Y188249D01*
X249311Y188278D01*
X249335Y188292D01*
X249362Y188301D01*
X249457Y188365D01*
X249556Y188423D01*
X249575Y188444D01*
X249598Y188459D01*
X249672Y188547D01*
X249750Y188631D01*
X249763Y188655D01*
X249781Y188677D01*
X249827Y188781D01*
X249880Y188884D01*
X249884Y188908D01*
X249896Y188936D01*
X249933Y189200D01*
X249935Y189215D01*
X249935Y216551D01*
X249933Y216571D01*
X249935Y216590D01*
X249913Y216711D01*
X249895Y216833D01*
X249887Y216851D01*
X249884Y216870D01*
X249829Y216980D01*
X249779Y217092D01*
X249767Y217107D01*
X249758Y217125D01*
X249675Y217216D01*
X249596Y217309D01*
X249579Y217320D01*
X249566Y217335D01*
X249461Y217399D01*
X249359Y217467D01*
X249340Y217473D01*
X249324Y217483D01*
X249205Y217516D01*
X249088Y217553D01*
X249068Y217553D01*
X249049Y217558D01*
X248927Y217557D01*
X248804Y217560D01*
X248785Y217555D01*
X248765Y217555D01*
X248647Y217519D01*
X248529Y217488D01*
X248512Y217478D01*
X248493Y217472D01*
X248390Y217406D01*
X248284Y217343D01*
X248271Y217329D01*
X248254Y217318D01*
X248208Y217261D01*
X248090Y217136D01*
X248066Y217090D01*
X248041Y217059D01*
X246185Y213844D01*
X240078Y208720D01*
X232586Y205993D01*
X224614Y205993D01*
X217122Y208720D01*
X211015Y213844D01*
X207029Y220749D01*
X205645Y228600D01*
X207029Y236451D01*
X211015Y243355D01*
X216720Y248142D01*
X216769Y248197D01*
X216825Y248245D01*
X216864Y248302D01*
X216910Y248354D01*
X216942Y248420D01*
X216983Y248481D01*
X217004Y248547D01*
X217034Y248610D01*
X217046Y248682D01*
X217068Y248752D01*
X217070Y248821D01*
X217082Y248890D01*
X217074Y248963D01*
X217076Y249036D01*
X217058Y249103D01*
X217051Y249172D01*
X217023Y249240D01*
X217004Y249311D01*
X216969Y249371D01*
X216942Y249435D01*
X216896Y249493D01*
X216859Y249556D01*
X216808Y249603D01*
X216765Y249657D01*
X216705Y249700D01*
X216651Y249750D01*
X216590Y249782D01*
X216533Y249822D01*
X216464Y249846D01*
X216398Y249880D01*
X216340Y249890D01*
X216265Y249916D01*
X216143Y249923D01*
X216067Y249935D01*
X153631Y249935D01*
X153602Y249931D01*
X153572Y249934D01*
X153461Y249911D01*
X153350Y249895D01*
X153323Y249883D01*
X153294Y249878D01*
X153193Y249826D01*
X153090Y249779D01*
X153068Y249760D01*
X153041Y249747D01*
X152960Y249669D01*
X152873Y249596D01*
X152857Y249571D01*
X152835Y249551D01*
X152778Y249453D01*
X152716Y249359D01*
X152707Y249331D01*
X152692Y249305D01*
X152664Y249196D01*
X152630Y249088D01*
X152629Y249058D01*
X152622Y249030D01*
X152625Y248917D01*
X152622Y248804D01*
X152630Y248775D01*
X152631Y248746D01*
X152666Y248638D01*
X152694Y248529D01*
X152709Y248503D01*
X152718Y248475D01*
X152764Y248411D01*
X152840Y248284D01*
X152885Y248241D01*
X152913Y248202D01*
X152916Y248200D01*
X154076Y246603D01*
X154972Y244844D01*
X155582Y242967D01*
X155725Y242061D01*
X134366Y242061D01*
X134308Y242053D01*
X134250Y242055D01*
X134168Y242033D01*
X134085Y242021D01*
X134031Y241997D01*
X133975Y241983D01*
X133902Y241940D01*
X133825Y241905D01*
X133781Y241867D01*
X133730Y241837D01*
X133673Y241776D01*
X133608Y241721D01*
X133576Y241673D01*
X133536Y241630D01*
X133497Y241555D01*
X133451Y241485D01*
X133433Y241429D01*
X133406Y241377D01*
X133395Y241309D01*
X133365Y241214D01*
X133362Y241114D01*
X133351Y241046D01*
X133351Y240029D01*
X133349Y240029D01*
X133349Y241046D01*
X133341Y241104D01*
X133342Y241162D01*
X133321Y241244D01*
X133309Y241327D01*
X133285Y241381D01*
X133271Y241437D01*
X133228Y241510D01*
X133193Y241587D01*
X133155Y241632D01*
X133125Y241682D01*
X133064Y241740D01*
X133009Y241804D01*
X132961Y241836D01*
X132918Y241876D01*
X132843Y241915D01*
X132773Y241961D01*
X132717Y241979D01*
X132665Y242006D01*
X132597Y242017D01*
X132502Y242047D01*
X132402Y242050D01*
X132334Y242061D01*
X110975Y242061D01*
X111118Y242967D01*
X111728Y244844D01*
X112624Y246603D01*
X113784Y248200D01*
X113787Y248202D01*
X113804Y248225D01*
X113827Y248245D01*
X113890Y248339D01*
X113958Y248429D01*
X113968Y248457D01*
X113984Y248481D01*
X114019Y248589D01*
X114059Y248695D01*
X114061Y248724D01*
X114070Y248752D01*
X114073Y248865D01*
X114083Y248978D01*
X114077Y249007D01*
X114078Y249036D01*
X114049Y249146D01*
X114027Y249257D01*
X114013Y249283D01*
X114006Y249311D01*
X113948Y249409D01*
X113896Y249509D01*
X113876Y249530D01*
X113860Y249556D01*
X113778Y249633D01*
X113700Y249715D01*
X113675Y249730D01*
X113653Y249750D01*
X113552Y249802D01*
X113455Y249859D01*
X113426Y249866D01*
X113400Y249880D01*
X113323Y249893D01*
X113179Y249929D01*
X113117Y249927D01*
X113069Y249935D01*
X37933Y249935D01*
X37860Y249925D01*
X37786Y249925D01*
X37720Y249905D01*
X37651Y249895D01*
X37584Y249865D01*
X37514Y249845D01*
X37455Y249808D01*
X37392Y249779D01*
X37336Y249732D01*
X37274Y249692D01*
X37228Y249640D01*
X37175Y249596D01*
X37134Y249534D01*
X37085Y249479D01*
X37056Y249417D01*
X37017Y249359D01*
X36995Y249289D01*
X36964Y249222D01*
X36952Y249154D01*
X36932Y249088D01*
X36930Y249014D01*
X36918Y248942D01*
X36926Y248873D01*
X36924Y248804D01*
X36943Y248733D01*
X36952Y248659D01*
X36979Y248596D01*
X36996Y248529D01*
X37034Y248465D01*
X37062Y248398D01*
X37101Y248353D01*
X37141Y248284D01*
X37231Y248200D01*
X37280Y248142D01*
X42985Y243356D01*
X46971Y236451D01*
X48355Y228600D01*
X46971Y220749D01*
X42985Y213845D01*
X37280Y209058D01*
X37231Y209003D01*
X37175Y208955D01*
X37136Y208898D01*
X37090Y208846D01*
X37058Y208780D01*
X37017Y208719D01*
X36996Y208653D01*
X36966Y208590D01*
X36954Y208518D01*
X36932Y208448D01*
X36930Y208379D01*
X36918Y208310D01*
X36926Y208237D01*
X36924Y208164D01*
X36942Y208097D01*
X36949Y208028D01*
X36977Y207960D01*
X36996Y207889D01*
X37031Y207829D01*
X37058Y207765D01*
X37104Y207707D01*
X37141Y207644D01*
X37192Y207597D01*
X37235Y207543D01*
X37295Y207500D01*
X37349Y207450D01*
X37410Y207418D01*
X37467Y207378D01*
X37536Y207354D01*
X37602Y207320D01*
X37660Y207310D01*
X37735Y207284D01*
X37857Y207277D01*
X37933Y207265D01*
X41076Y207265D01*
X41162Y207277D01*
X41250Y207280D01*
X41302Y207297D01*
X41357Y207305D01*
X41437Y207340D01*
X41520Y207367D01*
X41560Y207395D01*
X41617Y207421D01*
X41730Y207517D01*
X41794Y207562D01*
X46703Y212472D01*
X50931Y212472D01*
X51017Y212484D01*
X51105Y212487D01*
X51157Y212504D01*
X51212Y212512D01*
X51292Y212547D01*
X51375Y212574D01*
X51415Y212602D01*
X51472Y212628D01*
X51585Y212724D01*
X51649Y212769D01*
X53637Y214758D01*
X68283Y214758D01*
X70359Y212682D01*
X70359Y204132D01*
X70144Y203918D01*
X70109Y203871D01*
X70067Y203831D01*
X70024Y203758D01*
X69973Y203691D01*
X69953Y203636D01*
X69923Y203586D01*
X69902Y203504D01*
X69872Y203425D01*
X69867Y203367D01*
X69853Y203310D01*
X69856Y203226D01*
X69849Y203142D01*
X69860Y203084D01*
X69862Y203026D01*
X69888Y202946D01*
X69905Y202863D01*
X69931Y202811D01*
X69949Y202755D01*
X69989Y202699D01*
X70035Y202611D01*
X70104Y202538D01*
X70144Y202482D01*
X70359Y202268D01*
X70359Y193718D01*
X68283Y191642D01*
X53637Y191642D01*
X51903Y193377D01*
X51833Y193429D01*
X51769Y193489D01*
X51720Y193515D01*
X51675Y193548D01*
X51594Y193579D01*
X51516Y193619D01*
X51468Y193627D01*
X51410Y193649D01*
X51262Y193661D01*
X51185Y193674D01*
X22402Y193674D01*
X22316Y193662D01*
X22228Y193659D01*
X22176Y193642D01*
X22121Y193634D01*
X22041Y193599D01*
X21958Y193572D01*
X21919Y193544D01*
X21862Y193518D01*
X21748Y193422D01*
X21685Y193377D01*
X18586Y190278D01*
X18534Y190209D01*
X18474Y190145D01*
X18448Y190095D01*
X18415Y190051D01*
X18384Y189970D01*
X18344Y189892D01*
X18336Y189844D01*
X18314Y189786D01*
X18302Y189638D01*
X18289Y189561D01*
X18289Y97869D01*
X18301Y97783D01*
X18304Y97695D01*
X18321Y97643D01*
X18329Y97588D01*
X18364Y97508D01*
X18391Y97425D01*
X18419Y97386D01*
X18445Y97329D01*
X18541Y97215D01*
X18586Y97152D01*
X30560Y85178D01*
X30561Y85177D01*
X30562Y85176D01*
X30675Y85091D01*
X30787Y85007D01*
X30788Y85007D01*
X30789Y85006D01*
X30921Y84956D01*
X31052Y84906D01*
X31054Y84906D01*
X31055Y84905D01*
X31200Y84894D01*
X31336Y84882D01*
X31337Y84883D01*
X31339Y84883D01*
X31354Y84886D01*
X31614Y84938D01*
X31642Y84952D01*
X31666Y84958D01*
X34203Y86009D01*
X39457Y86009D01*
X44312Y83998D01*
X48028Y80282D01*
X50039Y75427D01*
X50039Y70173D01*
X48028Y65318D01*
X44312Y61602D01*
X43138Y61116D01*
X43039Y61057D01*
X42937Y61004D01*
X42917Y60985D01*
X42893Y60971D01*
X42814Y60888D01*
X42731Y60809D01*
X42717Y60785D01*
X42698Y60765D01*
X42645Y60662D01*
X42587Y60563D01*
X42580Y60537D01*
X42568Y60512D01*
X42545Y60399D01*
X42517Y60288D01*
X42518Y60260D01*
X42513Y60233D01*
X42522Y60119D01*
X42526Y60004D01*
X42535Y59977D01*
X42537Y59950D01*
X42578Y59843D01*
X42614Y59733D01*
X42628Y59713D01*
X42639Y59684D01*
X42799Y59473D01*
X42808Y59460D01*
X45002Y57266D01*
X46979Y55289D01*
X47049Y55237D01*
X47113Y55177D01*
X47162Y55151D01*
X47207Y55118D01*
X47288Y55087D01*
X47366Y55047D01*
X47414Y55039D01*
X47472Y55017D01*
X47620Y55005D01*
X47697Y54992D01*
X49599Y54992D01*
X52073Y53967D01*
X53967Y52073D01*
X54992Y49599D01*
X54992Y46921D01*
X53967Y44447D01*
X52073Y42553D01*
X49599Y41528D01*
X46921Y41528D01*
X44447Y42553D01*
X42553Y44447D01*
X41528Y46921D01*
X41528Y48823D01*
X41516Y48909D01*
X41513Y48997D01*
X41496Y49049D01*
X41488Y49104D01*
X41453Y49184D01*
X41426Y49267D01*
X41398Y49307D01*
X41372Y49364D01*
X41276Y49477D01*
X41231Y49541D01*
X39254Y51518D01*
X39184Y51570D01*
X39120Y51630D01*
X39071Y51656D01*
X39026Y51689D01*
X38945Y51720D01*
X38867Y51760D01*
X38819Y51768D01*
X38761Y51790D01*
X38613Y51802D01*
X38536Y51815D01*
X23716Y51815D01*
X21038Y54494D01*
X5798Y69734D01*
X5774Y69751D01*
X5755Y69774D01*
X5661Y69837D01*
X5571Y69905D01*
X5543Y69915D01*
X5519Y69931D01*
X5411Y69966D01*
X5305Y70006D01*
X5276Y70008D01*
X5248Y70017D01*
X5134Y70020D01*
X5022Y70029D01*
X4993Y70024D01*
X4964Y70024D01*
X4854Y69996D01*
X4743Y69974D01*
X4717Y69960D01*
X4689Y69953D01*
X4591Y69895D01*
X4491Y69843D01*
X4469Y69822D01*
X4444Y69807D01*
X4367Y69725D01*
X4285Y69647D01*
X4270Y69621D01*
X4250Y69600D01*
X4198Y69499D01*
X4141Y69401D01*
X4134Y69373D01*
X4120Y69347D01*
X4107Y69270D01*
X4071Y69126D01*
X4073Y69063D01*
X4065Y69016D01*
X4065Y37449D01*
X4067Y37429D01*
X4065Y37410D01*
X4087Y37289D01*
X4105Y37167D01*
X4113Y37149D01*
X4116Y37130D01*
X4171Y37020D01*
X4221Y36908D01*
X4233Y36893D01*
X4242Y36875D01*
X4325Y36784D01*
X4404Y36691D01*
X4421Y36680D01*
X4434Y36665D01*
X4539Y36601D01*
X4641Y36533D01*
X4660Y36527D01*
X4676Y36517D01*
X4795Y36484D01*
X4912Y36447D01*
X4932Y36447D01*
X4951Y36442D01*
X5073Y36443D01*
X5196Y36440D01*
X5215Y36445D01*
X5235Y36445D01*
X5353Y36481D01*
X5471Y36512D01*
X5488Y36522D01*
X5507Y36528D01*
X5610Y36594D01*
X5716Y36657D01*
X5729Y36671D01*
X5746Y36682D01*
X5792Y36739D01*
X5910Y36864D01*
X5934Y36910D01*
X5959Y36941D01*
X7815Y40156D01*
X13922Y45280D01*
X21414Y48007D01*
X29386Y48007D01*
X36878Y45280D01*
X42985Y40156D01*
X46971Y33251D01*
X48355Y25400D01*
X46971Y17549D01*
X42985Y10645D01*
X37280Y5858D01*
X37231Y5803D01*
X37175Y5755D01*
X37136Y5698D01*
X37090Y5646D01*
X37058Y5580D01*
X37017Y5519D01*
X36996Y5453D01*
X36966Y5390D01*
X36954Y5318D01*
X36932Y5248D01*
X36930Y5179D01*
X36918Y5110D01*
X36926Y5037D01*
X36924Y4964D01*
X36942Y4897D01*
X36949Y4828D01*
X36977Y4760D01*
X36996Y4689D01*
X37031Y4629D01*
X37058Y4565D01*
X37104Y4507D01*
X37141Y4444D01*
X37192Y4397D01*
X37235Y4343D01*
X37295Y4300D01*
X37349Y4250D01*
X37410Y4218D01*
X37467Y4178D01*
X37536Y4154D01*
X37602Y4120D01*
X37660Y4110D01*
X37735Y4084D01*
X37857Y4077D01*
X37933Y4065D01*
X160420Y4065D01*
X160478Y4073D01*
G37*
%LPC*%
G36*
X118956Y165791D02*
X118956Y165791D01*
X113609Y168006D01*
X109516Y172099D01*
X107301Y177446D01*
X107301Y183234D01*
X109516Y188581D01*
X113609Y192674D01*
X118956Y194889D01*
X147744Y194889D01*
X153091Y192674D01*
X157184Y188581D01*
X159399Y183234D01*
X159399Y177446D01*
X157184Y172099D01*
X153091Y168006D01*
X147744Y165791D01*
X118956Y165791D01*
G37*
%LPD*%
%LPC*%
G36*
X177744Y186501D02*
X177744Y186501D01*
X172948Y188488D01*
X169278Y192158D01*
X167291Y196954D01*
X167291Y222146D01*
X169278Y226942D01*
X172948Y230612D01*
X177744Y232599D01*
X182936Y232599D01*
X187732Y230612D01*
X191402Y226942D01*
X193389Y222146D01*
X193389Y196954D01*
X191402Y192158D01*
X187732Y188488D01*
X182936Y186501D01*
X177744Y186501D01*
G37*
%LPD*%
%LPC*%
G36*
X83764Y186501D02*
X83764Y186501D01*
X78968Y188488D01*
X75298Y192158D01*
X73311Y196954D01*
X73311Y222146D01*
X75298Y226942D01*
X78968Y230612D01*
X83764Y232599D01*
X88956Y232599D01*
X93752Y230612D01*
X97422Y226942D01*
X99409Y222146D01*
X99409Y196954D01*
X97422Y192158D01*
X93752Y188488D01*
X88956Y186501D01*
X83764Y186501D01*
G37*
%LPD*%
%LPC*%
G36*
X25407Y164591D02*
X25407Y164591D01*
X23621Y166377D01*
X23621Y189223D01*
X25407Y191009D01*
X48253Y191009D01*
X50039Y189223D01*
X50039Y166377D01*
X48253Y164591D01*
X25407Y164591D01*
G37*
%LPD*%
%LPC*%
G36*
X135381Y227489D02*
X135381Y227489D01*
X135381Y237999D01*
X155725Y237999D01*
X155582Y237093D01*
X154972Y235216D01*
X154076Y233457D01*
X152915Y231860D01*
X151520Y230465D01*
X149923Y229304D01*
X148164Y228408D01*
X146287Y227798D01*
X144337Y227489D01*
X135381Y227489D01*
G37*
%LPD*%
%LPC*%
G36*
X122363Y227489D02*
X122363Y227489D01*
X120413Y227798D01*
X118536Y228408D01*
X116777Y229304D01*
X115180Y230465D01*
X113785Y231860D01*
X112624Y233457D01*
X111728Y235216D01*
X111118Y237093D01*
X110975Y237999D01*
X131319Y237999D01*
X131319Y227489D01*
X122363Y227489D01*
G37*
%LPD*%
%LPC*%
G36*
X38861Y144831D02*
X38861Y144831D01*
X38861Y155337D01*
X39804Y155188D01*
X41705Y154570D01*
X43487Y153663D01*
X45104Y152488D01*
X46518Y151074D01*
X47693Y149457D01*
X48600Y147675D01*
X49218Y145774D01*
X49367Y144831D01*
X38861Y144831D01*
G37*
%LPD*%
%LPC*%
G36*
X38861Y109831D02*
X38861Y109831D01*
X38861Y120337D01*
X39804Y120188D01*
X41705Y119570D01*
X43487Y118663D01*
X45104Y117488D01*
X46518Y116074D01*
X47693Y114457D01*
X48600Y112675D01*
X49218Y110774D01*
X49367Y109831D01*
X38861Y109831D01*
G37*
%LPD*%
%LPC*%
G36*
X24293Y144831D02*
X24293Y144831D01*
X24442Y145774D01*
X25060Y147675D01*
X25967Y149457D01*
X27142Y151074D01*
X28556Y152488D01*
X30173Y153663D01*
X31955Y154570D01*
X33856Y155188D01*
X34799Y155337D01*
X34799Y144831D01*
X24293Y144831D01*
G37*
%LPD*%
%LPC*%
G36*
X38861Y140769D02*
X38861Y140769D01*
X49367Y140769D01*
X49218Y139826D01*
X48600Y137925D01*
X47693Y136143D01*
X46518Y134526D01*
X45104Y133112D01*
X43487Y131937D01*
X41705Y131030D01*
X39804Y130412D01*
X38861Y130263D01*
X38861Y140769D01*
G37*
%LPD*%
%LPC*%
G36*
X24293Y109831D02*
X24293Y109831D01*
X24442Y110774D01*
X25060Y112675D01*
X25967Y114457D01*
X27142Y116074D01*
X28556Y117488D01*
X30173Y118663D01*
X31955Y119570D01*
X33856Y120188D01*
X34799Y120337D01*
X34799Y109831D01*
X24293Y109831D01*
G37*
%LPD*%
%LPC*%
G36*
X38861Y105769D02*
X38861Y105769D01*
X49367Y105769D01*
X49218Y104826D01*
X48600Y102925D01*
X47693Y101143D01*
X46518Y99526D01*
X45104Y98112D01*
X43487Y96937D01*
X41705Y96030D01*
X39804Y95412D01*
X38861Y95263D01*
X38861Y105769D01*
G37*
%LPD*%
%LPC*%
G36*
X33856Y130412D02*
X33856Y130412D01*
X31955Y131030D01*
X30173Y131937D01*
X28556Y133112D01*
X27142Y134526D01*
X25967Y136143D01*
X25060Y137925D01*
X24442Y139826D01*
X24293Y140769D01*
X34799Y140769D01*
X34799Y130263D01*
X33856Y130412D01*
G37*
%LPD*%
%LPC*%
G36*
X33856Y95412D02*
X33856Y95412D01*
X31955Y96030D01*
X30173Y96937D01*
X28556Y98112D01*
X27142Y99526D01*
X25967Y101143D01*
X25060Y102925D01*
X24442Y104826D01*
X24293Y105769D01*
X34799Y105769D01*
X34799Y95263D01*
X33856Y95412D01*
G37*
%LPD*%
%LPC*%
G36*
X229534Y103631D02*
X229534Y103631D01*
X229655Y104396D01*
X230236Y106183D01*
X231089Y107857D01*
X232194Y109378D01*
X233522Y110706D01*
X235043Y111811D01*
X236717Y112664D01*
X238504Y113245D01*
X238836Y113297D01*
X238956Y113334D01*
X239077Y113367D01*
X239091Y113376D01*
X239108Y113381D01*
X239213Y113449D01*
X239269Y113483D01*
X239269Y103631D01*
X229534Y103631D01*
G37*
%LPD*%
%LPC*%
G36*
X239255Y115122D02*
X239255Y115122D01*
X239154Y115196D01*
X239139Y115201D01*
X239124Y115212D01*
X238854Y115300D01*
X238845Y115300D01*
X238836Y115303D01*
X238504Y115355D01*
X236717Y115936D01*
X235043Y116789D01*
X233522Y117894D01*
X232194Y119222D01*
X231089Y120743D01*
X230236Y122417D01*
X229655Y124204D01*
X229534Y124969D01*
X239269Y124969D01*
X239269Y115113D01*
X239255Y115122D01*
G37*
%LPD*%
G36*
X62249Y196164D02*
X62249Y196164D01*
X62271Y196168D01*
X62278Y196183D01*
X62287Y196189D01*
X62286Y196199D01*
X62293Y196215D01*
X62293Y210185D01*
X62281Y210204D01*
X62277Y210226D01*
X62262Y210233D01*
X62256Y210242D01*
X62246Y210241D01*
X62230Y210248D01*
X59690Y210248D01*
X59671Y210236D01*
X59649Y210232D01*
X59642Y210217D01*
X59633Y210211D01*
X59634Y210201D01*
X59627Y210185D01*
X59627Y196215D01*
X59639Y196196D01*
X59643Y196174D01*
X59658Y196167D01*
X59664Y196158D01*
X59674Y196159D01*
X59690Y196152D01*
X62230Y196152D01*
X62249Y196164D01*
G37*
%LPC*%
G36*
X36829Y142799D02*
X36829Y142799D01*
X36829Y142801D01*
X36831Y142801D01*
X36831Y142799D01*
X36829Y142799D01*
G37*
%LPD*%
%LPC*%
G36*
X36829Y107799D02*
X36829Y107799D01*
X36829Y107801D01*
X36831Y107801D01*
X36831Y107799D01*
X36829Y107799D01*
G37*
%LPD*%
D10*
X203073Y16468D02*
X199743Y6477D01*
X196413Y16468D01*
X189838Y13970D02*
X189834Y14265D01*
X189824Y14559D01*
X189806Y14854D01*
X189782Y15148D01*
X189750Y15441D01*
X189712Y15733D01*
X189666Y16024D01*
X189613Y16314D01*
X189554Y16603D01*
X189488Y16890D01*
X189415Y17176D01*
X189335Y17460D01*
X189248Y17742D01*
X189155Y18021D01*
X189055Y18299D01*
X188948Y18573D01*
X188835Y18846D01*
X188715Y19115D01*
X188589Y19382D01*
X188551Y19485D01*
X188510Y19586D01*
X188466Y19685D01*
X188418Y19784D01*
X188367Y19880D01*
X188312Y19974D01*
X188254Y20067D01*
X188193Y20157D01*
X188128Y20245D01*
X188061Y20331D01*
X187990Y20414D01*
X187917Y20495D01*
X187841Y20573D01*
X187762Y20649D01*
X187680Y20721D01*
X187596Y20791D01*
X187509Y20857D01*
X187421Y20921D01*
X187330Y20981D01*
X187236Y21038D01*
X187141Y21092D01*
X187044Y21142D01*
X186946Y21189D01*
X186846Y21232D01*
X186744Y21272D01*
X186641Y21308D01*
X186537Y21340D01*
X186431Y21369D01*
X186325Y21394D01*
X186218Y21415D01*
X186110Y21432D01*
X186002Y21446D01*
X185893Y21455D01*
X185784Y21461D01*
X185675Y21463D01*
X185566Y21461D01*
X185457Y21455D01*
X185348Y21446D01*
X185240Y21432D01*
X185132Y21415D01*
X185025Y21394D01*
X184918Y21369D01*
X184813Y21340D01*
X184709Y21308D01*
X184606Y21272D01*
X184504Y21232D01*
X184404Y21189D01*
X184305Y21142D01*
X184208Y21091D01*
X184113Y21038D01*
X184020Y20981D01*
X183929Y20920D01*
X183840Y20857D01*
X183754Y20790D01*
X183669Y20721D01*
X183588Y20648D01*
X183509Y20573D01*
X183433Y20495D01*
X183359Y20414D01*
X183289Y20331D01*
X183221Y20245D01*
X183156Y20157D01*
X183095Y20066D01*
X183037Y19974D01*
X182982Y19879D01*
X182931Y19783D01*
X182883Y19685D01*
X182839Y19585D01*
X182798Y19484D01*
X182761Y19381D01*
X182761Y19382D02*
X182635Y19115D01*
X182515Y18846D01*
X182402Y18573D01*
X182295Y18299D01*
X182195Y18021D01*
X182102Y17742D01*
X182015Y17460D01*
X181935Y17176D01*
X181862Y16890D01*
X181796Y16603D01*
X181737Y16314D01*
X181684Y16024D01*
X181638Y15733D01*
X181600Y15441D01*
X181568Y15148D01*
X181544Y14854D01*
X181526Y14559D01*
X181516Y14265D01*
X181512Y13970D01*
X189838Y13970D02*
X189834Y13675D01*
X189824Y13381D01*
X189806Y13086D01*
X189782Y12792D01*
X189750Y12499D01*
X189712Y12207D01*
X189666Y11916D01*
X189613Y11626D01*
X189554Y11337D01*
X189488Y11050D01*
X189415Y10764D01*
X189335Y10480D01*
X189248Y10198D01*
X189155Y9919D01*
X189055Y9641D01*
X188948Y9367D01*
X188835Y9094D01*
X188715Y8825D01*
X188589Y8558D01*
X188551Y8455D01*
X188510Y8354D01*
X188466Y8255D01*
X188418Y8156D01*
X188367Y8060D01*
X188312Y7966D01*
X188254Y7873D01*
X188193Y7783D01*
X188128Y7695D01*
X188061Y7609D01*
X187990Y7526D01*
X187917Y7445D01*
X187841Y7367D01*
X187762Y7291D01*
X187680Y7219D01*
X187596Y7149D01*
X187509Y7083D01*
X187421Y7019D01*
X187330Y6959D01*
X187236Y6902D01*
X187141Y6848D01*
X187044Y6798D01*
X186946Y6751D01*
X186846Y6708D01*
X186744Y6668D01*
X186641Y6632D01*
X186537Y6600D01*
X186431Y6571D01*
X186325Y6546D01*
X186218Y6525D01*
X186110Y6508D01*
X186002Y6494D01*
X185893Y6485D01*
X185784Y6479D01*
X185675Y6477D01*
X182761Y8558D02*
X182635Y8825D01*
X182515Y9094D01*
X182402Y9367D01*
X182295Y9641D01*
X182195Y9919D01*
X182102Y10198D01*
X182015Y10480D01*
X181935Y10764D01*
X181862Y11050D01*
X181796Y11337D01*
X181737Y11626D01*
X181684Y11916D01*
X181638Y12207D01*
X181600Y12499D01*
X181568Y12792D01*
X181544Y13086D01*
X181526Y13381D01*
X181516Y13675D01*
X181512Y13970D01*
X182761Y8559D02*
X182798Y8456D01*
X182839Y8355D01*
X182883Y8255D01*
X182931Y8157D01*
X182982Y8061D01*
X183037Y7966D01*
X183095Y7874D01*
X183156Y7783D01*
X183221Y7695D01*
X183289Y7609D01*
X183359Y7526D01*
X183433Y7445D01*
X183509Y7367D01*
X183588Y7292D01*
X183669Y7219D01*
X183754Y7150D01*
X183840Y7083D01*
X183929Y7020D01*
X184020Y6959D01*
X184113Y6902D01*
X184208Y6849D01*
X184305Y6798D01*
X184404Y6751D01*
X184504Y6708D01*
X184606Y6668D01*
X184709Y6632D01*
X184813Y6600D01*
X184918Y6571D01*
X185025Y6546D01*
X185132Y6525D01*
X185240Y6508D01*
X185348Y6494D01*
X185457Y6485D01*
X185566Y6479D01*
X185675Y6477D01*
X189005Y9807D02*
X182344Y18133D01*
X174206Y18133D02*
X170044Y21463D01*
X170044Y6477D01*
X174206Y6477D02*
X165881Y6477D01*
D11*
X246380Y7620D03*
X7620Y246380D03*
D12*
X55105Y211214D02*
X55105Y205600D01*
X55105Y211214D02*
X66815Y211214D01*
X66815Y205600D01*
X55105Y205600D01*
X55105Y206541D02*
X66815Y206541D01*
X66815Y207482D02*
X55105Y207482D01*
X55105Y208423D02*
X66815Y208423D01*
X66815Y209364D02*
X55105Y209364D01*
X55105Y210305D02*
X66815Y210305D01*
X55105Y200800D02*
X55105Y195186D01*
X55105Y200800D02*
X66815Y200800D01*
X66815Y195186D01*
X55105Y195186D01*
X55105Y196127D02*
X66815Y196127D01*
X66815Y197068D02*
X55105Y197068D01*
X55105Y198009D02*
X66815Y198009D01*
X66815Y198950D02*
X55105Y198950D01*
X55105Y199891D02*
X66815Y199891D01*
D13*
X241300Y177800D03*
X241300Y152400D03*
X241300Y127000D03*
X241300Y101600D03*
X241300Y76200D03*
D14*
X36830Y177800D03*
D15*
X36830Y142800D03*
X36830Y107800D03*
X36830Y72800D03*
D16*
X123350Y240030D02*
X143350Y240030D01*
X86360Y219550D02*
X86360Y199550D01*
D17*
X121850Y180340D02*
X144850Y180340D01*
D16*
X180340Y199550D02*
X180340Y219550D01*
D18*
X194310Y101600D03*
X241300Y50800D03*
X133350Y209550D03*
X210820Y114300D03*
X203200Y49530D03*
X190500Y114300D03*
X133350Y114300D03*
X133350Y133350D03*
X107950Y146050D03*
D19*
X88900Y146050D03*
X88900Y127000D03*
X101600Y114300D03*
D18*
X172720Y114300D03*
D19*
X82550Y97790D03*
X190500Y241300D03*
X76200Y241300D03*
X63500Y146050D03*
X63500Y101600D03*
X152400Y50800D03*
X133350Y50800D03*
X114300Y50800D03*
X76200Y50800D03*
X228600Y190500D03*
X203200Y190500D03*
X63500Y127000D03*
X25400Y127000D03*
X156210Y8890D03*
X158750Y222250D03*
X107950Y222250D03*
X165100Y241300D03*
X101600Y241300D03*
D20*
X60960Y208407D02*
X48387Y208407D01*
X16510Y203200D02*
X7620Y194310D01*
X43180Y203200D02*
X48387Y208407D01*
X43180Y203200D02*
X16510Y203200D01*
D18*
X48260Y48260D03*
D20*
X7620Y73660D02*
X7620Y194310D01*
X7620Y73660D02*
X25400Y55880D01*
X40640Y55880D02*
X48260Y48260D01*
X40640Y55880D02*
X25400Y55880D01*
D21*
X13970Y95660D02*
X13970Y191770D01*
X20193Y197993D02*
X60960Y197993D01*
X20193Y197993D02*
X13970Y191770D01*
X13970Y95660D02*
X36830Y72800D01*
M02*
