G04 EAGLE Gerber RS-274X export*
G75*
%MOMM*%
%FSLAX34Y34*%
%LPD*%
%INSoldermask Top*%
%IPPOS*%
%AMOC8*
5,1,8,0,0,1.08239X$1,22.5*%
G01*
%ADD10C,0.255816*%
%ADD11C,0.449434*%
%ADD12C,0.787400*%
%ADD13C,0.259078*%
%ADD14C,0.253525*%
%ADD15C,0.252862*%
%ADD16C,3.200400*%
%ADD17C,2.032000*%
%ADD18R,2.184400X2.184400*%
%ADD19C,2.184400*%
%ADD20C,0.256031*%
%ADD21C,0.257147*%
%ADD22C,2.152400*%
%ADD23C,2.452400*%

G36*
X87326Y188517D02*
X87326Y188517D01*
X87437Y188525D01*
X89280Y188870D01*
X89307Y188879D01*
X89415Y188908D01*
X91164Y189585D01*
X91189Y189600D01*
X91289Y189648D01*
X92884Y190635D01*
X92905Y190654D01*
X92996Y190720D01*
X94381Y191983D01*
X94399Y192005D01*
X94476Y192087D01*
X95606Y193583D01*
X95619Y193608D01*
X95680Y193702D01*
X96515Y195380D01*
X96524Y195408D01*
X96566Y195511D01*
X97079Y197315D01*
X97083Y197343D01*
X97105Y197453D01*
X97278Y199320D01*
X97276Y199345D01*
X97281Y199390D01*
X97281Y219710D01*
X97277Y219735D01*
X97277Y219749D01*
X97279Y219763D01*
X97278Y219768D01*
X97278Y219780D01*
X97105Y221647D01*
X97098Y221675D01*
X97079Y221785D01*
X96566Y223589D01*
X96554Y223615D01*
X96515Y223720D01*
X95680Y225398D01*
X95663Y225421D01*
X95606Y225517D01*
X94476Y227014D01*
X94455Y227034D01*
X94432Y227060D01*
X94428Y227066D01*
X94422Y227071D01*
X94381Y227117D01*
X92996Y228380D01*
X92972Y228396D01*
X92884Y228465D01*
X91289Y229452D01*
X91263Y229463D01*
X91164Y229515D01*
X89415Y230192D01*
X89387Y230198D01*
X89280Y230230D01*
X87437Y230575D01*
X87409Y230576D01*
X87297Y230588D01*
X85423Y230588D01*
X85394Y230583D01*
X85283Y230575D01*
X83440Y230230D01*
X83413Y230221D01*
X83305Y230192D01*
X81556Y229515D01*
X81531Y229500D01*
X81431Y229452D01*
X79836Y228465D01*
X79815Y228446D01*
X79724Y228380D01*
X78339Y227117D01*
X78321Y227095D01*
X78244Y227014D01*
X77114Y225517D01*
X77102Y225494D01*
X77089Y225480D01*
X77078Y225456D01*
X77040Y225398D01*
X76205Y223720D01*
X76196Y223692D01*
X76154Y223589D01*
X75641Y221785D01*
X75638Y221757D01*
X75615Y221647D01*
X75442Y219780D01*
X75444Y219755D01*
X75439Y219710D01*
X75439Y199390D01*
X75443Y199365D01*
X75442Y199320D01*
X75615Y197453D01*
X75622Y197425D01*
X75641Y197315D01*
X76154Y195511D01*
X76166Y195485D01*
X76205Y195380D01*
X77040Y193702D01*
X77057Y193679D01*
X77114Y193583D01*
X78244Y192087D01*
X78265Y192067D01*
X78339Y191983D01*
X79724Y190720D01*
X79749Y190704D01*
X79836Y190635D01*
X81431Y189648D01*
X81457Y189637D01*
X81556Y189585D01*
X83305Y188908D01*
X83333Y188902D01*
X83440Y188870D01*
X85283Y188525D01*
X85311Y188524D01*
X85423Y188512D01*
X87297Y188512D01*
X87326Y188517D01*
G37*
D10*
X135833Y88923D02*
X135833Y83957D01*
X130867Y83957D01*
X130867Y88923D01*
X135833Y88923D01*
X135833Y86387D02*
X130867Y86387D01*
X130867Y88817D02*
X135833Y88817D01*
X135833Y93957D02*
X135833Y98923D01*
X135833Y93957D02*
X130867Y93957D01*
X130867Y98923D01*
X135833Y98923D01*
X135833Y96387D02*
X130867Y96387D01*
X130867Y98817D02*
X135833Y98817D01*
D11*
X175085Y46695D02*
X175085Y39665D01*
X168055Y39665D01*
X168055Y46695D01*
X175085Y46695D01*
X175085Y43934D02*
X168055Y43934D01*
X192625Y46695D02*
X192625Y39665D01*
X185595Y39665D01*
X185595Y46695D01*
X192625Y46695D01*
X192625Y43934D02*
X185595Y43934D01*
D12*
X246380Y7620D03*
X7620Y246380D03*
D13*
X142646Y94640D02*
X182474Y94640D01*
X142646Y94640D02*
X142646Y105004D01*
X182474Y105004D01*
X182474Y94640D01*
X182474Y97101D02*
X142646Y97101D01*
X142646Y99562D02*
X182474Y99562D01*
X182474Y102023D02*
X142646Y102023D01*
X142646Y104484D02*
X182474Y104484D01*
X182474Y65176D02*
X142646Y65176D01*
X142646Y75540D01*
X182474Y75540D01*
X182474Y65176D01*
X182474Y67637D02*
X142646Y67637D01*
X142646Y70098D02*
X182474Y70098D01*
X182474Y72559D02*
X142646Y72559D01*
X142646Y75020D02*
X182474Y75020D01*
D14*
X113615Y97485D02*
X113615Y107475D01*
X122605Y107475D01*
X122605Y97485D01*
X113615Y97485D01*
X113615Y99893D02*
X122605Y99893D01*
X122605Y102301D02*
X113615Y102301D01*
X113615Y104709D02*
X122605Y104709D01*
X122605Y107117D02*
X113615Y107117D01*
X113615Y90475D02*
X113615Y80485D01*
X113615Y90475D02*
X122605Y90475D01*
X122605Y80485D01*
X113615Y80485D01*
X113615Y82893D02*
X122605Y82893D01*
X122605Y85301D02*
X113615Y85301D01*
X113615Y87709D02*
X122605Y87709D01*
X122605Y90117D02*
X113615Y90117D01*
X108255Y125045D02*
X98265Y125045D01*
X98265Y134035D01*
X108255Y134035D01*
X108255Y125045D01*
X108255Y127453D02*
X98265Y127453D01*
X98265Y129861D02*
X108255Y129861D01*
X108255Y132269D02*
X98265Y132269D01*
X115265Y125045D02*
X125255Y125045D01*
X115265Y125045D02*
X115265Y134035D01*
X125255Y134035D01*
X125255Y125045D01*
X125255Y127453D02*
X115265Y127453D01*
X115265Y129861D02*
X125255Y129861D01*
X125255Y132269D02*
X115265Y132269D01*
X183845Y31165D02*
X193835Y31165D01*
X193835Y22175D01*
X183845Y22175D01*
X183845Y31165D01*
X183845Y24583D02*
X193835Y24583D01*
X193835Y26991D02*
X183845Y26991D01*
X183845Y29399D02*
X193835Y29399D01*
X176835Y31165D02*
X166845Y31165D01*
X176835Y31165D02*
X176835Y22175D01*
X166845Y22175D01*
X166845Y31165D01*
X166845Y24583D02*
X176835Y24583D01*
X176835Y26991D02*
X166845Y26991D01*
X166845Y29399D02*
X176835Y29399D01*
D15*
X145148Y114851D02*
X140652Y114851D01*
X140652Y125847D01*
X145148Y125847D01*
X145148Y114851D01*
X145148Y117254D02*
X140652Y117254D01*
X140652Y119657D02*
X145148Y119657D01*
X145148Y122060D02*
X140652Y122060D01*
X140652Y124463D02*
X145148Y124463D01*
X150152Y114851D02*
X154648Y114851D01*
X150152Y114851D02*
X150152Y125847D01*
X154648Y125847D01*
X154648Y114851D01*
X154648Y117254D02*
X150152Y117254D01*
X150152Y119657D02*
X154648Y119657D01*
X154648Y122060D02*
X150152Y122060D01*
X150152Y124463D02*
X154648Y124463D01*
X159652Y114851D02*
X164148Y114851D01*
X159652Y114851D02*
X159652Y125847D01*
X164148Y125847D01*
X164148Y114851D01*
X164148Y117254D02*
X159652Y117254D01*
X159652Y119657D02*
X164148Y119657D01*
X164148Y122060D02*
X159652Y122060D01*
X159652Y124463D02*
X164148Y124463D01*
X164148Y140853D02*
X159652Y140853D01*
X159652Y151849D01*
X164148Y151849D01*
X164148Y140853D01*
X164148Y143256D02*
X159652Y143256D01*
X159652Y145659D02*
X164148Y145659D01*
X164148Y148062D02*
X159652Y148062D01*
X159652Y150465D02*
X164148Y150465D01*
X145148Y140853D02*
X140652Y140853D01*
X140652Y151849D01*
X145148Y151849D01*
X145148Y140853D01*
X145148Y143256D02*
X140652Y143256D01*
X140652Y145659D02*
X145148Y145659D01*
X145148Y148062D02*
X140652Y148062D01*
X140652Y150465D02*
X145148Y150465D01*
D16*
X25400Y228600D03*
X25400Y25400D03*
X228600Y228600D03*
X228600Y25400D03*
D17*
X241300Y177800D03*
X241300Y152400D03*
X241300Y127000D03*
X241300Y101600D03*
X241300Y76200D03*
D18*
X36830Y177800D03*
D19*
X36830Y142800D03*
X36830Y107800D03*
X36830Y72800D03*
D20*
X55382Y5598D02*
X71110Y5598D01*
X55382Y5598D02*
X55382Y17262D01*
X71110Y17262D01*
X71110Y5598D01*
X71110Y8030D02*
X55382Y8030D01*
X55382Y10462D02*
X71110Y10462D01*
X71110Y12894D02*
X55382Y12894D01*
X55382Y15326D02*
X71110Y15326D01*
X111262Y5598D02*
X126990Y5598D01*
X111262Y5598D02*
X111262Y17262D01*
X126990Y17262D01*
X126990Y5598D01*
X126990Y8030D02*
X111262Y8030D01*
X111262Y10462D02*
X126990Y10462D01*
X126990Y12894D02*
X111262Y12894D01*
X111262Y15326D02*
X126990Y15326D01*
D21*
X178673Y142683D02*
X178673Y149637D01*
X189627Y149637D01*
X189627Y142683D01*
X178673Y142683D01*
X178673Y145125D02*
X189627Y145125D01*
X189627Y147567D02*
X178673Y147567D01*
X178673Y131637D02*
X178673Y124683D01*
X178673Y131637D02*
X189627Y131637D01*
X189627Y124683D01*
X178673Y124683D01*
X178673Y127125D02*
X189627Y127125D01*
X189627Y129567D02*
X178673Y129567D01*
X103267Y87187D02*
X103267Y80233D01*
X92313Y80233D01*
X92313Y87187D01*
X103267Y87187D01*
X103267Y82675D02*
X92313Y82675D01*
X92313Y85117D02*
X103267Y85117D01*
X103267Y98233D02*
X103267Y105187D01*
X103267Y98233D02*
X92313Y98233D01*
X92313Y105187D01*
X103267Y105187D01*
X103267Y100675D02*
X92313Y100675D01*
X92313Y103117D02*
X103267Y103117D01*
X92313Y70897D02*
X92313Y63943D01*
X92313Y70897D02*
X103267Y70897D01*
X103267Y63943D01*
X92313Y63943D01*
X92313Y66385D02*
X103267Y66385D01*
X103267Y68827D02*
X92313Y68827D01*
X92313Y52897D02*
X92313Y45943D01*
X92313Y52897D02*
X103267Y52897D01*
X103267Y45943D01*
X92313Y45943D01*
X92313Y48385D02*
X103267Y48385D01*
X103267Y50827D02*
X92313Y50827D01*
D22*
X123350Y240030D02*
X143350Y240030D01*
D23*
X144850Y180340D02*
X121850Y180340D01*
M02*
