G04 EAGLE Gerber RS-274X export*
G75*
%MOMM*%
%FSLAX34Y34*%
%LPD*%
%INSoldermask Bottom*%
%IPPOS*%
%AMOC8*
5,1,8,0,0,1.08239X$1,22.5*%
G01*
%ADD10R,15.240000X12.700000*%
%ADD11C,0.787400*%
%ADD12C,0.251966*%
%ADD13C,3.200400*%
%ADD14C,2.032000*%
%ADD15R,2.184400X2.184400*%
%ADD16C,2.184400*%
%ADD17C,2.152400*%
%ADD18C,2.452400*%

G36*
X182171Y188626D02*
X182171Y188626D01*
X182201Y188634D01*
X182301Y188649D01*
X184012Y189107D01*
X184041Y189120D01*
X184137Y189153D01*
X185742Y189901D01*
X185768Y189919D01*
X185857Y189968D01*
X187307Y190983D01*
X187330Y191005D01*
X187409Y191069D01*
X188661Y192321D01*
X188680Y192346D01*
X188747Y192423D01*
X189762Y193873D01*
X189776Y193901D01*
X189829Y193988D01*
X190577Y195593D01*
X190586Y195624D01*
X190623Y195718D01*
X191081Y197429D01*
X191084Y197460D01*
X191104Y197559D01*
X191258Y199324D01*
X191257Y199348D01*
X191261Y199390D01*
X191261Y219710D01*
X191260Y219718D01*
X191260Y219719D01*
X191258Y219729D01*
X191257Y219734D01*
X191258Y219776D01*
X191104Y221541D01*
X191096Y221571D01*
X191081Y221671D01*
X190623Y223382D01*
X190610Y223411D01*
X190577Y223507D01*
X189829Y225112D01*
X189811Y225138D01*
X189762Y225227D01*
X188747Y226677D01*
X188725Y226700D01*
X188661Y226779D01*
X187409Y228031D01*
X187384Y228050D01*
X187307Y228117D01*
X185857Y229132D01*
X185829Y229146D01*
X185742Y229199D01*
X184137Y229947D01*
X184106Y229956D01*
X184012Y229993D01*
X182301Y230451D01*
X182270Y230454D01*
X182171Y230474D01*
X180406Y230628D01*
X180375Y230626D01*
X180274Y230628D01*
X178509Y230474D01*
X178479Y230466D01*
X178379Y230451D01*
X176668Y229993D01*
X176639Y229980D01*
X176543Y229947D01*
X174938Y229199D01*
X174912Y229181D01*
X174823Y229132D01*
X173373Y228117D01*
X173350Y228095D01*
X173271Y228031D01*
X172019Y226779D01*
X172000Y226754D01*
X171933Y226677D01*
X170918Y225227D01*
X170904Y225199D01*
X170851Y225112D01*
X170103Y223507D01*
X170094Y223476D01*
X170057Y223382D01*
X169599Y221671D01*
X169596Y221640D01*
X169576Y221541D01*
X169422Y219776D01*
X169423Y219752D01*
X169419Y219710D01*
X169419Y199390D01*
X169423Y199366D01*
X169422Y199324D01*
X169576Y197559D01*
X169584Y197529D01*
X169599Y197429D01*
X170057Y195718D01*
X170070Y195689D01*
X170103Y195593D01*
X170851Y193988D01*
X170869Y193962D01*
X170918Y193873D01*
X171933Y192423D01*
X171955Y192400D01*
X172019Y192321D01*
X173271Y191069D01*
X173296Y191050D01*
X173373Y190983D01*
X174823Y189968D01*
X174851Y189954D01*
X174938Y189901D01*
X176543Y189153D01*
X176574Y189144D01*
X176668Y189107D01*
X178379Y188649D01*
X178410Y188646D01*
X178509Y188626D01*
X180274Y188472D01*
X180305Y188474D01*
X180406Y188472D01*
X182171Y188626D01*
G37*
G36*
X62295Y200672D02*
X62295Y200672D01*
X62361Y200674D01*
X62404Y200692D01*
X62451Y200700D01*
X62508Y200734D01*
X62568Y200759D01*
X62603Y200790D01*
X62644Y200815D01*
X62686Y200866D01*
X62734Y200910D01*
X62756Y200952D01*
X62785Y200989D01*
X62806Y201051D01*
X62837Y201110D01*
X62845Y201164D01*
X62857Y201201D01*
X62856Y201241D01*
X62864Y201295D01*
X62864Y205105D01*
X62853Y205170D01*
X62851Y205236D01*
X62833Y205279D01*
X62825Y205326D01*
X62791Y205383D01*
X62766Y205443D01*
X62735Y205478D01*
X62710Y205519D01*
X62659Y205561D01*
X62615Y205609D01*
X62573Y205631D01*
X62536Y205660D01*
X62474Y205681D01*
X62415Y205712D01*
X62361Y205720D01*
X62324Y205732D01*
X62284Y205731D01*
X62230Y205739D01*
X59690Y205739D01*
X59625Y205728D01*
X59559Y205726D01*
X59516Y205708D01*
X59469Y205700D01*
X59412Y205666D01*
X59352Y205641D01*
X59317Y205610D01*
X59276Y205585D01*
X59235Y205534D01*
X59186Y205490D01*
X59164Y205448D01*
X59135Y205411D01*
X59114Y205349D01*
X59083Y205290D01*
X59075Y205236D01*
X59063Y205199D01*
X59063Y205195D01*
X59063Y205194D01*
X59064Y205159D01*
X59056Y205105D01*
X59056Y201295D01*
X59067Y201230D01*
X59069Y201164D01*
X59087Y201121D01*
X59095Y201074D01*
X59129Y201017D01*
X59154Y200957D01*
X59185Y200922D01*
X59210Y200881D01*
X59261Y200840D01*
X59305Y200791D01*
X59347Y200769D01*
X59384Y200740D01*
X59446Y200719D01*
X59505Y200688D01*
X59559Y200680D01*
X59596Y200668D01*
X59636Y200669D01*
X59690Y200661D01*
X62230Y200661D01*
X62295Y200672D01*
G37*
D10*
X139700Y101600D03*
D11*
X246380Y7620D03*
X7620Y246380D03*
D12*
X55108Y211211D02*
X55108Y205603D01*
X55108Y211211D02*
X66812Y211211D01*
X66812Y205603D01*
X55108Y205603D01*
X55108Y207997D02*
X66812Y207997D01*
X66812Y210391D02*
X55108Y210391D01*
X55108Y200797D02*
X55108Y195189D01*
X55108Y200797D02*
X66812Y200797D01*
X66812Y195189D01*
X55108Y195189D01*
X55108Y197583D02*
X66812Y197583D01*
X66812Y199977D02*
X55108Y199977D01*
D13*
X25400Y228600D03*
X25400Y25400D03*
X228600Y228600D03*
X228600Y25400D03*
D14*
X241300Y177800D03*
X241300Y152400D03*
X241300Y127000D03*
X241300Y101600D03*
X241300Y76200D03*
D15*
X36830Y177800D03*
D16*
X36830Y142800D03*
X36830Y107800D03*
X36830Y72800D03*
D17*
X123350Y240030D02*
X143350Y240030D01*
D18*
X144850Y180340D02*
X121850Y180340D01*
M02*
