G04 EAGLE Gerber RS-274X export*
G75*
%MOMM*%
%FSLAX34Y34*%
%LPD*%
%INSilkscreen Bottom*%
%IPPOS*%
%AMOC8*
5,1,8,0,0,1.08239X$1,22.5*%
G01*
%ADD10C,0.203200*%

G36*
X142670Y196996D02*
X142670Y196996D01*
X142778Y197006D01*
X142791Y197012D01*
X142805Y197014D01*
X142902Y197062D01*
X143001Y197107D01*
X143014Y197118D01*
X143023Y197122D01*
X143038Y197138D01*
X143115Y197200D01*
X145700Y199785D01*
X145763Y199874D01*
X145829Y199959D01*
X145834Y199972D01*
X145842Y199984D01*
X145873Y200087D01*
X145909Y200190D01*
X145909Y200204D01*
X145913Y200217D01*
X145909Y200325D01*
X145910Y200434D01*
X145905Y200447D01*
X145905Y200461D01*
X145867Y200563D01*
X145832Y200665D01*
X145823Y200680D01*
X145819Y200689D01*
X145805Y200706D01*
X145751Y200788D01*
X142987Y204178D01*
X143544Y205260D01*
X143550Y205280D01*
X143592Y205375D01*
X143963Y206534D01*
X148314Y206977D01*
X148418Y207005D01*
X148524Y207030D01*
X148536Y207037D01*
X148549Y207040D01*
X148639Y207101D01*
X148732Y207158D01*
X148740Y207169D01*
X148752Y207177D01*
X148818Y207263D01*
X148887Y207347D01*
X148891Y207360D01*
X148900Y207371D01*
X148934Y207474D01*
X148973Y207575D01*
X148974Y207593D01*
X148978Y207602D01*
X148978Y207624D01*
X148987Y207722D01*
X148987Y211378D01*
X148970Y211485D01*
X148956Y211593D01*
X148950Y211605D01*
X148948Y211619D01*
X148896Y211715D01*
X148849Y211812D01*
X148839Y211822D01*
X148833Y211834D01*
X148753Y211908D01*
X148677Y211985D01*
X148665Y211991D01*
X148655Y212001D01*
X148556Y212046D01*
X148459Y212094D01*
X148441Y212098D01*
X148432Y212102D01*
X148411Y212104D01*
X148314Y212123D01*
X143963Y212566D01*
X143592Y213725D01*
X143583Y213742D01*
X143581Y213750D01*
X143577Y213757D01*
X143544Y213840D01*
X142987Y214922D01*
X145751Y218312D01*
X145805Y218406D01*
X145862Y218498D01*
X145865Y218511D01*
X145872Y218523D01*
X145893Y218630D01*
X145918Y218735D01*
X145916Y218749D01*
X145919Y218763D01*
X145904Y218870D01*
X145894Y218978D01*
X145888Y218991D01*
X145886Y219005D01*
X145838Y219102D01*
X145793Y219201D01*
X145782Y219214D01*
X145778Y219223D01*
X145762Y219238D01*
X145700Y219315D01*
X143115Y221900D01*
X143026Y221963D01*
X142941Y222029D01*
X142928Y222034D01*
X142916Y222042D01*
X142813Y222073D01*
X142710Y222109D01*
X142696Y222109D01*
X142683Y222113D01*
X142575Y222109D01*
X142466Y222110D01*
X142453Y222105D01*
X142439Y222105D01*
X142337Y222067D01*
X142235Y222032D01*
X142220Y222023D01*
X142211Y222019D01*
X142194Y222005D01*
X142112Y221951D01*
X138722Y219187D01*
X137640Y219744D01*
X137620Y219750D01*
X137525Y219792D01*
X136366Y220163D01*
X135923Y224514D01*
X135895Y224618D01*
X135870Y224724D01*
X135863Y224736D01*
X135860Y224749D01*
X135799Y224839D01*
X135742Y224932D01*
X135731Y224940D01*
X135723Y224952D01*
X135637Y225018D01*
X135553Y225087D01*
X135540Y225091D01*
X135529Y225100D01*
X135426Y225134D01*
X135325Y225173D01*
X135307Y225174D01*
X135298Y225178D01*
X135276Y225178D01*
X135178Y225187D01*
X131522Y225187D01*
X131415Y225170D01*
X131307Y225156D01*
X131295Y225150D01*
X131281Y225148D01*
X131185Y225096D01*
X131088Y225049D01*
X131078Y225039D01*
X131066Y225033D01*
X130992Y224953D01*
X130915Y224877D01*
X130909Y224865D01*
X130899Y224855D01*
X130854Y224756D01*
X130806Y224659D01*
X130802Y224641D01*
X130798Y224632D01*
X130796Y224611D01*
X130777Y224514D01*
X130334Y220163D01*
X129175Y219792D01*
X129157Y219782D01*
X129060Y219744D01*
X127978Y219187D01*
X124588Y221951D01*
X124494Y222005D01*
X124402Y222062D01*
X124389Y222065D01*
X124377Y222072D01*
X124270Y222093D01*
X124165Y222118D01*
X124151Y222116D01*
X124137Y222119D01*
X124030Y222104D01*
X123922Y222094D01*
X123909Y222088D01*
X123896Y222086D01*
X123798Y222038D01*
X123699Y221993D01*
X123686Y221982D01*
X123677Y221978D01*
X123662Y221962D01*
X123585Y221900D01*
X121000Y219315D01*
X120937Y219226D01*
X120871Y219141D01*
X120866Y219128D01*
X120858Y219116D01*
X120827Y219013D01*
X120791Y218910D01*
X120791Y218896D01*
X120787Y218883D01*
X120791Y218775D01*
X120790Y218666D01*
X120795Y218653D01*
X120795Y218639D01*
X120833Y218537D01*
X120868Y218435D01*
X120877Y218420D01*
X120881Y218411D01*
X120895Y218394D01*
X120949Y218312D01*
X123713Y214922D01*
X123156Y213840D01*
X123150Y213820D01*
X123108Y213725D01*
X122737Y212566D01*
X118386Y212123D01*
X118282Y212095D01*
X118176Y212070D01*
X118164Y212063D01*
X118151Y212060D01*
X118061Y211999D01*
X117968Y211942D01*
X117960Y211931D01*
X117948Y211923D01*
X117882Y211837D01*
X117814Y211753D01*
X117809Y211740D01*
X117800Y211729D01*
X117766Y211626D01*
X117727Y211525D01*
X117726Y211507D01*
X117722Y211498D01*
X117723Y211476D01*
X117713Y211378D01*
X117713Y207722D01*
X117730Y207615D01*
X117744Y207507D01*
X117750Y207495D01*
X117752Y207481D01*
X117804Y207385D01*
X117851Y207288D01*
X117861Y207278D01*
X117867Y207266D01*
X117947Y207192D01*
X118023Y207115D01*
X118035Y207109D01*
X118046Y207099D01*
X118144Y207054D01*
X118241Y207006D01*
X118259Y207002D01*
X118268Y206998D01*
X118289Y206996D01*
X118386Y206977D01*
X122737Y206534D01*
X123108Y205375D01*
X123118Y205357D01*
X123156Y205260D01*
X123713Y204178D01*
X120949Y200788D01*
X120895Y200694D01*
X120838Y200602D01*
X120835Y200589D01*
X120828Y200577D01*
X120807Y200470D01*
X120782Y200365D01*
X120784Y200351D01*
X120781Y200337D01*
X120796Y200230D01*
X120806Y200122D01*
X120812Y200109D01*
X120814Y200096D01*
X120862Y199998D01*
X120907Y199899D01*
X120918Y199886D01*
X120922Y199877D01*
X120938Y199862D01*
X121000Y199785D01*
X123585Y197200D01*
X123674Y197137D01*
X123759Y197071D01*
X123772Y197066D01*
X123784Y197058D01*
X123887Y197027D01*
X123990Y196991D01*
X124004Y196991D01*
X124017Y196987D01*
X124125Y196991D01*
X124234Y196990D01*
X124247Y196995D01*
X124261Y196995D01*
X124363Y197033D01*
X124465Y197068D01*
X124480Y197077D01*
X124489Y197081D01*
X124506Y197095D01*
X124588Y197149D01*
X127978Y199913D01*
X129060Y199356D01*
X129113Y199339D01*
X129162Y199313D01*
X129228Y199302D01*
X129292Y199281D01*
X129348Y199282D01*
X129402Y199273D01*
X129469Y199284D01*
X129536Y199285D01*
X129588Y199303D01*
X129643Y199312D01*
X129703Y199344D01*
X129766Y199367D01*
X129809Y199401D01*
X129859Y199427D01*
X129905Y199476D01*
X129957Y199518D01*
X129988Y199565D01*
X130026Y199605D01*
X130082Y199710D01*
X130090Y199723D01*
X130091Y199728D01*
X130095Y199735D01*
X132248Y204932D01*
X132268Y205015D01*
X132273Y205028D01*
X132275Y205044D01*
X132300Y205129D01*
X132299Y205150D01*
X132304Y205170D01*
X132296Y205252D01*
X132298Y205271D01*
X132293Y205291D01*
X132289Y205372D01*
X132282Y205392D01*
X132280Y205413D01*
X132249Y205482D01*
X132242Y205509D01*
X132227Y205533D01*
X132201Y205600D01*
X132188Y205616D01*
X132179Y205635D01*
X132134Y205684D01*
X132114Y205716D01*
X132083Y205741D01*
X132045Y205787D01*
X132022Y205803D01*
X132012Y205813D01*
X131991Y205825D01*
X131926Y205870D01*
X131925Y205871D01*
X131924Y205872D01*
X131025Y206378D01*
X130338Y207022D01*
X129823Y207810D01*
X129511Y208698D01*
X129419Y209635D01*
X129552Y210567D01*
X129903Y211441D01*
X130452Y212206D01*
X131166Y212819D01*
X132006Y213244D01*
X132923Y213458D01*
X133864Y213448D01*
X134776Y213214D01*
X135606Y212771D01*
X136307Y212142D01*
X136839Y211365D01*
X137170Y210484D01*
X137283Y209549D01*
X137175Y208632D01*
X136855Y207764D01*
X136341Y206995D01*
X135662Y206368D01*
X134778Y205873D01*
X134736Y205840D01*
X134694Y205817D01*
X134663Y205784D01*
X134615Y205749D01*
X134603Y205733D01*
X134587Y205720D01*
X134552Y205665D01*
X134527Y205639D01*
X134513Y205608D01*
X134472Y205551D01*
X134466Y205532D01*
X134456Y205515D01*
X134437Y205440D01*
X134427Y205417D01*
X134424Y205393D01*
X134401Y205318D01*
X134402Y205298D01*
X134397Y205278D01*
X134404Y205193D01*
X134403Y205174D01*
X134406Y205157D01*
X134409Y205074D01*
X134417Y205049D01*
X134418Y205035D01*
X134428Y205013D01*
X134452Y204932D01*
X134761Y204187D01*
X135692Y201939D01*
X136002Y201190D01*
X136605Y199735D01*
X136634Y199688D01*
X136655Y199636D01*
X136698Y199585D01*
X136734Y199528D01*
X136777Y199493D01*
X136813Y199450D01*
X136870Y199416D01*
X136922Y199373D01*
X136974Y199354D01*
X137022Y199325D01*
X137088Y199311D01*
X137151Y199287D01*
X137206Y199285D01*
X137260Y199274D01*
X137327Y199281D01*
X137394Y199279D01*
X137448Y199295D01*
X137503Y199302D01*
X137614Y199346D01*
X137628Y199350D01*
X137632Y199353D01*
X137640Y199356D01*
X138722Y199913D01*
X142112Y197149D01*
X142206Y197095D01*
X142298Y197038D01*
X142311Y197035D01*
X142323Y197028D01*
X142430Y197007D01*
X142535Y196982D01*
X142549Y196984D01*
X142563Y196981D01*
X142670Y196996D01*
G37*
G36*
X232477Y54347D02*
X232477Y54347D01*
X232472Y54354D01*
X232479Y54360D01*
X232479Y92960D01*
X232443Y93007D01*
X232436Y93002D01*
X232430Y93009D01*
X222330Y93009D01*
X222283Y92973D01*
X222283Y92972D01*
X222282Y92972D01*
X222182Y92572D01*
X222186Y92564D01*
X222181Y92560D01*
X222181Y54360D01*
X222217Y54313D01*
X222224Y54318D01*
X222230Y54311D01*
X232430Y54311D01*
X232477Y54347D01*
G37*
G36*
X58387Y51807D02*
X58387Y51807D01*
X58387Y51808D01*
X58388Y51808D01*
X58488Y52208D01*
X58484Y52216D01*
X58489Y52220D01*
X58489Y90420D01*
X58453Y90467D01*
X58446Y90462D01*
X58440Y90469D01*
X48240Y90469D01*
X48193Y90433D01*
X48198Y90426D01*
X48191Y90420D01*
X48191Y51820D01*
X48227Y51773D01*
X48234Y51778D01*
X48240Y51771D01*
X58340Y51771D01*
X58387Y51807D01*
G37*
G36*
X65776Y216003D02*
X65776Y216003D01*
X65787Y215999D01*
X66087Y216199D01*
X66093Y216216D01*
X66103Y216224D01*
X66098Y216230D01*
X66099Y216232D01*
X66109Y216240D01*
X66109Y243940D01*
X66105Y243946D01*
X66108Y243950D01*
X65808Y245450D01*
X65803Y245454D01*
X65806Y245458D01*
X65606Y245958D01*
X65598Y245963D01*
X65599Y245970D01*
X65302Y246366D01*
X65104Y246762D01*
X65094Y246767D01*
X65095Y246775D01*
X64697Y247172D01*
X64399Y247570D01*
X64390Y247572D01*
X64390Y247579D01*
X63990Y247879D01*
X63986Y247879D01*
X63985Y247882D01*
X63485Y248182D01*
X63482Y248182D01*
X63482Y248184D01*
X63082Y248384D01*
X63079Y248383D01*
X63078Y248386D01*
X62578Y248586D01*
X62572Y248584D01*
X62570Y248588D01*
X61070Y248888D01*
X61057Y248882D01*
X61050Y248888D01*
X60555Y248789D01*
X60060Y248789D01*
X60054Y248785D01*
X60050Y248788D01*
X59550Y248688D01*
X59546Y248683D01*
X59542Y248686D01*
X59042Y248486D01*
X59040Y248483D01*
X59038Y248484D01*
X58638Y248284D01*
X58637Y248281D01*
X58635Y248282D01*
X58135Y247982D01*
X58133Y247979D01*
X58130Y247979D01*
X57330Y247379D01*
X57328Y247370D01*
X57321Y247370D01*
X56421Y246170D01*
X56421Y246160D01*
X56414Y246158D01*
X56215Y245660D01*
X56016Y245262D01*
X56016Y245259D01*
X56015Y245259D01*
X56017Y245256D01*
X56018Y245253D01*
X56012Y245250D01*
X55812Y244250D01*
X55815Y244243D01*
X55811Y244240D01*
X55811Y216240D01*
X55832Y216212D01*
X55833Y216199D01*
X56133Y215999D01*
X56153Y216000D01*
X56160Y215991D01*
X65760Y215991D01*
X65776Y216003D01*
G37*
G36*
X58487Y111517D02*
X58487Y111517D01*
X58482Y111524D01*
X58489Y111530D01*
X58489Y114030D01*
X58468Y114058D01*
X58468Y114071D01*
X58439Y114091D01*
X58472Y114092D01*
X58471Y114114D01*
X58487Y114127D01*
X58487Y114128D01*
X58489Y114130D01*
X58489Y139930D01*
X58453Y139977D01*
X58446Y139972D01*
X58440Y139979D01*
X48240Y139979D01*
X48193Y139943D01*
X48198Y139936D01*
X48191Y139930D01*
X48191Y112030D01*
X48195Y112024D01*
X48192Y112020D01*
X48292Y111520D01*
X48336Y111481D01*
X48338Y111483D01*
X48340Y111481D01*
X58440Y111481D01*
X58487Y111517D01*
G37*
G36*
X232477Y100087D02*
X232477Y100087D01*
X232472Y100094D01*
X232479Y100100D01*
X232479Y128000D01*
X232475Y128006D01*
X232478Y128010D01*
X232378Y128510D01*
X232334Y128549D01*
X232332Y128547D01*
X232330Y128549D01*
X222230Y128549D01*
X222183Y128513D01*
X222188Y128506D01*
X222181Y128500D01*
X222181Y126000D01*
X222202Y125973D01*
X222202Y125959D01*
X222232Y125939D01*
X222198Y125938D01*
X222200Y125914D01*
X222181Y125900D01*
X222181Y100100D01*
X222217Y100053D01*
X222224Y100058D01*
X222230Y100051D01*
X232430Y100051D01*
X232477Y100087D01*
G37*
G36*
X58487Y165287D02*
X58487Y165287D01*
X58482Y165294D01*
X58489Y165300D01*
X58489Y190300D01*
X58453Y190347D01*
X58446Y190342D01*
X58440Y190349D01*
X48240Y190349D01*
X48193Y190313D01*
X48198Y190306D01*
X48191Y190300D01*
X48191Y165400D01*
X48227Y165353D01*
X48229Y165354D01*
X48230Y165352D01*
X48730Y165252D01*
X48737Y165255D01*
X48740Y165251D01*
X58440Y165251D01*
X58487Y165287D01*
G37*
G36*
X231207Y138617D02*
X231207Y138617D01*
X231202Y138624D01*
X231209Y138630D01*
X231209Y163530D01*
X231173Y163577D01*
X231171Y163576D01*
X231170Y163578D01*
X230670Y163678D01*
X230663Y163675D01*
X230660Y163679D01*
X220960Y163679D01*
X220913Y163643D01*
X220918Y163636D01*
X220911Y163630D01*
X220911Y138630D01*
X220947Y138583D01*
X220954Y138588D01*
X220960Y138581D01*
X231160Y138581D01*
X231207Y138617D01*
G37*
G36*
X212775Y189922D02*
X212775Y189922D01*
X212801Y189923D01*
X212855Y189953D01*
X212913Y189975D01*
X212930Y189994D01*
X212953Y190006D01*
X212988Y190057D01*
X213030Y190102D01*
X213038Y190127D01*
X213053Y190148D01*
X213069Y190232D01*
X213080Y190268D01*
X213078Y190278D01*
X213080Y190290D01*
X213080Y203990D01*
X213076Y204010D01*
X213077Y204037D01*
X212977Y204837D01*
X212969Y204861D01*
X212966Y204894D01*
X212766Y205594D01*
X212747Y205628D01*
X212726Y205686D01*
X212126Y206686D01*
X212106Y206706D01*
X212038Y206787D01*
X211538Y207187D01*
X211533Y207189D01*
X211528Y207194D01*
X211128Y207494D01*
X211093Y207509D01*
X211041Y207543D01*
X210541Y207743D01*
X210512Y207747D01*
X210475Y207763D01*
X209975Y207863D01*
X209969Y207863D01*
X209963Y207865D01*
X209363Y207965D01*
X209336Y207963D01*
X209300Y207970D01*
X208100Y207970D01*
X208085Y207967D01*
X208070Y207969D01*
X207938Y207932D01*
X207931Y207931D01*
X207931Y207930D01*
X207930Y207930D01*
X207554Y207742D01*
X207530Y207730D01*
X207511Y207714D01*
X207487Y207705D01*
X207445Y207659D01*
X207397Y207619D01*
X207387Y207597D01*
X207370Y207578D01*
X207352Y207518D01*
X207326Y207461D01*
X207328Y207436D01*
X207320Y207412D01*
X207331Y207350D01*
X207334Y207288D01*
X207346Y207266D01*
X207350Y207241D01*
X207399Y207168D01*
X207417Y207136D01*
X207425Y207131D01*
X207431Y207121D01*
X207531Y207021D01*
X207563Y207001D01*
X207630Y206950D01*
X208030Y206750D01*
X208053Y206744D01*
X208080Y206729D01*
X208295Y206658D01*
X208768Y206185D01*
X208820Y206028D01*
X208820Y205752D01*
X208755Y205559D01*
X208605Y205332D01*
X208086Y204814D01*
X207691Y204656D01*
X207262Y204570D01*
X206547Y204570D01*
X205856Y204743D01*
X205360Y205074D01*
X205039Y205475D01*
X204880Y205952D01*
X204880Y206521D01*
X205127Y207179D01*
X205769Y207821D01*
X205774Y207830D01*
X205784Y207837D01*
X206584Y208737D01*
X206585Y208739D01*
X206586Y208740D01*
X207286Y209540D01*
X207302Y209569D01*
X207332Y209605D01*
X207832Y210505D01*
X207843Y210543D01*
X207871Y210608D01*
X208071Y211508D01*
X208071Y211510D01*
X208072Y211512D01*
X208071Y211541D01*
X208080Y211590D01*
X208080Y212390D01*
X208072Y212427D01*
X208061Y212510D01*
X207761Y213410D01*
X207742Y213441D01*
X207722Y213492D01*
X207222Y214292D01*
X207201Y214313D01*
X207133Y214390D01*
X206233Y215090D01*
X206209Y215101D01*
X206182Y215124D01*
X205082Y215724D01*
X205063Y215729D01*
X205049Y215739D01*
X205016Y215746D01*
X204968Y215764D01*
X203868Y215964D01*
X203839Y215963D01*
X203800Y215970D01*
X202800Y215970D01*
X202767Y215963D01*
X202718Y215961D01*
X201818Y215761D01*
X201785Y215745D01*
X201730Y215730D01*
X201724Y215727D01*
X200964Y215347D01*
X200330Y215030D01*
X200308Y215012D01*
X200272Y214994D01*
X199872Y214694D01*
X199857Y214676D01*
X199831Y214659D01*
X199731Y214559D01*
X199718Y214537D01*
X199698Y214521D01*
X199672Y214464D01*
X199640Y214412D01*
X199637Y214386D01*
X199627Y214362D01*
X199629Y214301D01*
X199623Y214239D01*
X199632Y214215D01*
X199633Y214189D01*
X199663Y214135D01*
X199685Y214077D01*
X199704Y214060D01*
X199716Y214037D01*
X199767Y214002D01*
X199812Y213960D01*
X199837Y213952D01*
X199858Y213937D01*
X199942Y213921D01*
X199978Y213910D01*
X199988Y213912D01*
X200000Y213910D01*
X200100Y213910D01*
X200115Y213913D01*
X200130Y213911D01*
X200262Y213948D01*
X200269Y213949D01*
X200269Y213950D01*
X200270Y213950D01*
X200390Y214010D01*
X200853Y214010D01*
X201208Y213921D01*
X201216Y213921D01*
X201225Y213917D01*
X201676Y213827D01*
X201999Y213665D01*
X202320Y213425D01*
X202471Y213199D01*
X202548Y213044D01*
X202620Y212828D01*
X202620Y212337D01*
X202547Y212046D01*
X202205Y211532D01*
X201650Y210978D01*
X201280Y210701D01*
X201009Y210520D01*
X200777Y210404D01*
X200667Y210349D01*
X199953Y210170D01*
X199762Y210170D01*
X199605Y210222D01*
X199413Y210415D01*
X199352Y210536D01*
X199280Y210752D01*
X199280Y211590D01*
X199268Y211641D01*
X199267Y211685D01*
X199259Y211699D01*
X199255Y211726D01*
X199245Y211741D01*
X199241Y211759D01*
X199199Y211810D01*
X199184Y211837D01*
X199176Y211842D01*
X199158Y211870D01*
X199142Y211879D01*
X199131Y211892D01*
X199067Y211921D01*
X199055Y211928D01*
X199042Y211937D01*
X199038Y211938D01*
X199007Y211955D01*
X198989Y211956D01*
X198972Y211963D01*
X198916Y211961D01*
X198900Y211964D01*
X198890Y211964D01*
X198880Y211962D01*
X198834Y211964D01*
X198815Y211957D01*
X198799Y211957D01*
X198765Y211938D01*
X198744Y211930D01*
X198722Y211925D01*
X198714Y211918D01*
X198698Y211912D01*
X197898Y211412D01*
X197871Y211385D01*
X197816Y211343D01*
X197016Y210443D01*
X197003Y210420D01*
X196979Y210394D01*
X196279Y209294D01*
X196267Y209260D01*
X196239Y209210D01*
X195739Y207710D01*
X195737Y207688D01*
X195726Y207660D01*
X195426Y206060D01*
X195428Y206024D01*
X195420Y205968D01*
X195520Y204268D01*
X195529Y204237D01*
X195532Y204193D01*
X196032Y202293D01*
X196050Y202261D01*
X196068Y202205D01*
X197068Y200405D01*
X197085Y200387D01*
X197100Y200357D01*
X197800Y199457D01*
X197816Y199443D01*
X197831Y199421D01*
X198631Y198621D01*
X198641Y198615D01*
X198650Y198604D01*
X199450Y197904D01*
X199475Y197890D01*
X199504Y197864D01*
X200504Y197264D01*
X200529Y197256D01*
X200559Y197237D01*
X201559Y196837D01*
X201578Y196834D01*
X201600Y196823D01*
X202700Y196523D01*
X202717Y196523D01*
X202738Y196515D01*
X203938Y196315D01*
X203964Y196317D01*
X204000Y196310D01*
X205869Y196310D01*
X206366Y196227D01*
X207264Y195688D01*
X208221Y194732D01*
X209411Y193343D01*
X209422Y193335D01*
X209431Y193321D01*
X210619Y192133D01*
X211108Y191547D01*
X211120Y191537D01*
X211131Y191521D01*
X211598Y191054D01*
X211874Y190594D01*
X211899Y190568D01*
X211931Y190521D01*
X212431Y190021D01*
X212453Y190008D01*
X212469Y189988D01*
X212526Y189962D01*
X212578Y189930D01*
X212604Y189927D01*
X212628Y189917D01*
X212689Y189919D01*
X212751Y189913D01*
X212775Y189922D01*
G37*
G36*
X137708Y5900D02*
X137708Y5900D01*
X137791Y5903D01*
X137795Y5906D01*
X137799Y5906D01*
X137928Y5973D01*
X138428Y6373D01*
X138439Y6388D01*
X138459Y6401D01*
X138944Y6886D01*
X139928Y7673D01*
X139939Y7688D01*
X139959Y7701D01*
X140844Y8586D01*
X141328Y8973D01*
X141339Y8988D01*
X141359Y9001D01*
X141859Y9501D01*
X141899Y9566D01*
X141943Y9628D01*
X141945Y9640D01*
X141950Y9648D01*
X141954Y9685D01*
X141970Y9770D01*
X141970Y28170D01*
X141967Y28183D01*
X141969Y28197D01*
X141948Y28267D01*
X141931Y28339D01*
X141922Y28349D01*
X141918Y28362D01*
X141867Y28416D01*
X141821Y28472D01*
X141808Y28478D01*
X141799Y28488D01*
X141665Y28543D01*
X141173Y28641D01*
X140782Y28739D01*
X140774Y28739D01*
X140765Y28743D01*
X140265Y28843D01*
X140233Y28842D01*
X140190Y28850D01*
X139828Y28850D01*
X138873Y29041D01*
X138482Y29139D01*
X138474Y29139D01*
X138465Y29143D01*
X137965Y29243D01*
X137963Y29243D01*
X137962Y29243D01*
X137878Y29240D01*
X137791Y29237D01*
X137790Y29237D01*
X137789Y29237D01*
X137715Y29196D01*
X137639Y29155D01*
X137638Y29154D01*
X137637Y29154D01*
X137589Y29085D01*
X137538Y29014D01*
X137538Y29013D01*
X137537Y29012D01*
X137510Y28870D01*
X137510Y28154D01*
X137387Y28308D01*
X137364Y28325D01*
X137286Y28396D01*
X136286Y28996D01*
X136273Y29000D01*
X136260Y29010D01*
X135660Y29310D01*
X135622Y29319D01*
X135553Y29345D01*
X133753Y29645D01*
X133714Y29643D01*
X133643Y29647D01*
X132043Y29447D01*
X132009Y29435D01*
X131954Y29425D01*
X130654Y28925D01*
X130627Y28907D01*
X130586Y28891D01*
X129486Y28191D01*
X129462Y28167D01*
X129421Y28139D01*
X128521Y27239D01*
X128501Y27207D01*
X128462Y27162D01*
X127762Y25962D01*
X127754Y25936D01*
X127735Y25907D01*
X127235Y24607D01*
X127232Y24581D01*
X127218Y24550D01*
X126918Y23150D01*
X126919Y23117D01*
X126910Y23070D01*
X126910Y21670D01*
X126913Y21658D01*
X126911Y21643D01*
X127011Y20243D01*
X127014Y20231D01*
X127014Y20216D01*
X127214Y18816D01*
X127227Y18781D01*
X127239Y18724D01*
X127739Y17524D01*
X127755Y17501D01*
X127769Y17466D01*
X128469Y16366D01*
X128493Y16342D01*
X128521Y16301D01*
X129421Y15401D01*
X129445Y15386D01*
X129472Y15359D01*
X130472Y14659D01*
X130506Y14645D01*
X130554Y14615D01*
X131854Y14115D01*
X131892Y14110D01*
X131965Y14091D01*
X133465Y13991D01*
X133476Y13992D01*
X133490Y13990D01*
X134090Y13990D01*
X134116Y13996D01*
X134153Y13995D01*
X134753Y14095D01*
X134776Y14105D01*
X134810Y14109D01*
X136010Y14509D01*
X136039Y14527D01*
X136086Y14544D01*
X136586Y14844D01*
X136602Y14860D01*
X136628Y14873D01*
X137128Y15273D01*
X137139Y15288D01*
X137159Y15301D01*
X137310Y15452D01*
X137310Y6270D01*
X137311Y6266D01*
X137310Y6261D01*
X137330Y6181D01*
X137349Y6101D01*
X137352Y6098D01*
X137353Y6093D01*
X137407Y6031D01*
X137459Y5968D01*
X137464Y5966D01*
X137467Y5962D01*
X137543Y5930D01*
X137618Y5897D01*
X137622Y5897D01*
X137626Y5895D01*
X137708Y5900D01*
G37*
G36*
X232297Y172687D02*
X232297Y172687D01*
X232292Y172694D01*
X232299Y172700D01*
X232299Y182800D01*
X232263Y182847D01*
X232261Y182846D01*
X232260Y182848D01*
X231760Y182948D01*
X231753Y182945D01*
X231750Y182949D01*
X229750Y182949D01*
X229709Y182918D01*
X229704Y182916D01*
X229695Y182892D01*
X229676Y182942D01*
X229660Y182936D01*
X229650Y182949D01*
X212450Y182949D01*
X212429Y182933D01*
X212415Y182935D01*
X212115Y182635D01*
X212114Y182623D01*
X212106Y182622D01*
X209806Y178022D01*
X209809Y178006D01*
X209801Y178000D01*
X209801Y177600D01*
X209810Y177587D01*
X209806Y177578D01*
X212106Y172978D01*
X212116Y172973D01*
X212115Y172965D01*
X212415Y172665D01*
X212442Y172662D01*
X212450Y172651D01*
X232250Y172651D01*
X232297Y172687D01*
G37*
G36*
X121820Y13897D02*
X121820Y13897D01*
X121865Y13897D01*
X122328Y13990D01*
X122790Y13990D01*
X122805Y13993D01*
X122820Y13991D01*
X122952Y14028D01*
X122959Y14029D01*
X122959Y14030D01*
X122960Y14030D01*
X123323Y14211D01*
X123682Y14301D01*
X123712Y14317D01*
X123760Y14330D01*
X124480Y14690D01*
X124560Y14730D01*
X124576Y14743D01*
X124601Y14754D01*
X124901Y14954D01*
X124922Y14977D01*
X124959Y15001D01*
X125559Y15601D01*
X125571Y15621D01*
X125594Y15642D01*
X125894Y16042D01*
X125906Y16068D01*
X125930Y16100D01*
X126130Y16500D01*
X126138Y16533D01*
X126159Y16578D01*
X126359Y17378D01*
X126359Y17386D01*
X126363Y17395D01*
X126463Y17895D01*
X126462Y17927D01*
X126470Y17970D01*
X126470Y18470D01*
X126467Y18485D01*
X126469Y18504D01*
X126369Y19604D01*
X126358Y19638D01*
X126351Y19690D01*
X126051Y20590D01*
X126030Y20624D01*
X125999Y20691D01*
X125499Y21391D01*
X125479Y21409D01*
X125459Y21439D01*
X124859Y22039D01*
X124826Y22059D01*
X124779Y22100D01*
X124079Y22500D01*
X124053Y22508D01*
X124024Y22526D01*
X123224Y22826D01*
X123200Y22829D01*
X123173Y22841D01*
X122273Y23041D01*
X122256Y23041D01*
X122237Y23047D01*
X121455Y23145D01*
X120573Y23341D01*
X120554Y23341D01*
X120532Y23348D01*
X119633Y23448D01*
X118841Y23547D01*
X118178Y23642D01*
X117669Y23811D01*
X117362Y24042D01*
X117146Y24329D01*
X117070Y24708D01*
X117070Y24908D01*
X117151Y25150D01*
X117154Y25187D01*
X117160Y25218D01*
X117163Y25225D01*
X117163Y25233D01*
X117170Y25270D01*
X117170Y25380D01*
X117303Y25645D01*
X117515Y25858D01*
X117980Y26090D01*
X118090Y26090D01*
X118105Y26093D01*
X118120Y26091D01*
X118252Y26128D01*
X118259Y26129D01*
X118259Y26130D01*
X118260Y26130D01*
X118380Y26190D01*
X118990Y26190D01*
X119005Y26193D01*
X119020Y26191D01*
X119152Y26228D01*
X119159Y26229D01*
X119159Y26230D01*
X119160Y26230D01*
X119219Y26259D01*
X119370Y26209D01*
X119407Y26206D01*
X119490Y26190D01*
X119928Y26190D01*
X120170Y26109D01*
X120207Y26106D01*
X120290Y26090D01*
X120400Y26090D01*
X120665Y25958D01*
X121178Y25445D01*
X121310Y25180D01*
X121310Y24970D01*
X121313Y24955D01*
X121311Y24940D01*
X121348Y24808D01*
X121349Y24801D01*
X121350Y24801D01*
X121350Y24800D01*
X121410Y24680D01*
X121410Y24470D01*
X121421Y24420D01*
X121423Y24369D01*
X121441Y24337D01*
X121449Y24301D01*
X121482Y24262D01*
X121506Y24217D01*
X121536Y24196D01*
X121559Y24168D01*
X121606Y24147D01*
X121648Y24117D01*
X121690Y24109D01*
X121718Y24097D01*
X121748Y24098D01*
X121790Y24090D01*
X125690Y24090D01*
X125765Y24107D01*
X125842Y24121D01*
X125849Y24127D01*
X125859Y24129D01*
X125919Y24179D01*
X125981Y24225D01*
X125985Y24233D01*
X125992Y24239D01*
X126024Y24310D01*
X126059Y24379D01*
X126060Y24390D01*
X126063Y24398D01*
X126062Y24433D01*
X126066Y24524D01*
X125966Y25224D01*
X125963Y25233D01*
X125963Y25245D01*
X125863Y25745D01*
X125855Y25762D01*
X125854Y25778D01*
X125852Y25783D01*
X125851Y25790D01*
X125651Y26390D01*
X125633Y26419D01*
X125616Y26466D01*
X125316Y26966D01*
X125304Y26978D01*
X125294Y26998D01*
X124994Y27398D01*
X124976Y27413D01*
X124959Y27439D01*
X124559Y27839D01*
X124539Y27851D01*
X124518Y27874D01*
X123718Y28474D01*
X123702Y28481D01*
X123686Y28496D01*
X123186Y28796D01*
X123161Y28804D01*
X123131Y28823D01*
X122131Y29223D01*
X122098Y29228D01*
X122053Y29245D01*
X120253Y29545D01*
X120226Y29543D01*
X120190Y29550D01*
X117990Y29550D01*
X117964Y29544D01*
X117928Y29545D01*
X117359Y29450D01*
X116890Y29450D01*
X116860Y29443D01*
X116815Y29443D01*
X116315Y29343D01*
X116297Y29334D01*
X116270Y29331D01*
X115684Y29135D01*
X115298Y29039D01*
X115278Y29029D01*
X115249Y29023D01*
X114749Y28823D01*
X114737Y28815D01*
X114720Y28810D01*
X114460Y28680D01*
X114320Y28610D01*
X114298Y28592D01*
X114262Y28574D01*
X113862Y28274D01*
X113847Y28256D01*
X113821Y28239D01*
X113121Y27539D01*
X113119Y27535D01*
X113115Y27533D01*
X113037Y27411D01*
X112843Y26926D01*
X112650Y26540D01*
X112641Y26502D01*
X112615Y26433D01*
X112415Y25233D01*
X112417Y25206D01*
X112410Y25170D01*
X112410Y16260D01*
X112350Y16140D01*
X112346Y16125D01*
X112337Y16112D01*
X112311Y15978D01*
X112310Y15972D01*
X112310Y15971D01*
X112310Y15970D01*
X112310Y15660D01*
X112250Y15540D01*
X112246Y15525D01*
X112237Y15512D01*
X112211Y15378D01*
X112210Y15372D01*
X112210Y15371D01*
X112210Y15370D01*
X112210Y15360D01*
X112150Y15240D01*
X112146Y15225D01*
X112137Y15212D01*
X112111Y15078D01*
X112110Y15072D01*
X112110Y15071D01*
X112110Y15070D01*
X112110Y15060D01*
X112050Y14940D01*
X112046Y14925D01*
X112037Y14912D01*
X112011Y14778D01*
X112010Y14772D01*
X112010Y14771D01*
X112010Y14770D01*
X112010Y14670D01*
X112021Y14620D01*
X112023Y14569D01*
X112041Y14537D01*
X112049Y14501D01*
X112082Y14462D01*
X112106Y14417D01*
X112136Y14396D01*
X112159Y14368D01*
X112206Y14347D01*
X112248Y14317D01*
X112290Y14309D01*
X112318Y14297D01*
X112348Y14298D01*
X112390Y14290D01*
X116290Y14290D01*
X116340Y14301D01*
X116391Y14303D01*
X116423Y14321D01*
X116459Y14329D01*
X116498Y14362D01*
X116543Y14386D01*
X116564Y14416D01*
X116592Y14439D01*
X116613Y14486D01*
X116643Y14528D01*
X116651Y14570D01*
X116663Y14598D01*
X116662Y14628D01*
X116670Y14670D01*
X116670Y14719D01*
X116699Y14766D01*
X116743Y14828D01*
X116745Y14840D01*
X116750Y14848D01*
X116754Y14885D01*
X116756Y14899D01*
X116759Y14901D01*
X116799Y14966D01*
X116843Y15028D01*
X116845Y15040D01*
X116850Y15048D01*
X116854Y15085D01*
X116870Y15170D01*
X116870Y15193D01*
X117079Y15054D01*
X117115Y15040D01*
X117170Y15009D01*
X117422Y14925D01*
X117679Y14754D01*
X117699Y14746D01*
X117720Y14730D01*
X117899Y14641D01*
X118179Y14454D01*
X118215Y14440D01*
X118270Y14409D01*
X118570Y14309D01*
X118583Y14308D01*
X118598Y14301D01*
X118984Y14205D01*
X119270Y14109D01*
X119307Y14106D01*
X119390Y14090D01*
X119628Y14090D01*
X119870Y14009D01*
X119907Y14006D01*
X119990Y13990D01*
X120628Y13990D01*
X120870Y13909D01*
X120907Y13906D01*
X120990Y13890D01*
X121790Y13890D01*
X121820Y13897D01*
G37*
G36*
X90824Y14298D02*
X90824Y14298D01*
X90858Y14296D01*
X90907Y14317D01*
X90959Y14329D01*
X90985Y14351D01*
X91017Y14365D01*
X91062Y14415D01*
X91092Y14439D01*
X91100Y14456D01*
X91115Y14472D01*
X94763Y20459D01*
X95810Y19413D01*
X95810Y14670D01*
X95821Y14620D01*
X95823Y14569D01*
X95841Y14537D01*
X95849Y14501D01*
X95882Y14462D01*
X95906Y14417D01*
X95936Y14396D01*
X95959Y14368D01*
X96006Y14347D01*
X96048Y14317D01*
X96090Y14309D01*
X96118Y14297D01*
X96148Y14298D01*
X96190Y14290D01*
X99990Y14290D01*
X100040Y14301D01*
X100091Y14303D01*
X100123Y14321D01*
X100159Y14329D01*
X100198Y14362D01*
X100243Y14386D01*
X100264Y14416D01*
X100292Y14439D01*
X100313Y14486D01*
X100343Y14528D01*
X100351Y14570D01*
X100363Y14598D01*
X100362Y14628D01*
X100370Y14670D01*
X100370Y32070D01*
X100361Y32108D01*
X100362Y32147D01*
X100342Y32191D01*
X100331Y32239D01*
X100306Y32269D01*
X100290Y32304D01*
X100244Y32343D01*
X100221Y32372D01*
X100201Y32381D01*
X100181Y32399D01*
X96381Y34599D01*
X96320Y34617D01*
X96262Y34643D01*
X96238Y34642D01*
X96215Y34649D01*
X96153Y34639D01*
X96089Y34637D01*
X96068Y34625D01*
X96044Y34621D01*
X95993Y34584D01*
X95937Y34554D01*
X95923Y34534D01*
X95903Y34520D01*
X95874Y34464D01*
X95837Y34412D01*
X95832Y34385D01*
X95822Y34367D01*
X95821Y34329D01*
X95810Y34270D01*
X95810Y24715D01*
X91564Y29133D01*
X91497Y29177D01*
X91432Y29223D01*
X91424Y29224D01*
X91419Y29228D01*
X91386Y29232D01*
X91290Y29250D01*
X86690Y29250D01*
X86663Y29244D01*
X86636Y29246D01*
X86580Y29224D01*
X86521Y29211D01*
X86500Y29193D01*
X86474Y29183D01*
X86434Y29139D01*
X86388Y29101D01*
X86376Y29075D01*
X86358Y29055D01*
X86341Y28997D01*
X86317Y28942D01*
X86318Y28915D01*
X86310Y28888D01*
X86321Y28829D01*
X86323Y28769D01*
X86337Y28745D01*
X86342Y28718D01*
X86388Y28651D01*
X86406Y28617D01*
X86416Y28610D01*
X86424Y28599D01*
X91501Y23617D01*
X85772Y14878D01*
X85747Y14809D01*
X85717Y14742D01*
X85717Y14729D01*
X85713Y14716D01*
X85721Y14643D01*
X85723Y14569D01*
X85730Y14557D01*
X85731Y14544D01*
X85771Y14482D01*
X85806Y14417D01*
X85817Y14409D01*
X85825Y14398D01*
X85888Y14360D01*
X85948Y14317D01*
X85963Y14314D01*
X85973Y14308D01*
X86012Y14305D01*
X86090Y14290D01*
X90790Y14290D01*
X90824Y14298D01*
G37*
G36*
X51340Y14301D02*
X51340Y14301D01*
X51391Y14303D01*
X51423Y14321D01*
X51459Y14329D01*
X51498Y14362D01*
X51543Y14386D01*
X51564Y14416D01*
X51592Y14439D01*
X51613Y14486D01*
X51643Y14528D01*
X51651Y14570D01*
X51663Y14598D01*
X51662Y14628D01*
X51670Y14670D01*
X51670Y23443D01*
X51762Y24082D01*
X51938Y24610D01*
X52206Y25058D01*
X52462Y25398D01*
X52744Y25610D01*
X53794Y25785D01*
X55060Y25604D01*
X55436Y25379D01*
X55777Y24952D01*
X56038Y24517D01*
X56221Y23876D01*
X56410Y23028D01*
X56410Y14670D01*
X56421Y14620D01*
X56423Y14569D01*
X56441Y14537D01*
X56449Y14501D01*
X56482Y14462D01*
X56506Y14417D01*
X56536Y14396D01*
X56559Y14368D01*
X56606Y14347D01*
X56648Y14317D01*
X56690Y14309D01*
X56718Y14297D01*
X56748Y14298D01*
X56790Y14290D01*
X60690Y14290D01*
X60740Y14301D01*
X60791Y14303D01*
X60823Y14321D01*
X60859Y14329D01*
X60898Y14362D01*
X60943Y14386D01*
X60964Y14416D01*
X60992Y14439D01*
X61013Y14486D01*
X61043Y14528D01*
X61051Y14570D01*
X61063Y14598D01*
X61062Y14628D01*
X61070Y14670D01*
X61070Y27070D01*
X61068Y27079D01*
X61070Y27091D01*
X60970Y28891D01*
X60958Y28930D01*
X60957Y28971D01*
X60934Y29012D01*
X60921Y29057D01*
X60893Y29087D01*
X60874Y29123D01*
X60835Y29150D01*
X60803Y29185D01*
X60765Y29199D01*
X60732Y29223D01*
X60676Y29234D01*
X60642Y29247D01*
X60619Y29245D01*
X60590Y29250D01*
X56990Y29250D01*
X56940Y29239D01*
X56889Y29237D01*
X56857Y29219D01*
X56821Y29211D01*
X56782Y29178D01*
X56737Y29154D01*
X56716Y29124D01*
X56688Y29101D01*
X56667Y29054D01*
X56637Y29012D01*
X56629Y28970D01*
X56617Y28942D01*
X56618Y28912D01*
X56610Y28870D01*
X56610Y27929D01*
X56387Y28208D01*
X56364Y28225D01*
X56361Y28232D01*
X56345Y28243D01*
X56301Y28286D01*
X55701Y28686D01*
X55693Y28689D01*
X55686Y28696D01*
X55186Y28996D01*
X55153Y29006D01*
X55110Y29031D01*
X53910Y29431D01*
X53885Y29433D01*
X53853Y29445D01*
X52653Y29645D01*
X52614Y29643D01*
X52536Y29646D01*
X51136Y29446D01*
X51120Y29440D01*
X51098Y29439D01*
X49898Y29139D01*
X49864Y29122D01*
X49805Y29102D01*
X48905Y28602D01*
X48877Y28576D01*
X48821Y28539D01*
X48221Y27939D01*
X48201Y27906D01*
X48158Y27855D01*
X47658Y26955D01*
X47652Y26934D01*
X47637Y26911D01*
X47237Y25911D01*
X47231Y25873D01*
X47211Y25804D01*
X47111Y24704D01*
X47112Y24702D01*
X47111Y24699D01*
X47011Y23399D01*
X47013Y23386D01*
X47010Y23370D01*
X47010Y14670D01*
X47021Y14620D01*
X47023Y14569D01*
X47041Y14537D01*
X47049Y14501D01*
X47082Y14462D01*
X47106Y14417D01*
X47136Y14396D01*
X47159Y14368D01*
X47206Y14347D01*
X47248Y14317D01*
X47290Y14309D01*
X47318Y14297D01*
X47348Y14298D01*
X47390Y14290D01*
X51290Y14290D01*
X51340Y14301D01*
G37*
G36*
X72344Y14094D02*
X72344Y14094D01*
X72363Y14101D01*
X72390Y14103D01*
X73490Y14403D01*
X73522Y14420D01*
X73575Y14438D01*
X74475Y14938D01*
X74498Y14959D01*
X74537Y14981D01*
X75237Y15581D01*
X75254Y15604D01*
X75322Y15685D01*
X75822Y16585D01*
X75832Y16618D01*
X75854Y16661D01*
X76154Y17661D01*
X76155Y17680D01*
X76164Y17702D01*
X76364Y18802D01*
X76363Y18831D01*
X76370Y18870D01*
X76370Y28870D01*
X76359Y28920D01*
X76357Y28971D01*
X76339Y29003D01*
X76331Y29039D01*
X76298Y29078D01*
X76274Y29123D01*
X76244Y29144D01*
X76221Y29172D01*
X76174Y29193D01*
X76132Y29223D01*
X76090Y29231D01*
X76062Y29243D01*
X76032Y29242D01*
X75990Y29250D01*
X72090Y29250D01*
X72040Y29239D01*
X71989Y29237D01*
X71957Y29219D01*
X71921Y29211D01*
X71882Y29178D01*
X71837Y29154D01*
X71816Y29124D01*
X71788Y29101D01*
X71767Y29054D01*
X71737Y29012D01*
X71729Y28970D01*
X71717Y28942D01*
X71718Y28912D01*
X71710Y28870D01*
X71710Y20097D01*
X71618Y19458D01*
X71433Y18901D01*
X71266Y18484D01*
X70940Y18158D01*
X70631Y17926D01*
X70226Y17845D01*
X69590Y17754D01*
X68947Y17846D01*
X68424Y17933D01*
X68026Y18172D01*
X67592Y18606D01*
X67342Y19023D01*
X67164Y19644D01*
X67068Y20510D01*
X66970Y21489D01*
X66970Y28870D01*
X66959Y28920D01*
X66957Y28971D01*
X66939Y29003D01*
X66931Y29039D01*
X66898Y29078D01*
X66874Y29123D01*
X66844Y29144D01*
X66821Y29172D01*
X66774Y29193D01*
X66732Y29223D01*
X66690Y29231D01*
X66662Y29243D01*
X66632Y29242D01*
X66590Y29250D01*
X62790Y29250D01*
X62740Y29239D01*
X62689Y29237D01*
X62657Y29219D01*
X62621Y29211D01*
X62582Y29178D01*
X62537Y29154D01*
X62516Y29124D01*
X62488Y29101D01*
X62467Y29054D01*
X62437Y29012D01*
X62429Y28970D01*
X62417Y28942D01*
X62418Y28912D01*
X62410Y28870D01*
X62410Y14670D01*
X62421Y14620D01*
X62423Y14569D01*
X62441Y14537D01*
X62449Y14501D01*
X62482Y14462D01*
X62506Y14417D01*
X62536Y14396D01*
X62559Y14368D01*
X62606Y14347D01*
X62648Y14317D01*
X62690Y14309D01*
X62718Y14297D01*
X62748Y14298D01*
X62790Y14290D01*
X66490Y14290D01*
X66540Y14301D01*
X66591Y14303D01*
X66623Y14321D01*
X66659Y14329D01*
X66698Y14362D01*
X66743Y14386D01*
X66764Y14416D01*
X66792Y14439D01*
X66813Y14486D01*
X66843Y14528D01*
X66851Y14570D01*
X66863Y14598D01*
X66862Y14628D01*
X66870Y14670D01*
X66870Y15599D01*
X67136Y15386D01*
X67621Y14901D01*
X67652Y14882D01*
X67694Y14844D01*
X68194Y14544D01*
X68227Y14534D01*
X68270Y14509D01*
X69470Y14109D01*
X69495Y14107D01*
X69528Y14095D01*
X70128Y13995D01*
X70132Y13995D01*
X70136Y13994D01*
X70836Y13894D01*
X70875Y13897D01*
X70944Y13894D01*
X72344Y14094D01*
G37*
G36*
X150916Y13996D02*
X150916Y13996D01*
X150953Y13995D01*
X152153Y14195D01*
X152180Y14206D01*
X152220Y14213D01*
X153320Y14613D01*
X153336Y14623D01*
X153360Y14630D01*
X153680Y14790D01*
X154360Y15130D01*
X154382Y15148D01*
X154418Y15166D01*
X155218Y15766D01*
X155243Y15795D01*
X155290Y15837D01*
X155990Y16737D01*
X156006Y16772D01*
X156047Y16840D01*
X156447Y17940D01*
X156451Y17969D01*
X156465Y18008D01*
X156665Y19208D01*
X156660Y19289D01*
X156657Y19371D01*
X156654Y19375D01*
X156654Y19380D01*
X156613Y19451D01*
X156574Y19523D01*
X156570Y19526D01*
X156567Y19530D01*
X156499Y19576D01*
X156432Y19623D01*
X156427Y19624D01*
X156423Y19626D01*
X156395Y19630D01*
X156290Y19650D01*
X152590Y19650D01*
X152571Y19646D01*
X152551Y19648D01*
X152487Y19626D01*
X152421Y19611D01*
X152406Y19598D01*
X152387Y19592D01*
X152340Y19544D01*
X152288Y19501D01*
X152279Y19482D01*
X152266Y19468D01*
X152228Y19368D01*
X152217Y19342D01*
X152217Y19338D01*
X152215Y19333D01*
X152124Y18789D01*
X151950Y18440D01*
X151947Y18426D01*
X151937Y18411D01*
X151777Y18010D01*
X151502Y17804D01*
X150581Y17436D01*
X150121Y17344D01*
X149606Y17258D01*
X149282Y17339D01*
X149246Y17339D01*
X149190Y17350D01*
X148863Y17350D01*
X148431Y17523D01*
X148409Y17526D01*
X148382Y17539D01*
X148084Y17613D01*
X147603Y18095D01*
X147470Y18360D01*
X147470Y18723D01*
X147543Y19014D01*
X147686Y19228D01*
X147926Y19468D01*
X148343Y19718D01*
X149684Y20101D01*
X150568Y20298D01*
X151565Y20497D01*
X151589Y20508D01*
X151624Y20514D01*
X152403Y20806D01*
X153182Y21001D01*
X153199Y21010D01*
X153224Y21014D01*
X154024Y21314D01*
X154045Y21329D01*
X154079Y21340D01*
X154779Y21740D01*
X154807Y21766D01*
X154859Y21801D01*
X155859Y22801D01*
X155863Y22808D01*
X155870Y22813D01*
X155946Y22937D01*
X156246Y23737D01*
X156251Y23772D01*
X156253Y23779D01*
X156264Y23804D01*
X156264Y23812D01*
X156267Y23823D01*
X156367Y24623D01*
X156363Y24661D01*
X156366Y24728D01*
X156166Y26028D01*
X156153Y26060D01*
X156143Y26111D01*
X155743Y27111D01*
X155722Y27141D01*
X155679Y27217D01*
X155079Y27917D01*
X155064Y27928D01*
X155062Y27932D01*
X155047Y27943D01*
X155018Y27974D01*
X154218Y28574D01*
X154197Y28583D01*
X154175Y28602D01*
X153275Y29102D01*
X153242Y29112D01*
X153199Y29134D01*
X152199Y29434D01*
X152168Y29436D01*
X152124Y29449D01*
X151024Y29549D01*
X151023Y29549D01*
X151022Y29549D01*
X149822Y29649D01*
X149794Y29645D01*
X149756Y29649D01*
X147556Y29449D01*
X147525Y29439D01*
X147481Y29434D01*
X146481Y29134D01*
X146452Y29118D01*
X146405Y29102D01*
X145505Y28602D01*
X145489Y28587D01*
X145462Y28574D01*
X144662Y27974D01*
X144641Y27949D01*
X144604Y27920D01*
X143904Y27120D01*
X143888Y27090D01*
X143837Y27011D01*
X143437Y26011D01*
X143432Y25980D01*
X143416Y25938D01*
X143216Y24838D01*
X143220Y24753D01*
X143223Y24669D01*
X143224Y24667D01*
X143225Y24665D01*
X143266Y24590D01*
X143306Y24517D01*
X143308Y24516D01*
X143309Y24514D01*
X143381Y24465D01*
X143448Y24417D01*
X143450Y24417D01*
X143452Y24416D01*
X143469Y24413D01*
X143590Y24390D01*
X147290Y24390D01*
X147303Y24393D01*
X147317Y24391D01*
X147387Y24412D01*
X147459Y24429D01*
X147469Y24438D01*
X147482Y24442D01*
X147536Y24493D01*
X147592Y24539D01*
X147598Y24552D01*
X147608Y24561D01*
X147663Y24695D01*
X147761Y25187D01*
X147833Y25476D01*
X148315Y25958D01*
X148623Y26111D01*
X148973Y26199D01*
X149428Y26290D01*
X150228Y26290D01*
X150470Y26209D01*
X150507Y26206D01*
X150590Y26190D01*
X150928Y26190D01*
X151122Y26125D01*
X151571Y25826D01*
X151625Y25664D01*
X151700Y25361D01*
X151634Y25029D01*
X151418Y24742D01*
X151111Y24511D01*
X150577Y24333D01*
X149214Y23944D01*
X148443Y23847D01*
X148424Y23840D01*
X148398Y23839D01*
X147602Y23640D01*
X146708Y23441D01*
X146687Y23431D01*
X146657Y23426D01*
X145857Y23126D01*
X145850Y23122D01*
X145840Y23120D01*
X145140Y22820D01*
X145125Y22808D01*
X145101Y22800D01*
X144401Y22400D01*
X144381Y22381D01*
X144347Y22362D01*
X143747Y21862D01*
X143723Y21831D01*
X143718Y21826D01*
X143717Y21825D01*
X143674Y21781D01*
X143274Y21181D01*
X143261Y21148D01*
X143234Y21104D01*
X142934Y20304D01*
X142929Y20267D01*
X142912Y20212D01*
X142812Y19312D01*
X142816Y19282D01*
X142811Y19241D01*
X142911Y17941D01*
X142911Y17940D01*
X142950Y17800D01*
X143450Y16800D01*
X143463Y16784D01*
X143474Y16759D01*
X144074Y15859D01*
X144099Y15835D01*
X144162Y15766D01*
X144962Y15166D01*
X144988Y15154D01*
X145020Y15130D01*
X146020Y14630D01*
X146039Y14625D01*
X146060Y14613D01*
X147160Y14213D01*
X147189Y14209D01*
X147228Y14195D01*
X148428Y13995D01*
X148454Y13997D01*
X148490Y13990D01*
X150890Y13990D01*
X150916Y13996D01*
G37*
G36*
X83740Y14301D02*
X83740Y14301D01*
X83791Y14303D01*
X83823Y14321D01*
X83859Y14329D01*
X83898Y14362D01*
X83943Y14386D01*
X83964Y14416D01*
X83992Y14439D01*
X84013Y14486D01*
X84043Y14528D01*
X84051Y14570D01*
X84063Y14598D01*
X84062Y14628D01*
X84070Y14670D01*
X84070Y25890D01*
X87490Y25890D01*
X87515Y25896D01*
X87541Y25893D01*
X87599Y25915D01*
X87659Y25929D01*
X87679Y25946D01*
X87703Y25955D01*
X87745Y26000D01*
X87792Y26039D01*
X87803Y26063D01*
X87820Y26082D01*
X87838Y26141D01*
X87863Y26198D01*
X87862Y26223D01*
X87870Y26248D01*
X87859Y26309D01*
X87857Y26371D01*
X87844Y26393D01*
X87840Y26419D01*
X87792Y26490D01*
X87774Y26523D01*
X87766Y26529D01*
X87759Y26539D01*
X87159Y27139D01*
X87139Y27151D01*
X87118Y27174D01*
X86762Y27442D01*
X86494Y27798D01*
X86476Y27813D01*
X86459Y27839D01*
X85859Y28439D01*
X85839Y28451D01*
X85818Y28474D01*
X85462Y28742D01*
X85194Y29098D01*
X85182Y29109D01*
X85174Y29123D01*
X85116Y29164D01*
X85061Y29209D01*
X85046Y29213D01*
X85032Y29223D01*
X84905Y29247D01*
X84893Y29250D01*
X84892Y29250D01*
X84890Y29250D01*
X84070Y29250D01*
X84070Y29970D01*
X84066Y29988D01*
X84068Y30012D01*
X83968Y30912D01*
X83960Y30933D01*
X83959Y30962D01*
X83759Y31762D01*
X83741Y31797D01*
X83720Y31859D01*
X83320Y32559D01*
X83301Y32579D01*
X83282Y32613D01*
X82782Y33213D01*
X82770Y33223D01*
X82759Y33239D01*
X82159Y33839D01*
X82152Y33843D01*
X82147Y33850D01*
X82024Y33926D01*
X81224Y34226D01*
X81212Y34228D01*
X81199Y34234D01*
X80199Y34534D01*
X80168Y34536D01*
X80124Y34549D01*
X79024Y34649D01*
X79009Y34647D01*
X78990Y34650D01*
X78190Y34650D01*
X78153Y34642D01*
X78070Y34631D01*
X77828Y34550D01*
X76890Y34550D01*
X76840Y34539D01*
X76789Y34537D01*
X76757Y34519D01*
X76721Y34511D01*
X76682Y34478D01*
X76637Y34454D01*
X76616Y34424D01*
X76588Y34401D01*
X76567Y34354D01*
X76537Y34312D01*
X76529Y34270D01*
X76517Y34242D01*
X76518Y34212D01*
X76510Y34170D01*
X76510Y31270D01*
X76521Y31220D01*
X76523Y31169D01*
X76541Y31137D01*
X76549Y31101D01*
X76582Y31062D01*
X76606Y31017D01*
X76636Y30996D01*
X76659Y30968D01*
X76706Y30947D01*
X76748Y30917D01*
X76790Y30909D01*
X76818Y30897D01*
X76848Y30898D01*
X76890Y30890D01*
X78628Y30890D01*
X79144Y30718D01*
X79179Y30700D01*
X79229Y30550D01*
X79242Y30530D01*
X79250Y30500D01*
X79331Y30337D01*
X79410Y30023D01*
X79410Y29250D01*
X77090Y29250D01*
X77040Y29239D01*
X76989Y29237D01*
X76957Y29219D01*
X76921Y29211D01*
X76882Y29178D01*
X76837Y29154D01*
X76816Y29124D01*
X76788Y29101D01*
X76767Y29054D01*
X76737Y29012D01*
X76729Y28970D01*
X76717Y28942D01*
X76718Y28912D01*
X76710Y28870D01*
X76710Y26270D01*
X76721Y26220D01*
X76723Y26169D01*
X76741Y26137D01*
X76749Y26101D01*
X76782Y26062D01*
X76806Y26017D01*
X76836Y25996D01*
X76859Y25968D01*
X76906Y25947D01*
X76948Y25917D01*
X76990Y25909D01*
X77018Y25897D01*
X77048Y25898D01*
X77090Y25890D01*
X79410Y25890D01*
X79410Y14670D01*
X79421Y14620D01*
X79423Y14569D01*
X79441Y14537D01*
X79449Y14501D01*
X79482Y14462D01*
X79506Y14417D01*
X79536Y14396D01*
X79559Y14368D01*
X79606Y14347D01*
X79648Y14317D01*
X79690Y14309D01*
X79718Y14297D01*
X79748Y14298D01*
X79790Y14290D01*
X83690Y14290D01*
X83740Y14301D01*
G37*
G36*
X110740Y14301D02*
X110740Y14301D01*
X110791Y14303D01*
X110823Y14321D01*
X110859Y14329D01*
X110898Y14362D01*
X110943Y14386D01*
X110964Y14416D01*
X110992Y14439D01*
X111013Y14486D01*
X111043Y14528D01*
X111051Y14570D01*
X111063Y14598D01*
X111062Y14628D01*
X111070Y14670D01*
X111070Y28170D01*
X111067Y28183D01*
X111069Y28197D01*
X111048Y28267D01*
X111031Y28339D01*
X111022Y28349D01*
X111018Y28362D01*
X110967Y28416D01*
X110921Y28472D01*
X110908Y28478D01*
X110899Y28488D01*
X110765Y28543D01*
X109773Y28741D01*
X109382Y28839D01*
X109346Y28839D01*
X109290Y28850D01*
X108828Y28850D01*
X108373Y28941D01*
X107982Y29039D01*
X107974Y29039D01*
X107965Y29043D01*
X107473Y29141D01*
X107082Y29239D01*
X107072Y29239D01*
X107062Y29243D01*
X106986Y29240D01*
X106909Y29242D01*
X106900Y29237D01*
X106889Y29237D01*
X106822Y29200D01*
X106753Y29167D01*
X106746Y29159D01*
X106737Y29154D01*
X106693Y29091D01*
X106645Y29031D01*
X106643Y29021D01*
X106637Y29012D01*
X106610Y28870D01*
X106610Y27526D01*
X106506Y27681D01*
X106484Y27702D01*
X106459Y27739D01*
X105959Y28239D01*
X105932Y28255D01*
X105901Y28286D01*
X104701Y29086D01*
X104665Y29100D01*
X104594Y29136D01*
X103194Y29536D01*
X103156Y29538D01*
X103090Y29550D01*
X101690Y29550D01*
X101616Y29533D01*
X101541Y29520D01*
X101531Y29513D01*
X101521Y29511D01*
X101492Y29487D01*
X101421Y29439D01*
X101321Y29339D01*
X101281Y29274D01*
X101237Y29212D01*
X101235Y29200D01*
X101230Y29192D01*
X101226Y29155D01*
X101210Y29070D01*
X101210Y25470D01*
X101221Y25420D01*
X101223Y25369D01*
X101241Y25337D01*
X101249Y25301D01*
X101282Y25262D01*
X101306Y25217D01*
X101336Y25196D01*
X101359Y25168D01*
X101406Y25147D01*
X101448Y25117D01*
X101490Y25109D01*
X101518Y25097D01*
X101548Y25098D01*
X101590Y25090D01*
X101690Y25090D01*
X101705Y25093D01*
X101720Y25091D01*
X101852Y25128D01*
X101859Y25129D01*
X101859Y25130D01*
X101860Y25130D01*
X101980Y25190D01*
X102971Y25190D01*
X103925Y25094D01*
X104634Y24917D01*
X105148Y24575D01*
X105669Y24053D01*
X106227Y22753D01*
X106410Y21928D01*
X106410Y14670D01*
X106421Y14620D01*
X106423Y14569D01*
X106441Y14537D01*
X106449Y14501D01*
X106482Y14462D01*
X106506Y14417D01*
X106536Y14396D01*
X106559Y14368D01*
X106606Y14347D01*
X106648Y14317D01*
X106690Y14309D01*
X106718Y14297D01*
X106748Y14298D01*
X106790Y14290D01*
X110690Y14290D01*
X110740Y14301D01*
G37*
G36*
X18651Y44129D02*
X18651Y44129D01*
X18658Y44124D01*
X19158Y44324D01*
X19168Y44340D01*
X19179Y44340D01*
X19479Y44740D01*
X19479Y44747D01*
X19481Y44748D01*
X19479Y44749D01*
X19479Y44762D01*
X19489Y44770D01*
X19489Y48470D01*
X19482Y48479D01*
X19487Y48486D01*
X19287Y49086D01*
X19280Y49090D01*
X19282Y49095D01*
X18982Y49595D01*
X18974Y49599D01*
X18975Y49605D01*
X18575Y50005D01*
X18566Y50006D01*
X18565Y50012D01*
X18065Y50312D01*
X18059Y50312D01*
X18058Y50316D01*
X17558Y50516D01*
X17551Y50514D01*
X17548Y50519D01*
X16948Y50619D01*
X16938Y50613D01*
X16932Y50619D01*
X16332Y50519D01*
X16328Y50514D01*
X16324Y50517D01*
X15724Y50317D01*
X15721Y50312D01*
X15718Y50314D01*
X15542Y50226D01*
X15065Y50512D01*
X15059Y50512D01*
X15058Y50516D01*
X14558Y50716D01*
X14551Y50714D01*
X14548Y50719D01*
X13948Y50819D01*
X13945Y50817D01*
X13943Y50819D01*
X13940Y50819D01*
X13340Y50819D01*
X13339Y50819D01*
X13330Y50813D01*
X13324Y50817D01*
X12724Y50617D01*
X12720Y50610D01*
X12715Y50612D01*
X12215Y50312D01*
X12213Y50308D01*
X12209Y50308D01*
X11709Y49908D01*
X11706Y49896D01*
X11698Y49895D01*
X11098Y48895D01*
X11100Y48877D01*
X11091Y48870D01*
X11091Y44570D01*
X11110Y44544D01*
X11110Y44531D01*
X11510Y44231D01*
X11526Y44231D01*
X11530Y44222D01*
X12030Y44122D01*
X12037Y44125D01*
X12040Y44121D01*
X18640Y44121D01*
X18651Y44129D01*
G37*
G36*
X18953Y77530D02*
X18953Y77530D01*
X18962Y77526D01*
X19362Y77726D01*
X19372Y77747D01*
X19379Y77752D01*
X19387Y77754D01*
X19587Y78354D01*
X19583Y78365D01*
X19589Y78370D01*
X19589Y80870D01*
X19585Y80876D01*
X19588Y80880D01*
X19489Y81378D01*
X19389Y81978D01*
X19379Y81987D01*
X19382Y81995D01*
X18782Y82995D01*
X18727Y83018D01*
X18722Y83004D01*
X18708Y83007D01*
X18251Y82611D01*
X18675Y83035D01*
X18683Y83094D01*
X18674Y83095D01*
X18675Y83105D01*
X18275Y83505D01*
X18266Y83506D01*
X18265Y83512D01*
X17765Y83812D01*
X17759Y83812D01*
X17758Y83816D01*
X17258Y84016D01*
X17251Y84014D01*
X17248Y84019D01*
X16648Y84119D01*
X16638Y84113D01*
X16632Y84119D01*
X15432Y83919D01*
X15423Y83909D01*
X15415Y83912D01*
X14426Y83319D01*
X14051Y83319D01*
X12960Y83815D01*
X12954Y83813D01*
X12952Y83818D01*
X12555Y83917D01*
X12058Y84116D01*
X12033Y84109D01*
X12022Y84116D01*
X11522Y83916D01*
X11509Y83894D01*
X11496Y83892D01*
X11196Y83292D01*
X11198Y83282D01*
X11191Y83278D01*
X11091Y82678D01*
X11104Y82653D01*
X11101Y82640D01*
X11401Y82240D01*
X11418Y82236D01*
X11421Y82225D01*
X12814Y81628D01*
X13391Y81147D01*
X13391Y79976D01*
X13302Y79619D01*
X12140Y79619D01*
X12135Y79616D01*
X12132Y79619D01*
X11532Y79519D01*
X11517Y79503D01*
X11505Y79505D01*
X11205Y79205D01*
X11202Y79182D01*
X11191Y79176D01*
X11091Y78376D01*
X11099Y78363D01*
X11093Y78354D01*
X11293Y77754D01*
X11315Y77739D01*
X11318Y77726D01*
X11718Y77526D01*
X11734Y77529D01*
X11740Y77521D01*
X18940Y77521D01*
X18953Y77530D01*
G37*
G36*
X14948Y93421D02*
X14948Y93421D01*
X14954Y93427D01*
X14958Y93424D01*
X15458Y93624D01*
X15461Y93629D01*
X15465Y93628D01*
X15965Y93928D01*
X15967Y93932D01*
X15971Y93932D01*
X16471Y94332D01*
X16474Y94344D01*
X16482Y94345D01*
X17082Y95345D01*
X17081Y95357D01*
X17088Y95360D01*
X17188Y95860D01*
X17185Y95868D01*
X17183Y95872D01*
X17189Y95878D01*
X17089Y96478D01*
X17084Y96482D01*
X17087Y96486D01*
X16887Y97086D01*
X16796Y97357D01*
X17175Y97735D01*
X17178Y97756D01*
X17189Y97762D01*
X17289Y98362D01*
X17281Y98377D01*
X17287Y98386D01*
X17087Y98986D01*
X17070Y98997D01*
X17070Y99009D01*
X16670Y99309D01*
X16648Y99309D01*
X16640Y99319D01*
X10640Y99319D01*
X10629Y99311D01*
X10622Y99316D01*
X10122Y99116D01*
X10116Y99107D01*
X10109Y99108D01*
X9609Y98708D01*
X9608Y98704D01*
X9605Y98705D01*
X9205Y98305D01*
X9204Y98296D01*
X9198Y98295D01*
X8598Y97295D01*
X8599Y97282D01*
X8591Y97278D01*
X8491Y96678D01*
X8494Y96673D01*
X8491Y96670D01*
X8491Y96070D01*
X8495Y96064D01*
X8492Y96060D01*
X8592Y95560D01*
X8595Y95557D01*
X8593Y95554D01*
X8793Y94954D01*
X8801Y94949D01*
X8799Y94943D01*
X9199Y94343D01*
X9206Y94340D01*
X9205Y94335D01*
X9605Y93935D01*
X9632Y93932D01*
X9640Y93921D01*
X10040Y93921D01*
X10053Y93930D01*
X10062Y93926D01*
X10662Y94226D01*
X10669Y94240D01*
X10679Y94240D01*
X10979Y94640D01*
X10979Y94675D01*
X10987Y94686D01*
X10787Y95286D01*
X10780Y95290D01*
X10782Y95295D01*
X10487Y95787D01*
X10391Y96365D01*
X10581Y96840D01*
X11061Y97224D01*
X11545Y97321D01*
X11821Y97321D01*
X11505Y97005D01*
X11503Y96989D01*
X11493Y96986D01*
X11293Y96386D01*
X11297Y96375D01*
X11291Y96370D01*
X11291Y95770D01*
X11295Y95764D01*
X11292Y95760D01*
X11392Y95260D01*
X11401Y95252D01*
X11398Y95245D01*
X11698Y94745D01*
X11702Y94743D01*
X11702Y94739D01*
X12102Y94239D01*
X12109Y94237D01*
X12109Y94232D01*
X12609Y93832D01*
X12614Y93831D01*
X12615Y93828D01*
X13115Y93528D01*
X13128Y93529D01*
X13132Y93521D01*
X14332Y93321D01*
X14342Y93327D01*
X14348Y93321D01*
X14948Y93421D01*
G37*
G36*
X18751Y155629D02*
X18751Y155629D01*
X18758Y155624D01*
X19258Y155824D01*
X19273Y155848D01*
X19286Y155852D01*
X19486Y156352D01*
X19482Y156365D01*
X19489Y156370D01*
X19489Y159370D01*
X19486Y159375D01*
X19489Y159378D01*
X19389Y159978D01*
X19379Y159987D01*
X19382Y159995D01*
X19083Y160493D01*
X18784Y161092D01*
X18774Y161097D01*
X18775Y161105D01*
X18375Y161505D01*
X18366Y161506D01*
X18365Y161512D01*
X17365Y162112D01*
X17362Y162112D01*
X17362Y162114D01*
X17162Y162214D01*
X17146Y162211D01*
X17140Y162219D01*
X16540Y162219D01*
X16535Y162216D01*
X16532Y162219D01*
X15332Y162019D01*
X15326Y162013D01*
X15322Y162016D01*
X14822Y161816D01*
X14816Y161807D01*
X14809Y161808D01*
X14309Y161408D01*
X14306Y161396D01*
X14298Y161395D01*
X13998Y160895D01*
X13698Y160396D01*
X13662Y160414D01*
X13604Y160403D01*
X13607Y160387D01*
X13592Y160380D01*
X13492Y159880D01*
X13492Y159879D01*
X13491Y159878D01*
X13391Y159278D01*
X13394Y159273D01*
X13391Y159270D01*
X13391Y158082D01*
X13210Y157719D01*
X12040Y157719D01*
X12035Y157716D01*
X12032Y157719D01*
X11432Y157619D01*
X11417Y157603D01*
X11405Y157605D01*
X11105Y157305D01*
X11102Y157278D01*
X11091Y157270D01*
X11091Y156470D01*
X11094Y156465D01*
X11091Y156462D01*
X11191Y155862D01*
X11216Y155839D01*
X11218Y155826D01*
X11618Y155626D01*
X11634Y155629D01*
X11640Y155621D01*
X18740Y155621D01*
X18751Y155629D01*
G37*
%LPC*%
G36*
X133688Y17742D02*
X133688Y17742D01*
X133072Y18006D01*
X132564Y18344D01*
X131843Y19426D01*
X131664Y20140D01*
X131568Y20913D01*
X131473Y21767D01*
X131662Y23278D01*
X131943Y24028D01*
X132218Y24669D01*
X132647Y25184D01*
X133172Y25534D01*
X133790Y25799D01*
X134493Y25887D01*
X135292Y25798D01*
X135908Y25534D01*
X136433Y25184D01*
X136862Y24669D01*
X137128Y24048D01*
X137510Y22523D01*
X137510Y20917D01*
X137137Y19426D01*
X136416Y18344D01*
X135908Y18006D01*
X135292Y17742D01*
X134490Y17653D01*
X133688Y17742D01*
G37*
%LPD*%
%LPC*%
G36*
X52945Y63469D02*
X52945Y63469D01*
X52456Y63567D01*
X52062Y63764D01*
X52059Y63763D01*
X52058Y63766D01*
X51564Y63963D01*
X51170Y64259D01*
X50775Y64555D01*
X50481Y64948D01*
X50183Y65443D01*
X49987Y65836D01*
X49888Y66330D01*
X49790Y66820D01*
X49888Y67310D01*
X50087Y68304D01*
X50283Y68697D01*
X50577Y69186D01*
X50970Y69481D01*
X51368Y69779D01*
X51863Y70077D01*
X52256Y70273D01*
X53245Y70471D01*
X53835Y70471D01*
X54324Y70373D01*
X54718Y70176D01*
X54721Y70177D01*
X54722Y70174D01*
X55220Y69975D01*
X55611Y69779D01*
X56003Y69388D01*
X56301Y68990D01*
X56597Y68596D01*
X56794Y68102D01*
X56797Y68100D01*
X56796Y68098D01*
X56991Y67708D01*
X56991Y67220D01*
X56998Y67211D01*
X56993Y67204D01*
X57089Y66917D01*
X56992Y66430D01*
X56893Y65934D01*
X56695Y65440D01*
X56498Y65046D01*
X56203Y64652D01*
X55808Y64257D01*
X55416Y63963D01*
X54922Y63766D01*
X54920Y63763D01*
X54918Y63764D01*
X54524Y63567D01*
X54035Y63469D01*
X52945Y63469D01*
G37*
%LPD*%
%LPC*%
G36*
X226835Y74309D02*
X226835Y74309D01*
X226346Y74407D01*
X225952Y74604D01*
X225949Y74603D01*
X225948Y74606D01*
X225450Y74805D01*
X225059Y75001D01*
X224667Y75392D01*
X224369Y75790D01*
X224073Y76184D01*
X223876Y76678D01*
X223873Y76680D01*
X223874Y76682D01*
X223679Y77072D01*
X223679Y77560D01*
X223672Y77569D01*
X223677Y77576D01*
X223581Y77863D01*
X223678Y78350D01*
X223777Y78846D01*
X223975Y79340D01*
X224172Y79734D01*
X224467Y80128D01*
X224862Y80523D01*
X225254Y80817D01*
X225748Y81014D01*
X225750Y81017D01*
X225752Y81016D01*
X226146Y81213D01*
X226635Y81311D01*
X227725Y81311D01*
X228214Y81213D01*
X228608Y81016D01*
X228611Y81017D01*
X228612Y81014D01*
X229106Y80817D01*
X229500Y80521D01*
X229895Y80225D01*
X230189Y79832D01*
X230487Y79337D01*
X230683Y78944D01*
X230782Y78450D01*
X230880Y77960D01*
X230782Y77470D01*
X230583Y76476D01*
X230387Y76083D01*
X230093Y75594D01*
X229700Y75299D01*
X229302Y75001D01*
X228807Y74703D01*
X228414Y74507D01*
X227425Y74309D01*
X226835Y74309D01*
G37*
%LPD*%
G36*
X16949Y179728D02*
X16949Y179728D01*
X16956Y179723D01*
X17556Y179923D01*
X17557Y179925D01*
X17558Y179924D01*
X18058Y180124D01*
X18064Y180133D01*
X18071Y180132D01*
X18571Y180532D01*
X18572Y180536D01*
X18575Y180535D01*
X18975Y180935D01*
X18976Y180940D01*
X18979Y180940D01*
X19279Y181340D01*
X19279Y181352D01*
X19287Y181354D01*
X19487Y181954D01*
X19485Y181960D01*
X19489Y181962D01*
X19589Y182562D01*
X19586Y182567D01*
X19589Y182570D01*
X19589Y183170D01*
X19586Y183175D01*
X19589Y183178D01*
X19489Y183778D01*
X19483Y183784D01*
X19486Y183788D01*
X19286Y184288D01*
X19277Y184294D01*
X19278Y184301D01*
X18878Y184801D01*
X18874Y184802D01*
X18875Y184805D01*
X18475Y185205D01*
X18466Y185206D01*
X18465Y185212D01*
X17965Y185512D01*
X17959Y185512D01*
X17958Y185516D01*
X17458Y185716D01*
X17456Y185715D01*
X17456Y185717D01*
X16856Y185917D01*
X16845Y185913D01*
X16840Y185919D01*
X16240Y185919D01*
X16235Y185916D01*
X16232Y185919D01*
X15632Y185819D01*
X15626Y185813D01*
X15622Y185816D01*
X15122Y185616D01*
X15116Y185607D01*
X15109Y185608D01*
X14109Y184808D01*
X14107Y184801D01*
X14102Y184801D01*
X13702Y184301D01*
X13701Y184296D01*
X13698Y184295D01*
X13398Y183795D01*
X13398Y183792D01*
X13396Y183792D01*
X13227Y183453D01*
X13189Y183490D01*
X13189Y185170D01*
X13186Y185175D01*
X13189Y185178D01*
X13089Y185778D01*
X13073Y185793D01*
X13075Y185805D01*
X12675Y186205D01*
X12648Y186209D01*
X12640Y186219D01*
X11440Y186219D01*
X11410Y186197D01*
X11398Y186195D01*
X11098Y185695D01*
X11100Y185677D01*
X11091Y185670D01*
X11091Y180370D01*
X11107Y180349D01*
X11105Y180335D01*
X11505Y179935D01*
X11519Y179933D01*
X11522Y179924D01*
X12022Y179724D01*
X12040Y179729D01*
X12048Y179721D01*
X12648Y179821D01*
X12654Y179827D01*
X12658Y179824D01*
X13158Y180024D01*
X13164Y180033D01*
X13171Y180032D01*
X13671Y180432D01*
X13674Y180444D01*
X13682Y180445D01*
X13982Y180945D01*
X14880Y182442D01*
X15277Y182937D01*
X15673Y183333D01*
X16161Y183724D01*
X16633Y183818D01*
X17205Y183532D01*
X17491Y183056D01*
X17491Y182484D01*
X17207Y182011D01*
X16632Y181819D01*
X16140Y181819D01*
X16125Y181808D01*
X16115Y181812D01*
X15615Y181512D01*
X15606Y181492D01*
X15594Y181488D01*
X15394Y180988D01*
X15399Y180971D01*
X15391Y180964D01*
X15491Y180164D01*
X15507Y180148D01*
X15505Y180135D01*
X15805Y179835D01*
X15825Y179832D01*
X15830Y179822D01*
X16330Y179722D01*
X16337Y179725D01*
X16340Y179721D01*
X16940Y179721D01*
X16949Y179728D01*
G37*
%LPC*%
G36*
X226539Y103849D02*
X226539Y103849D01*
X226048Y104046D01*
X225554Y104243D01*
X225160Y104539D01*
X224765Y104835D01*
X224469Y105230D01*
X224173Y105624D01*
X223977Y106114D01*
X223878Y106610D01*
X223779Y107105D01*
X223779Y109488D01*
X223963Y109856D01*
X224435Y109951D01*
X230025Y109951D01*
X230506Y109855D01*
X230784Y109576D01*
X230881Y108997D01*
X230781Y107002D01*
X230782Y107001D01*
X230781Y107000D01*
X230781Y106509D01*
X230585Y106020D01*
X230388Y105626D01*
X230091Y105230D01*
X229793Y104832D01*
X229402Y104442D01*
X228912Y104246D01*
X228910Y104243D01*
X228908Y104244D01*
X228510Y104045D01*
X228021Y103849D01*
X226539Y103849D01*
G37*
%LPD*%
%LPC*%
G36*
X50645Y130079D02*
X50645Y130079D01*
X50164Y130175D01*
X49886Y130454D01*
X49789Y131033D01*
X49889Y133028D01*
X49888Y133029D01*
X49889Y133030D01*
X49889Y133521D01*
X50085Y134010D01*
X50282Y134404D01*
X50579Y134800D01*
X50877Y135198D01*
X51268Y135588D01*
X51758Y135784D01*
X51760Y135787D01*
X51762Y135786D01*
X52160Y135985D01*
X52649Y136181D01*
X54131Y136181D01*
X54622Y135984D01*
X55116Y135787D01*
X55510Y135491D01*
X55905Y135195D01*
X56201Y134800D01*
X56497Y134406D01*
X56693Y133916D01*
X56792Y133420D01*
X56891Y132925D01*
X56891Y130542D01*
X56707Y130174D01*
X56235Y130079D01*
X50645Y130079D01*
G37*
%LPD*%
G36*
X12656Y203023D02*
X12656Y203023D01*
X12658Y203027D01*
X12661Y203026D01*
X18561Y205826D01*
X18563Y205829D01*
X18565Y205828D01*
X19065Y206128D01*
X19070Y206139D01*
X19078Y206139D01*
X19478Y206639D01*
X19479Y206647D01*
X19481Y206649D01*
X19479Y206652D01*
X19479Y206657D01*
X19489Y206662D01*
X19589Y207262D01*
X19580Y207279D01*
X19586Y207288D01*
X19386Y207788D01*
X19364Y207801D01*
X19362Y207814D01*
X18962Y208014D01*
X18961Y208014D01*
X12461Y211114D01*
X12452Y211113D01*
X12450Y211118D01*
X11950Y211218D01*
X11929Y211208D01*
X11918Y211214D01*
X11518Y211014D01*
X11509Y210996D01*
X11497Y210994D01*
X11097Y210294D01*
X11100Y210277D01*
X11091Y210270D01*
X11091Y209770D01*
X11104Y209752D01*
X11101Y209740D01*
X11401Y209340D01*
X11415Y209336D01*
X11416Y209327D01*
X12513Y208728D01*
X12891Y208445D01*
X12891Y205500D01*
X11918Y205014D01*
X11917Y205011D01*
X11915Y205012D01*
X11415Y204712D01*
X11408Y204697D01*
X11398Y204695D01*
X11098Y204195D01*
X11101Y204170D01*
X11092Y204160D01*
X11192Y203660D01*
X11202Y203651D01*
X11199Y203643D01*
X11599Y203043D01*
X11616Y203037D01*
X11618Y203026D01*
X12018Y202826D01*
X12044Y202831D01*
X12056Y202823D01*
X12656Y203023D01*
G37*
G36*
X12656Y145423D02*
X12656Y145423D01*
X12658Y145427D01*
X12661Y145426D01*
X18561Y148226D01*
X18563Y148229D01*
X18565Y148228D01*
X19065Y148528D01*
X19070Y148539D01*
X19078Y148539D01*
X19478Y149039D01*
X19479Y149047D01*
X19481Y149049D01*
X19479Y149052D01*
X19479Y149057D01*
X19489Y149062D01*
X19589Y149662D01*
X19580Y149679D01*
X19586Y149688D01*
X19386Y150188D01*
X19364Y150201D01*
X19362Y150214D01*
X18962Y150414D01*
X18961Y150414D01*
X12461Y153514D01*
X12452Y153513D01*
X12450Y153518D01*
X11950Y153618D01*
X11929Y153608D01*
X11918Y153614D01*
X11518Y153414D01*
X11509Y153396D01*
X11497Y153394D01*
X11097Y152694D01*
X11100Y152677D01*
X11091Y152670D01*
X11091Y152170D01*
X11104Y152152D01*
X11101Y152140D01*
X11401Y151740D01*
X11415Y151736D01*
X11416Y151727D01*
X12513Y151128D01*
X12891Y150845D01*
X12891Y147900D01*
X11918Y147414D01*
X11917Y147411D01*
X11915Y147412D01*
X11415Y147112D01*
X11408Y147097D01*
X11398Y147095D01*
X11098Y146595D01*
X11101Y146570D01*
X11092Y146560D01*
X11192Y146060D01*
X11202Y146051D01*
X11199Y146043D01*
X11599Y145443D01*
X11616Y145437D01*
X11618Y145426D01*
X12018Y145226D01*
X12044Y145231D01*
X12056Y145223D01*
X12656Y145423D01*
G37*
G36*
X13856Y163733D02*
X13856Y163733D01*
X13867Y163729D01*
X14167Y163929D01*
X14173Y163946D01*
X14183Y163954D01*
X14182Y163955D01*
X14187Y163956D01*
X14215Y164052D01*
X14229Y164101D01*
X14271Y164249D01*
X14313Y164397D01*
X14327Y164446D01*
X14369Y164594D01*
X14370Y164594D01*
X14369Y164594D01*
X14387Y164656D01*
X14384Y164666D01*
X14389Y164670D01*
X14389Y165370D01*
X14370Y165396D01*
X14370Y165409D01*
X13970Y165709D01*
X13960Y165709D01*
X13958Y165716D01*
X13476Y165909D01*
X13187Y166485D01*
X13091Y167066D01*
X13283Y167643D01*
X13656Y168017D01*
X14116Y167925D01*
X14494Y167547D01*
X14591Y166863D01*
X14593Y166862D01*
X14592Y166860D01*
X14692Y166360D01*
X14707Y166347D01*
X14705Y166335D01*
X15005Y166035D01*
X15028Y166032D01*
X15034Y166021D01*
X15834Y165921D01*
X15849Y165930D01*
X15858Y165924D01*
X16358Y166124D01*
X16371Y166146D01*
X16384Y166148D01*
X16584Y166548D01*
X16582Y166559D01*
X16583Y166560D01*
X16589Y166563D01*
X16688Y167257D01*
X16876Y167727D01*
X17316Y167815D01*
X17593Y167353D01*
X17689Y166778D01*
X17402Y166205D01*
X16915Y165912D01*
X16910Y165900D01*
X16901Y165900D01*
X16601Y165500D01*
X16601Y165478D01*
X16591Y165470D01*
X16591Y164870D01*
X16605Y164852D01*
X16602Y164839D01*
X17002Y164339D01*
X17014Y164336D01*
X17015Y164328D01*
X17515Y164028D01*
X17541Y164031D01*
X17552Y164022D01*
X17952Y164122D01*
X17957Y164128D01*
X17962Y164126D01*
X18562Y164426D01*
X18565Y164433D01*
X18571Y164432D01*
X19071Y164832D01*
X19074Y164844D01*
X19082Y164845D01*
X19382Y165345D01*
X19381Y165353D01*
X19387Y165354D01*
X19587Y165954D01*
X19585Y165959D01*
X19588Y165960D01*
X19688Y166460D01*
X19686Y166465D01*
X19687Y166465D01*
X19686Y166467D01*
X19689Y166470D01*
X19689Y168270D01*
X19674Y168290D01*
X19677Y168303D01*
X18877Y169203D01*
X18871Y169204D01*
X18871Y169208D01*
X18371Y169608D01*
X18360Y169609D01*
X18358Y169616D01*
X17858Y169816D01*
X17851Y169814D01*
X17848Y169819D01*
X17248Y169919D01*
X17243Y169916D01*
X17240Y169919D01*
X16640Y169919D01*
X16629Y169911D01*
X16622Y169916D01*
X16122Y169716D01*
X16114Y169704D01*
X16105Y169705D01*
X15720Y169319D01*
X15460Y169319D01*
X15075Y169705D01*
X15066Y169706D01*
X15065Y169712D01*
X14565Y170012D01*
X14552Y170011D01*
X14548Y170019D01*
X13948Y170119D01*
X13943Y170116D01*
X13940Y170119D01*
X13340Y170119D01*
X13331Y170112D01*
X13324Y170117D01*
X12724Y169917D01*
X12720Y169910D01*
X12715Y169912D01*
X12215Y169612D01*
X12211Y169604D01*
X12205Y169605D01*
X11805Y169205D01*
X11804Y169196D01*
X11798Y169195D01*
X11198Y168195D01*
X11199Y168182D01*
X11191Y168178D01*
X11091Y167578D01*
X11093Y167576D01*
X11093Y167575D01*
X11094Y167573D01*
X11091Y167570D01*
X11091Y166270D01*
X11095Y166264D01*
X11092Y166260D01*
X11192Y165760D01*
X11195Y165757D01*
X11193Y165754D01*
X11393Y165154D01*
X11403Y165148D01*
X11401Y165140D01*
X11701Y164740D01*
X11706Y164739D01*
X11705Y164735D01*
X12105Y164335D01*
X12109Y164335D01*
X12109Y164332D01*
X12609Y163932D01*
X12622Y163931D01*
X12624Y163923D01*
X13224Y163723D01*
X13235Y163727D01*
X13240Y163721D01*
X13840Y163721D01*
X13856Y163733D01*
G37*
G36*
X16945Y187924D02*
X16945Y187924D01*
X16948Y187921D01*
X17548Y188021D01*
X17554Y188027D01*
X17558Y188024D01*
X18058Y188224D01*
X18061Y188229D01*
X18065Y188228D01*
X18565Y188528D01*
X18569Y188536D01*
X18575Y188535D01*
X18975Y188935D01*
X18976Y188944D01*
X18982Y188945D01*
X19282Y189445D01*
X19282Y189451D01*
X19286Y189452D01*
X19486Y189952D01*
X19484Y189959D01*
X19489Y189962D01*
X19589Y190562D01*
X19586Y190566D01*
X19587Y190567D01*
X19587Y190568D01*
X19589Y190570D01*
X19589Y191270D01*
X19586Y191275D01*
X19589Y191278D01*
X19489Y191878D01*
X19479Y191887D01*
X19482Y191895D01*
X19182Y192395D01*
X19179Y192397D01*
X19179Y192400D01*
X18879Y192800D01*
X18874Y192801D01*
X18875Y192805D01*
X18475Y193205D01*
X18466Y193206D01*
X18465Y193212D01*
X17965Y193512D01*
X17959Y193512D01*
X17958Y193516D01*
X17458Y193716D01*
X17451Y193714D01*
X17448Y193719D01*
X16848Y193819D01*
X16843Y193816D01*
X16840Y193819D01*
X15540Y193819D01*
X15535Y193816D01*
X15532Y193819D01*
X14332Y193619D01*
X14326Y193613D01*
X14322Y193616D01*
X13822Y193416D01*
X13820Y193413D01*
X13818Y193414D01*
X13218Y193114D01*
X13215Y193108D01*
X13210Y193109D01*
X12810Y192809D01*
X12810Y192808D01*
X12809Y192808D01*
X12309Y192408D01*
X12308Y192404D01*
X12305Y192405D01*
X11905Y192005D01*
X11904Y191996D01*
X11898Y191995D01*
X11598Y191495D01*
X11598Y191489D01*
X11594Y191488D01*
X11194Y190488D01*
X11196Y190481D01*
X11191Y190478D01*
X11091Y189878D01*
X11094Y189873D01*
X11091Y189870D01*
X11091Y188570D01*
X11110Y188544D01*
X11110Y188531D01*
X11510Y188231D01*
X11528Y188231D01*
X11533Y188221D01*
X12233Y188121D01*
X12247Y188129D01*
X12256Y188123D01*
X12856Y188323D01*
X12868Y188342D01*
X12881Y188343D01*
X13081Y188643D01*
X13080Y188658D01*
X13089Y188663D01*
X13189Y189363D01*
X13186Y189368D01*
X13189Y189370D01*
X13189Y189962D01*
X13383Y190543D01*
X13773Y190933D01*
X14262Y191325D01*
X14565Y191400D01*
X14393Y190886D01*
X14399Y190870D01*
X14391Y190862D01*
X14591Y189662D01*
X14601Y189653D01*
X14598Y189645D01*
X14898Y189145D01*
X14901Y189143D01*
X14901Y189140D01*
X15201Y188740D01*
X15209Y188738D01*
X15209Y188732D01*
X15709Y188332D01*
X15714Y188331D01*
X15715Y188328D01*
X16215Y188028D01*
X16228Y188029D01*
X16232Y188021D01*
X16832Y187921D01*
X16837Y187924D01*
X16840Y187921D01*
X16940Y187921D01*
X16945Y187924D01*
G37*
%LPC*%
G36*
X63574Y225887D02*
X63574Y225887D01*
X58277Y227686D01*
X57791Y227881D01*
X57509Y228256D01*
X57509Y228731D01*
X57696Y229198D01*
X58072Y229292D01*
X58075Y229295D01*
X58077Y229294D01*
X60777Y230294D01*
X60782Y230301D01*
X60787Y230299D01*
X61087Y230499D01*
X61091Y230509D01*
X61101Y230512D01*
X61096Y230525D01*
X61107Y230555D01*
X61084Y230563D01*
X61076Y230587D01*
X58179Y231586D01*
X57795Y231778D01*
X57509Y232254D01*
X57509Y232724D01*
X57791Y233099D01*
X58277Y233294D01*
X63574Y235093D01*
X63949Y235187D01*
X64320Y234909D01*
X64607Y234239D01*
X64421Y233776D01*
X64041Y233586D01*
X61144Y232587D01*
X61141Y232582D01*
X61138Y232584D01*
X60738Y232384D01*
X60732Y232372D01*
X60719Y232368D01*
X60722Y232360D01*
X60716Y232355D01*
X60721Y232349D01*
X60712Y232331D01*
X60736Y232319D01*
X60744Y232293D01*
X64037Y231196D01*
X64415Y230912D01*
X64509Y230348D01*
X64321Y229972D01*
X63937Y229684D01*
X61044Y228687D01*
X61041Y228682D01*
X61038Y228684D01*
X60838Y228584D01*
X60832Y228572D01*
X60819Y228567D01*
X60823Y228555D01*
X60812Y228531D01*
X60836Y228519D01*
X60845Y228493D01*
X64234Y227397D01*
X64511Y227120D01*
X64511Y226648D01*
X64318Y226070D01*
X63949Y225793D01*
X63574Y225887D01*
G37*
%LPD*%
G36*
X15047Y171726D02*
X15047Y171726D01*
X15053Y171722D01*
X18453Y172622D01*
X18454Y172624D01*
X18456Y172623D01*
X19056Y172823D01*
X19062Y172833D01*
X19070Y172831D01*
X19470Y173131D01*
X19479Y173162D01*
X19489Y173170D01*
X19489Y173770D01*
X19482Y173779D01*
X19487Y173786D01*
X19287Y174386D01*
X19273Y174395D01*
X19275Y174405D01*
X18875Y174805D01*
X18840Y174810D01*
X18830Y174818D01*
X18330Y174718D01*
X18329Y174717D01*
X18328Y174718D01*
X15478Y174030D01*
X15389Y174475D01*
X15389Y175637D01*
X15849Y175821D01*
X18840Y175821D01*
X18846Y175825D01*
X18850Y175822D01*
X19350Y175922D01*
X19382Y175959D01*
X19389Y175962D01*
X19489Y176562D01*
X19486Y176567D01*
X19489Y176570D01*
X19489Y177170D01*
X19478Y177185D01*
X19482Y177195D01*
X19182Y177695D01*
X19162Y177704D01*
X19158Y177716D01*
X18658Y177916D01*
X18645Y177912D01*
X18640Y177919D01*
X12040Y177919D01*
X12035Y177916D01*
X12032Y177919D01*
X11432Y177819D01*
X11414Y177800D01*
X11401Y177800D01*
X11101Y177400D01*
X11101Y177378D01*
X11091Y177370D01*
X11091Y176670D01*
X11095Y176664D01*
X11092Y176660D01*
X11192Y176160D01*
X11210Y176144D01*
X11210Y176131D01*
X11610Y175831D01*
X11632Y175831D01*
X11640Y175821D01*
X13398Y175821D01*
X13491Y175266D01*
X13491Y172270D01*
X13504Y172252D01*
X13501Y172240D01*
X13801Y171840D01*
X13826Y171833D01*
X13832Y171821D01*
X14432Y171721D01*
X14437Y171724D01*
X14440Y171721D01*
X15040Y171721D01*
X15047Y171726D01*
G37*
G36*
X14646Y113725D02*
X14646Y113725D01*
X14650Y113722D01*
X15150Y113822D01*
X15156Y113829D01*
X15162Y113826D01*
X15762Y114126D01*
X15767Y114136D01*
X15775Y114135D01*
X16675Y115035D01*
X16676Y115044D01*
X16682Y115045D01*
X16982Y115545D01*
X16981Y115557D01*
X16988Y115560D01*
X17088Y116060D01*
X17085Y116067D01*
X17089Y116070D01*
X17089Y116670D01*
X17082Y116679D01*
X17087Y116686D01*
X16887Y117286D01*
X16877Y117292D01*
X16879Y117300D01*
X16579Y117700D01*
X16574Y117701D01*
X16575Y117705D01*
X16523Y117757D01*
X16862Y117926D01*
X16874Y117950D01*
X16887Y117954D01*
X17087Y118554D01*
X17083Y118565D01*
X17089Y118570D01*
X17089Y119270D01*
X17076Y119288D01*
X17079Y119300D01*
X16779Y119700D01*
X16754Y119707D01*
X16748Y119719D01*
X16148Y119819D01*
X16143Y119816D01*
X16140Y119819D01*
X11940Y119819D01*
X11934Y119815D01*
X11930Y119818D01*
X11430Y119718D01*
X11414Y119700D01*
X11401Y119700D01*
X11101Y119300D01*
X11101Y119278D01*
X11091Y119270D01*
X11091Y118470D01*
X11096Y118463D01*
X11092Y118458D01*
X11192Y118058D01*
X11213Y118041D01*
X11215Y118028D01*
X11661Y117760D01*
X11305Y117405D01*
X11303Y117391D01*
X11294Y117388D01*
X11094Y116888D01*
X11095Y116887D01*
X11094Y116886D01*
X11096Y116884D01*
X11098Y116875D01*
X11091Y116870D01*
X11091Y116170D01*
X11095Y116164D01*
X11092Y116160D01*
X11192Y115660D01*
X11197Y115656D01*
X11194Y115652D01*
X11394Y115152D01*
X11403Y115146D01*
X11402Y115139D01*
X11802Y114639D01*
X11809Y114637D01*
X11809Y114632D01*
X12309Y114232D01*
X12314Y114231D01*
X12315Y114228D01*
X12815Y113928D01*
X12823Y113929D01*
X12824Y113923D01*
X13424Y113723D01*
X13435Y113727D01*
X13440Y113721D01*
X14640Y113721D01*
X14646Y113725D01*
G37*
G36*
X15663Y128038D02*
X15663Y128038D01*
X15677Y128037D01*
X16477Y128937D01*
X16477Y128944D01*
X16482Y128945D01*
X17082Y129945D01*
X17082Y129951D01*
X17086Y129952D01*
X17286Y130452D01*
X17284Y130459D01*
X17289Y130462D01*
X17389Y131062D01*
X17383Y131072D01*
X17389Y131078D01*
X17189Y132278D01*
X17183Y132284D01*
X17186Y132288D01*
X16986Y132788D01*
X16977Y132794D01*
X16978Y132801D01*
X16578Y133301D01*
X16574Y133302D01*
X16575Y133305D01*
X16175Y133705D01*
X16166Y133706D01*
X16165Y133712D01*
X15665Y134012D01*
X15657Y134011D01*
X15656Y134017D01*
X15056Y134217D01*
X15050Y134215D01*
X15048Y134219D01*
X14448Y134319D01*
X14443Y134316D01*
X14440Y134319D01*
X13840Y134319D01*
X13835Y134316D01*
X13832Y134319D01*
X13232Y134219D01*
X13223Y134209D01*
X13215Y134212D01*
X12215Y133612D01*
X12211Y133604D01*
X12205Y133605D01*
X11805Y133205D01*
X11805Y133201D01*
X11802Y133201D01*
X11402Y132701D01*
X11401Y132688D01*
X11393Y132686D01*
X11193Y132086D01*
X11195Y132081D01*
X11192Y132080D01*
X11092Y131580D01*
X11095Y131573D01*
X11091Y131570D01*
X11091Y130970D01*
X11094Y130965D01*
X11091Y130962D01*
X11191Y130362D01*
X11197Y130356D01*
X11194Y130352D01*
X11394Y129852D01*
X11438Y129826D01*
X11415Y129812D01*
X11392Y129757D01*
X11401Y129754D01*
X11398Y129745D01*
X11698Y129245D01*
X11706Y129241D01*
X11705Y129235D01*
X12105Y128835D01*
X12109Y128835D01*
X12109Y128832D01*
X12609Y128432D01*
X12620Y128431D01*
X12622Y128424D01*
X13122Y128224D01*
X13124Y128225D01*
X13124Y128223D01*
X13724Y128023D01*
X13735Y128027D01*
X13740Y128021D01*
X15640Y128021D01*
X15663Y128038D01*
G37*
%LPC*%
G36*
X57972Y237089D02*
X57972Y237089D01*
X57604Y237273D01*
X57510Y237741D01*
X57606Y238316D01*
X57884Y238595D01*
X58365Y238691D01*
X59360Y238691D01*
X59407Y238727D01*
X59407Y238728D01*
X59408Y238728D01*
X59508Y239128D01*
X59504Y239136D01*
X59509Y239140D01*
X59509Y240140D01*
X59488Y240168D01*
X59487Y240181D01*
X58887Y240581D01*
X58880Y240581D01*
X58879Y240585D01*
X57691Y241080D01*
X57416Y241447D01*
X57604Y241918D01*
X57897Y242405D01*
X58166Y242585D01*
X58640Y242395D01*
X59038Y242196D01*
X59041Y242197D01*
X59042Y242194D01*
X60042Y241794D01*
X60054Y241798D01*
X60069Y241798D01*
X60076Y241793D01*
X60376Y241893D01*
X60382Y241903D01*
X60390Y241901D01*
X60784Y242197D01*
X61274Y242393D01*
X61765Y242491D01*
X62255Y242491D01*
X62746Y242393D01*
X63236Y242197D01*
X63628Y241903D01*
X63921Y241610D01*
X64216Y241118D01*
X64413Y240625D01*
X64512Y240229D01*
X64611Y239736D01*
X64511Y237646D01*
X64418Y237180D01*
X64054Y237089D01*
X57972Y237089D01*
G37*
%LPD*%
G36*
X19351Y67329D02*
X19351Y67329D01*
X19358Y67324D01*
X19858Y67524D01*
X19873Y67548D01*
X19880Y67554D01*
X19878Y67556D01*
X19889Y67562D01*
X19989Y68162D01*
X19986Y68167D01*
X19989Y68170D01*
X19989Y68870D01*
X19976Y68888D01*
X19979Y68900D01*
X19679Y69300D01*
X19654Y69307D01*
X19648Y69319D01*
X19048Y69419D01*
X19043Y69416D01*
X19040Y69419D01*
X15532Y69419D01*
X15678Y69639D01*
X16575Y70535D01*
X16576Y70547D01*
X16584Y70548D01*
X16884Y71148D01*
X16881Y71164D01*
X16889Y71170D01*
X16889Y71670D01*
X16870Y71695D01*
X16871Y71708D01*
X16371Y72108D01*
X16366Y72109D01*
X16365Y72112D01*
X15865Y72412D01*
X15839Y72409D01*
X15828Y72418D01*
X15428Y72318D01*
X15416Y72303D01*
X15405Y72305D01*
X14905Y71805D01*
X14905Y71803D01*
X14903Y71803D01*
X14142Y70947D01*
X13079Y72300D01*
X13078Y72301D01*
X12678Y72801D01*
X12648Y72808D01*
X12640Y72819D01*
X12140Y72819D01*
X12127Y72810D01*
X12118Y72814D01*
X11518Y72514D01*
X11511Y72501D01*
X11502Y72501D01*
X11102Y72001D01*
X11101Y71978D01*
X11091Y71970D01*
X11091Y71570D01*
X11103Y71554D01*
X11099Y71543D01*
X11499Y70943D01*
X11506Y70940D01*
X11505Y70935D01*
X11803Y70637D01*
X12698Y69543D01*
X12760Y69419D01*
X11640Y69419D01*
X11622Y69406D01*
X11610Y69409D01*
X11210Y69109D01*
X11203Y69084D01*
X11191Y69077D01*
X11091Y68377D01*
X11096Y68369D01*
X11095Y68368D01*
X11096Y68367D01*
X11091Y68363D01*
X11191Y67663D01*
X11210Y67644D01*
X11210Y67631D01*
X11610Y67331D01*
X11632Y67331D01*
X11640Y67321D01*
X19340Y67321D01*
X19351Y67329D01*
G37*
%LPC*%
G36*
X216279Y174346D02*
X216279Y174346D01*
X216096Y174619D01*
X215999Y175105D01*
X215999Y180695D01*
X216094Y181167D01*
X216462Y181351D01*
X217045Y181351D01*
X217512Y181257D01*
X217601Y180992D01*
X217601Y177300D01*
X217609Y177289D01*
X217607Y177276D01*
X217620Y177274D01*
X217637Y177253D01*
X217658Y177269D01*
X217685Y177265D01*
X217785Y177365D01*
X217786Y177371D01*
X217790Y177371D01*
X220288Y180768D01*
X220679Y181159D01*
X221062Y181351D01*
X221638Y181351D01*
X222006Y181167D01*
X222101Y180695D01*
X222101Y174620D01*
X221826Y174346D01*
X221254Y174251D01*
X220685Y174440D01*
X220499Y174812D01*
X220499Y178300D01*
X220489Y178313D01*
X220490Y178329D01*
X220477Y178330D01*
X220463Y178347D01*
X220440Y178330D01*
X220411Y178330D01*
X217712Y174831D01*
X217322Y174344D01*
X216947Y174250D01*
X216279Y174346D01*
G37*
%LPD*%
G36*
X14445Y85624D02*
X14445Y85624D01*
X14448Y85621D01*
X15048Y85721D01*
X15054Y85727D01*
X15058Y85724D01*
X15558Y85924D01*
X15561Y85929D01*
X15565Y85928D01*
X16065Y86228D01*
X16067Y86232D01*
X16071Y86232D01*
X16571Y86632D01*
X16573Y86640D01*
X16579Y86640D01*
X16879Y87040D01*
X16879Y87047D01*
X16884Y87048D01*
X17184Y87648D01*
X17182Y87657D01*
X17188Y87660D01*
X17288Y88160D01*
X17287Y88162D01*
X17289Y88163D01*
X17389Y88863D01*
X17383Y88873D01*
X17389Y88878D01*
X17189Y90078D01*
X17179Y90087D01*
X17182Y90095D01*
X16882Y90595D01*
X16879Y90597D01*
X16879Y90600D01*
X16579Y91000D01*
X16571Y91002D01*
X16571Y91008D01*
X16071Y91408D01*
X16058Y91409D01*
X16056Y91417D01*
X15456Y91617D01*
X15445Y91613D01*
X15440Y91619D01*
X14240Y91619D01*
X14219Y91603D01*
X14205Y91605D01*
X13805Y91205D01*
X13803Y91191D01*
X13794Y91188D01*
X13594Y90688D01*
X13597Y90677D01*
X13591Y90672D01*
X13491Y88277D01*
X13413Y87966D01*
X13082Y88298D01*
X12889Y88779D01*
X12889Y89465D01*
X12988Y89957D01*
X13187Y90554D01*
X13176Y90587D01*
X13179Y90600D01*
X12879Y91000D01*
X12864Y91004D01*
X12862Y91014D01*
X12262Y91314D01*
X12246Y91311D01*
X12240Y91319D01*
X11840Y91319D01*
X11824Y91307D01*
X11813Y91311D01*
X11513Y91111D01*
X11506Y91091D01*
X11494Y91088D01*
X11294Y90588D01*
X11295Y90586D01*
X11293Y90586D01*
X11093Y89986D01*
X11097Y89975D01*
X11091Y89970D01*
X11091Y88370D01*
X11094Y88365D01*
X11091Y88362D01*
X11191Y87762D01*
X11197Y87756D01*
X11194Y87752D01*
X11394Y87252D01*
X11399Y87249D01*
X11398Y87245D01*
X11698Y86745D01*
X11706Y86741D01*
X11705Y86735D01*
X12105Y86335D01*
X12114Y86334D01*
X12115Y86328D01*
X12615Y86028D01*
X12618Y86028D01*
X12618Y86026D01*
X13218Y85726D01*
X13229Y85728D01*
X13232Y85721D01*
X13832Y85621D01*
X13837Y85624D01*
X13840Y85621D01*
X14440Y85621D01*
X14445Y85624D01*
G37*
%LPC*%
G36*
X50689Y180400D02*
X50689Y180400D01*
X50653Y180447D01*
X50646Y180442D01*
X50640Y180449D01*
X50256Y180449D01*
X49885Y180728D01*
X49791Y181295D01*
X49980Y181768D01*
X50255Y181951D01*
X53840Y181951D01*
X53851Y181959D01*
X53864Y181957D01*
X53866Y181970D01*
X53887Y181987D01*
X53871Y182008D01*
X53875Y182035D01*
X53475Y182435D01*
X53469Y182436D01*
X53469Y182440D01*
X50370Y184739D01*
X49885Y185127D01*
X49790Y185601D01*
X49886Y186176D01*
X50164Y186455D01*
X50645Y186551D01*
X56235Y186551D01*
X56707Y186456D01*
X56891Y186088D01*
X56891Y185505D01*
X56797Y185038D01*
X56532Y184949D01*
X52940Y184949D01*
X52893Y184913D01*
X52898Y184906D01*
X52891Y184900D01*
X52891Y184800D01*
X52910Y184774D01*
X52910Y184761D01*
X56209Y182262D01*
X56701Y181868D01*
X56891Y181488D01*
X56891Y181009D01*
X56704Y180542D01*
X56334Y180449D01*
X50740Y180449D01*
X50693Y180413D01*
X50697Y180407D01*
X50691Y180403D01*
X50689Y180378D01*
X50689Y180400D01*
G37*
%LPD*%
%LPC*%
G36*
X223165Y142379D02*
X223165Y142379D01*
X222693Y142474D01*
X222509Y142842D01*
X222509Y143425D01*
X222603Y143892D01*
X222868Y143981D01*
X226460Y143981D01*
X226507Y144017D01*
X226502Y144024D01*
X226509Y144030D01*
X226509Y144130D01*
X226490Y144156D01*
X226490Y144169D01*
X223191Y146668D01*
X222699Y147062D01*
X222509Y147442D01*
X222509Y147921D01*
X222696Y148388D01*
X223066Y148481D01*
X228660Y148481D01*
X228707Y148517D01*
X228703Y148523D01*
X228709Y148527D01*
X228711Y148552D01*
X228711Y148530D01*
X228747Y148483D01*
X228754Y148488D01*
X228760Y148481D01*
X229144Y148481D01*
X229515Y148202D01*
X229609Y147635D01*
X229420Y147163D01*
X229145Y146979D01*
X225560Y146979D01*
X225549Y146971D01*
X225536Y146973D01*
X225534Y146960D01*
X225513Y146943D01*
X225529Y146922D01*
X225525Y146895D01*
X225925Y146495D01*
X225931Y146494D01*
X225931Y146490D01*
X229030Y144191D01*
X229515Y143803D01*
X229610Y143329D01*
X229514Y142754D01*
X229236Y142475D01*
X228755Y142379D01*
X223165Y142379D01*
G37*
%LPD*%
%LPC*%
G36*
X229979Y111503D02*
X229979Y111503D01*
X229940Y111548D01*
X229935Y111543D01*
X229930Y111549D01*
X224342Y111549D01*
X223967Y111737D01*
X223779Y112112D01*
X223779Y112582D01*
X224253Y113151D01*
X227830Y113151D01*
X227834Y113154D01*
X227839Y113152D01*
X227844Y113162D01*
X227877Y113187D01*
X227865Y113203D01*
X227874Y113222D01*
X227774Y113422D01*
X227758Y113430D01*
X227757Y113441D01*
X227159Y113840D01*
X223971Y116231D01*
X223779Y116709D01*
X223779Y117184D01*
X224059Y117556D01*
X224436Y117651D01*
X230510Y117651D01*
X230781Y117380D01*
X230781Y116705D01*
X230688Y116240D01*
X230324Y116149D01*
X227330Y116149D01*
X227324Y116145D01*
X227320Y116148D01*
X226820Y116048D01*
X226812Y116039D01*
X226800Y116039D01*
X226800Y116025D01*
X226781Y116004D01*
X226800Y115987D01*
X226800Y115961D01*
X230398Y113263D01*
X230785Y112876D01*
X230880Y112399D01*
X230785Y111828D01*
X230414Y111549D01*
X230030Y111549D01*
X229983Y111513D01*
X229988Y111506D01*
X229981Y111500D01*
X229981Y111479D01*
X229979Y111503D01*
G37*
%LPD*%
%LPC*%
G36*
X50160Y122379D02*
X50160Y122379D01*
X49889Y122650D01*
X49889Y123325D01*
X49982Y123790D01*
X50346Y123881D01*
X53340Y123881D01*
X53346Y123885D01*
X53350Y123882D01*
X53850Y123982D01*
X53858Y123991D01*
X53870Y123991D01*
X53870Y124005D01*
X53889Y124026D01*
X53870Y124043D01*
X53870Y124069D01*
X50272Y126767D01*
X49885Y127154D01*
X49790Y127631D01*
X49885Y128202D01*
X50256Y128481D01*
X50640Y128481D01*
X50687Y128517D01*
X50682Y128524D01*
X50689Y128530D01*
X50689Y128551D01*
X50691Y128527D01*
X50730Y128482D01*
X50736Y128487D01*
X50740Y128481D01*
X56328Y128481D01*
X56703Y128293D01*
X56891Y127918D01*
X56891Y127448D01*
X56417Y126879D01*
X52840Y126879D01*
X52836Y126876D01*
X52831Y126878D01*
X52826Y126869D01*
X52793Y126843D01*
X52805Y126827D01*
X52796Y126808D01*
X52896Y126608D01*
X52912Y126600D01*
X52913Y126589D01*
X53511Y126190D01*
X56699Y123799D01*
X56891Y123321D01*
X56891Y122846D01*
X56611Y122474D01*
X56234Y122379D01*
X50160Y122379D01*
G37*
%LPD*%
%LPC*%
G36*
X58066Y218989D02*
X58066Y218989D01*
X57694Y219082D01*
X57509Y219452D01*
X57509Y220134D01*
X57600Y220498D01*
X58067Y220591D01*
X59065Y220691D01*
X59071Y220697D01*
X59076Y220693D01*
X59376Y220793D01*
X59406Y220837D01*
X59409Y220840D01*
X59409Y221934D01*
X59508Y222328D01*
X59507Y222330D01*
X59508Y222330D01*
X59607Y222826D01*
X59802Y223312D01*
X60491Y224001D01*
X60978Y224293D01*
X61470Y224392D01*
X61965Y224491D01*
X62451Y224491D01*
X62938Y224296D01*
X63430Y224001D01*
X64118Y223312D01*
X64314Y222822D01*
X64511Y222331D01*
X64511Y219844D01*
X64415Y219269D01*
X64141Y219086D01*
X63655Y218989D01*
X58066Y218989D01*
G37*
%LPD*%
%LPC*%
G36*
X224357Y174349D02*
X224357Y174349D01*
X223984Y174442D01*
X223799Y174812D01*
X223799Y175485D01*
X223984Y175762D01*
X224362Y175951D01*
X227450Y175951D01*
X227497Y175987D01*
X227497Y175988D01*
X227498Y175988D01*
X227598Y176388D01*
X227594Y176396D01*
X227599Y176400D01*
X227599Y176900D01*
X227563Y176947D01*
X227556Y176942D01*
X227550Y176949D01*
X225462Y176949D01*
X225084Y177138D01*
X224897Y177418D01*
X224801Y178092D01*
X224987Y178463D01*
X225362Y178651D01*
X227450Y178651D01*
X227493Y178683D01*
X227497Y178684D01*
X227597Y178984D01*
X227595Y178989D01*
X227597Y178991D01*
X227594Y178996D01*
X227599Y179000D01*
X227599Y179600D01*
X227563Y179647D01*
X227562Y179647D01*
X227562Y179648D01*
X227162Y179748D01*
X227154Y179744D01*
X227150Y179749D01*
X224165Y179749D01*
X223895Y179929D01*
X223799Y180508D01*
X223757Y180548D01*
X223756Y180549D01*
X223709Y180555D01*
X223795Y181072D01*
X224166Y181351D01*
X228738Y181351D01*
X229108Y181166D01*
X229201Y180794D01*
X229201Y174620D01*
X228926Y174345D01*
X228446Y174249D01*
X224357Y174349D01*
G37*
%LPD*%
%LPC*%
G36*
X227435Y119449D02*
X227435Y119449D01*
X226946Y119547D01*
X226574Y119733D01*
X226479Y120304D01*
X226479Y121888D01*
X226667Y122263D01*
X227042Y122451D01*
X227510Y122451D01*
X227783Y122178D01*
X227881Y121096D01*
X227921Y121052D01*
X227926Y121056D01*
X227930Y121051D01*
X228930Y121051D01*
X228968Y121080D01*
X228976Y121082D01*
X229176Y121582D01*
X229172Y121595D01*
X229179Y121600D01*
X229179Y122600D01*
X229170Y122613D01*
X229174Y122622D01*
X228974Y123022D01*
X228964Y123027D01*
X228965Y123035D01*
X228565Y123435D01*
X228560Y123436D01*
X228560Y123439D01*
X228160Y123739D01*
X228150Y123739D01*
X228148Y123746D01*
X227648Y123946D01*
X227642Y123944D01*
X227640Y123948D01*
X227140Y124048D01*
X227127Y124042D01*
X227120Y124048D01*
X226620Y123948D01*
X226616Y123943D01*
X226612Y123946D01*
X226112Y123746D01*
X226104Y123734D01*
X226095Y123735D01*
X225795Y123435D01*
X225794Y123430D01*
X225791Y123430D01*
X225491Y123030D01*
X225491Y123023D01*
X225486Y123022D01*
X225286Y122622D01*
X225288Y122613D01*
X225282Y122610D01*
X225182Y122110D01*
X225187Y122098D01*
X225181Y122092D01*
X225281Y121492D01*
X225288Y121486D01*
X225285Y121480D01*
X225678Y120596D01*
X225586Y120225D01*
X225202Y119842D01*
X224732Y119654D01*
X224362Y119839D01*
X224073Y120224D01*
X223876Y120718D01*
X223677Y121215D01*
X223579Y121606D01*
X223579Y122595D01*
X223677Y123086D01*
X223873Y123576D01*
X224169Y123970D01*
X224469Y124370D01*
X224469Y124430D01*
X224458Y124430D01*
X224458Y124441D01*
X224429Y124461D01*
X224462Y124462D01*
X224462Y124466D01*
X224465Y124465D01*
X224762Y124763D01*
X225158Y125059D01*
X225653Y125357D01*
X226046Y125553D01*
X226535Y125651D01*
X227625Y125651D01*
X228116Y125553D01*
X228610Y125355D01*
X229004Y125158D01*
X229400Y124861D01*
X229798Y124563D01*
X230189Y124171D01*
X230385Y123780D01*
X230584Y123282D01*
X230587Y123280D01*
X230586Y123278D01*
X230781Y122888D01*
X230781Y121205D01*
X230683Y120716D01*
X230488Y120326D01*
X230193Y119932D01*
X229902Y119642D01*
X229421Y119449D01*
X227435Y119449D01*
G37*
%LPD*%
%LPC*%
G36*
X53045Y114379D02*
X53045Y114379D01*
X52554Y114477D01*
X52060Y114675D01*
X51666Y114872D01*
X51270Y115169D01*
X50872Y115467D01*
X50481Y115859D01*
X50285Y116250D01*
X50086Y116748D01*
X50083Y116750D01*
X50084Y116752D01*
X49889Y117142D01*
X49889Y118825D01*
X49987Y119314D01*
X50182Y119704D01*
X50477Y120098D01*
X50768Y120388D01*
X51249Y120581D01*
X53235Y120581D01*
X53724Y120483D01*
X54096Y120297D01*
X54191Y119726D01*
X54191Y118142D01*
X54003Y117767D01*
X53628Y117579D01*
X53160Y117579D01*
X52887Y117852D01*
X52789Y118934D01*
X52749Y118978D01*
X52744Y118974D01*
X52740Y118979D01*
X51740Y118979D01*
X51702Y118950D01*
X51694Y118948D01*
X51494Y118448D01*
X51496Y118441D01*
X51493Y118438D01*
X51496Y118434D01*
X51491Y118430D01*
X51491Y117430D01*
X51500Y117417D01*
X51496Y117408D01*
X51696Y117008D01*
X51706Y117003D01*
X51705Y116995D01*
X52105Y116595D01*
X52110Y116594D01*
X52110Y116591D01*
X52510Y116291D01*
X52520Y116291D01*
X52522Y116284D01*
X53022Y116084D01*
X53028Y116086D01*
X53030Y116082D01*
X53530Y115982D01*
X53543Y115988D01*
X53550Y115982D01*
X54050Y116082D01*
X54054Y116087D01*
X54058Y116084D01*
X54558Y116284D01*
X54566Y116296D01*
X54575Y116295D01*
X54875Y116595D01*
X54876Y116600D01*
X54879Y116600D01*
X55179Y117000D01*
X55179Y117007D01*
X55184Y117008D01*
X55384Y117408D01*
X55382Y117417D01*
X55388Y117420D01*
X55488Y117920D01*
X55483Y117932D01*
X55489Y117938D01*
X55389Y118538D01*
X55382Y118544D01*
X55385Y118550D01*
X54992Y119435D01*
X55084Y119805D01*
X55468Y120188D01*
X55938Y120376D01*
X56308Y120191D01*
X56597Y119806D01*
X56794Y119312D01*
X56993Y118815D01*
X57091Y118424D01*
X57091Y117435D01*
X56993Y116944D01*
X56797Y116454D01*
X56501Y116060D01*
X56201Y115660D01*
X56201Y115600D01*
X56212Y115600D01*
X56212Y115589D01*
X56242Y115569D01*
X56208Y115568D01*
X56208Y115564D01*
X56205Y115565D01*
X55908Y115267D01*
X55512Y114971D01*
X55017Y114673D01*
X54624Y114477D01*
X54135Y114379D01*
X53045Y114379D01*
G37*
%LPD*%
G36*
X16145Y101224D02*
X16145Y101224D01*
X16148Y101221D01*
X16748Y101321D01*
X16763Y101337D01*
X16775Y101335D01*
X17075Y101635D01*
X17076Y101647D01*
X17081Y101651D01*
X17078Y101656D01*
X17079Y101662D01*
X17089Y101670D01*
X17089Y102470D01*
X17082Y102479D01*
X17087Y102486D01*
X16887Y103086D01*
X16857Y103106D01*
X16852Y103118D01*
X16452Y103218D01*
X16449Y103217D01*
X16448Y103219D01*
X15848Y103319D01*
X15843Y103316D01*
X15840Y103319D01*
X14048Y103319D01*
X13470Y103512D01*
X13189Y103886D01*
X13189Y104554D01*
X13474Y104933D01*
X13954Y105221D01*
X16340Y105221D01*
X16346Y105225D01*
X16350Y105222D01*
X16850Y105322D01*
X16873Y105348D01*
X16886Y105352D01*
X17086Y105852D01*
X17082Y105865D01*
X17089Y105870D01*
X17089Y106670D01*
X17081Y106681D01*
X17086Y106688D01*
X16886Y107188D01*
X16855Y107207D01*
X16850Y107218D01*
X16350Y107318D01*
X16343Y107315D01*
X16340Y107319D01*
X12040Y107319D01*
X12034Y107315D01*
X12030Y107318D01*
X11530Y107218D01*
X11520Y107207D01*
X11510Y107209D01*
X11110Y106909D01*
X11102Y106878D01*
X11091Y106870D01*
X11091Y106170D01*
X11094Y106166D01*
X11091Y106163D01*
X11191Y105463D01*
X11216Y105439D01*
X11218Y105426D01*
X11580Y105245D01*
X11495Y104991D01*
X11198Y104495D01*
X11199Y104489D01*
X11193Y104485D01*
X11196Y104482D01*
X11192Y104480D01*
X11092Y103980D01*
X11095Y103973D01*
X11091Y103970D01*
X11091Y103370D01*
X11098Y103361D01*
X11093Y103354D01*
X11293Y102754D01*
X11300Y102750D01*
X11298Y102745D01*
X11598Y102245D01*
X11609Y102240D01*
X11609Y102232D01*
X12109Y101832D01*
X12114Y101831D01*
X12115Y101828D01*
X12615Y101528D01*
X12621Y101528D01*
X12622Y101524D01*
X13122Y101324D01*
X13129Y101326D01*
X13132Y101321D01*
X13732Y101221D01*
X13737Y101224D01*
X13740Y101221D01*
X16140Y101221D01*
X16145Y101224D01*
G37*
G36*
X16145Y52524D02*
X16145Y52524D01*
X16148Y52521D01*
X16748Y52621D01*
X16763Y52637D01*
X16775Y52635D01*
X17075Y52935D01*
X17076Y52947D01*
X17081Y52951D01*
X17078Y52956D01*
X17079Y52962D01*
X17089Y52970D01*
X17089Y53770D01*
X17081Y53781D01*
X17086Y53788D01*
X16886Y54288D01*
X16864Y54301D01*
X16862Y54314D01*
X16462Y54514D01*
X16446Y54511D01*
X16440Y54519D01*
X14048Y54519D01*
X13473Y54711D01*
X13189Y55184D01*
X13189Y55756D01*
X13474Y56230D01*
X13950Y56421D01*
X16342Y56521D01*
X16347Y56524D01*
X16350Y56522D01*
X16850Y56622D01*
X16873Y56648D01*
X16886Y56652D01*
X17086Y57152D01*
X17082Y57165D01*
X17089Y57170D01*
X17089Y57970D01*
X17080Y57983D01*
X17084Y57992D01*
X16884Y58392D01*
X16862Y58403D01*
X16858Y58416D01*
X16358Y58616D01*
X16345Y58612D01*
X16340Y58619D01*
X12040Y58619D01*
X12034Y58615D01*
X12030Y58618D01*
X11530Y58518D01*
X11520Y58507D01*
X11510Y58509D01*
X11110Y58209D01*
X11102Y58178D01*
X11091Y58170D01*
X11091Y57370D01*
X11094Y57365D01*
X11091Y57362D01*
X11191Y56762D01*
X11216Y56739D01*
X11218Y56726D01*
X11580Y56545D01*
X11495Y56291D01*
X11198Y55795D01*
X11199Y55789D01*
X11193Y55785D01*
X11196Y55782D01*
X11192Y55780D01*
X11092Y55280D01*
X11095Y55273D01*
X11091Y55270D01*
X11091Y54570D01*
X11099Y54559D01*
X11094Y54552D01*
X11294Y54052D01*
X11299Y54049D01*
X11298Y54045D01*
X11598Y53545D01*
X11609Y53540D01*
X11609Y53532D01*
X12109Y53132D01*
X12114Y53131D01*
X12115Y53128D01*
X12615Y52828D01*
X12621Y52828D01*
X12622Y52824D01*
X13122Y52624D01*
X13129Y52626D01*
X13132Y52621D01*
X13732Y52521D01*
X13737Y52524D01*
X13740Y52521D01*
X16140Y52521D01*
X16145Y52524D01*
G37*
%LPC*%
G36*
X224242Y66409D02*
X224242Y66409D01*
X223867Y66597D01*
X223679Y66972D01*
X223679Y67544D01*
X223958Y67915D01*
X224435Y68011D01*
X227530Y68011D01*
X227536Y68015D01*
X227540Y68012D01*
X228040Y68112D01*
X228041Y68113D01*
X228042Y68112D01*
X228442Y68212D01*
X228451Y68223D01*
X228460Y68221D01*
X228860Y68521D01*
X228863Y68534D01*
X228872Y68535D01*
X229172Y69035D01*
X229170Y69053D01*
X229179Y69060D01*
X229179Y69560D01*
X229175Y69566D01*
X229178Y69570D01*
X229078Y70070D01*
X229067Y70080D01*
X229069Y70090D01*
X228769Y70490D01*
X228754Y70494D01*
X228752Y70504D01*
X228352Y70704D01*
X228349Y70703D01*
X228348Y70706D01*
X227848Y70906D01*
X227837Y70903D01*
X227833Y70908D01*
X227831Y70908D01*
X227830Y70909D01*
X224242Y70909D01*
X223867Y71097D01*
X223679Y71472D01*
X223679Y72048D01*
X223867Y72423D01*
X224242Y72611D01*
X227325Y72611D01*
X227820Y72512D01*
X227827Y72515D01*
X227830Y72511D01*
X228321Y72511D01*
X228810Y72315D01*
X229207Y72117D01*
X229702Y71819D01*
X230095Y71525D01*
X230388Y71134D01*
X230585Y70740D01*
X230781Y70251D01*
X230781Y68769D01*
X230586Y68282D01*
X230289Y67788D01*
X229993Y67392D01*
X229700Y67099D01*
X229207Y66803D01*
X228814Y66607D01*
X227825Y66409D01*
X224242Y66409D01*
G37*
%LPD*%
%LPC*%
G36*
X53345Y72169D02*
X53345Y72169D01*
X52850Y72268D01*
X52843Y72265D01*
X52840Y72269D01*
X52349Y72269D01*
X51860Y72465D01*
X51463Y72663D01*
X50968Y72961D01*
X50575Y73255D01*
X50282Y73646D01*
X50085Y74040D01*
X49889Y74529D01*
X49889Y76011D01*
X50084Y76498D01*
X50381Y76992D01*
X50677Y77388D01*
X50971Y77681D01*
X51463Y77977D01*
X51856Y78173D01*
X52845Y78371D01*
X56428Y78371D01*
X56803Y78183D01*
X56991Y77808D01*
X56991Y77236D01*
X56712Y76865D01*
X56235Y76769D01*
X53140Y76769D01*
X53134Y76765D01*
X53130Y76768D01*
X52630Y76668D01*
X52629Y76667D01*
X52628Y76668D01*
X52228Y76568D01*
X52219Y76557D01*
X52210Y76559D01*
X51810Y76259D01*
X51807Y76246D01*
X51798Y76245D01*
X51498Y75745D01*
X51500Y75727D01*
X51491Y75720D01*
X51491Y75220D01*
X51495Y75214D01*
X51492Y75210D01*
X51592Y74710D01*
X51603Y74700D01*
X51601Y74690D01*
X51901Y74290D01*
X51916Y74286D01*
X51918Y74276D01*
X52318Y74076D01*
X52321Y74077D01*
X52322Y74074D01*
X52822Y73874D01*
X52835Y73878D01*
X52840Y73871D01*
X56428Y73871D01*
X56803Y73683D01*
X56991Y73308D01*
X56991Y72732D01*
X56803Y72357D01*
X56428Y72169D01*
X53345Y72169D01*
G37*
%LPD*%
G36*
X16451Y121429D02*
X16451Y121429D01*
X16458Y121424D01*
X16958Y121624D01*
X16973Y121648D01*
X16980Y121654D01*
X16978Y121656D01*
X16989Y121662D01*
X17085Y122241D01*
X17355Y122421D01*
X18540Y122421D01*
X18553Y122430D01*
X18562Y122426D01*
X18962Y122626D01*
X18974Y122650D01*
X18987Y122654D01*
X19187Y123254D01*
X19182Y123270D01*
X19189Y123277D01*
X19089Y123977D01*
X19076Y123989D01*
X19079Y124000D01*
X18779Y124400D01*
X18755Y124406D01*
X18750Y124418D01*
X18250Y124518D01*
X18243Y124515D01*
X18240Y124519D01*
X17089Y124519D01*
X17089Y125570D01*
X17078Y125585D01*
X17082Y125595D01*
X16782Y126095D01*
X16754Y126107D01*
X16748Y126119D01*
X16148Y126219D01*
X16138Y126213D01*
X16133Y126219D01*
X15433Y126119D01*
X15418Y126103D01*
X15405Y126105D01*
X15105Y125805D01*
X15102Y125784D01*
X15091Y125778D01*
X14991Y125178D01*
X14997Y125168D01*
X14991Y125162D01*
X15084Y124609D01*
X14635Y124519D01*
X13452Y124519D01*
X13084Y124703D01*
X12989Y125278D01*
X12983Y125284D01*
X12986Y125288D01*
X12786Y125788D01*
X12754Y125807D01*
X12748Y125819D01*
X12148Y125919D01*
X12138Y125913D01*
X12133Y125919D01*
X11433Y125819D01*
X11414Y125800D01*
X11401Y125800D01*
X11101Y125400D01*
X11101Y125380D01*
X11093Y125374D01*
X11094Y125372D01*
X11091Y125370D01*
X11091Y124170D01*
X11098Y124161D01*
X11093Y124154D01*
X11293Y123554D01*
X11298Y123551D01*
X11296Y123548D01*
X11496Y123148D01*
X11510Y123141D01*
X11510Y123131D01*
X11910Y122831D01*
X11914Y122831D01*
X11915Y122828D01*
X12415Y122528D01*
X12428Y122529D01*
X12432Y122521D01*
X13032Y122421D01*
X13037Y122424D01*
X13040Y122421D01*
X14905Y122421D01*
X15193Y121554D01*
X15225Y121533D01*
X15230Y121522D01*
X15730Y121422D01*
X15737Y121425D01*
X15740Y121421D01*
X16440Y121421D01*
X16451Y121429D01*
G37*
G36*
X14345Y60124D02*
X14345Y60124D01*
X14348Y60121D01*
X14948Y60221D01*
X14952Y60226D01*
X14956Y60223D01*
X15556Y60423D01*
X15560Y60430D01*
X15565Y60428D01*
X16065Y60728D01*
X16069Y60736D01*
X16075Y60735D01*
X16475Y61135D01*
X16475Y61139D01*
X16478Y61139D01*
X16878Y61639D01*
X16879Y61652D01*
X16887Y61654D01*
X17087Y62254D01*
X17085Y62259D01*
X17088Y62260D01*
X17188Y62760D01*
X17188Y62761D01*
X17189Y62762D01*
X17289Y63362D01*
X17283Y63372D01*
X17289Y63378D01*
X17189Y63978D01*
X17184Y63982D01*
X17187Y63986D01*
X16987Y64586D01*
X16976Y64593D01*
X16978Y64601D01*
X16578Y65101D01*
X16570Y65103D01*
X16570Y65109D01*
X16170Y65409D01*
X16141Y65409D01*
X16130Y65418D01*
X15630Y65318D01*
X15624Y65311D01*
X15618Y65314D01*
X15018Y65014D01*
X15009Y64997D01*
X14998Y64995D01*
X14698Y64495D01*
X14700Y64471D01*
X14696Y64468D01*
X14698Y64466D01*
X14692Y64458D01*
X14792Y64058D01*
X14798Y64053D01*
X14796Y64048D01*
X15091Y63458D01*
X15091Y62884D01*
X14807Y62411D01*
X14232Y62219D01*
X13664Y62219D01*
X13286Y62691D01*
X13190Y63171D01*
X13287Y63753D01*
X13582Y64245D01*
X13579Y64271D01*
X13588Y64282D01*
X13488Y64682D01*
X13473Y64694D01*
X13475Y64705D01*
X12975Y65205D01*
X12959Y65207D01*
X12956Y65217D01*
X12356Y65417D01*
X12339Y65411D01*
X12330Y65418D01*
X11830Y65318D01*
X11813Y65298D01*
X11799Y65297D01*
X11399Y64697D01*
X11400Y64690D01*
X11394Y64688D01*
X11194Y64188D01*
X11196Y64181D01*
X11191Y64178D01*
X11091Y63578D01*
X11094Y63573D01*
X11091Y63570D01*
X11091Y62970D01*
X11095Y62964D01*
X11092Y62960D01*
X11192Y62460D01*
X11195Y62457D01*
X11193Y62454D01*
X11393Y61854D01*
X11400Y61850D01*
X11398Y61845D01*
X11698Y61345D01*
X11702Y61343D01*
X11702Y61339D01*
X12102Y60839D01*
X12114Y60836D01*
X12115Y60828D01*
X13115Y60228D01*
X13128Y60229D01*
X13132Y60221D01*
X13732Y60121D01*
X13737Y60124D01*
X13740Y60121D01*
X14340Y60121D01*
X14345Y60124D01*
G37*
%LPC*%
G36*
X223172Y153679D02*
X223172Y153679D01*
X222797Y153867D01*
X222414Y154632D01*
X222598Y155093D01*
X227180Y157185D01*
X227182Y157187D01*
X227184Y157187D01*
X227185Y157194D01*
X227209Y157238D01*
X227192Y157246D01*
X227195Y157265D01*
X226995Y157465D01*
X226981Y157467D01*
X226979Y157475D01*
X222984Y159174D01*
X222694Y159366D01*
X222413Y159742D01*
X222505Y160203D01*
X222538Y160186D01*
X222596Y160197D01*
X222595Y160204D01*
X222602Y160205D01*
X222895Y160692D01*
X223262Y160876D01*
X223740Y160685D01*
X229131Y157989D01*
X229515Y157606D01*
X229608Y157137D01*
X229419Y156759D01*
X229031Y156371D01*
X224039Y153974D01*
X224037Y153971D01*
X224035Y153972D01*
X223546Y153679D01*
X223172Y153679D01*
G37*
%LPD*%
%LPC*%
G36*
X55660Y168245D02*
X55660Y168245D01*
X50269Y170941D01*
X49885Y171324D01*
X49792Y171793D01*
X49981Y172171D01*
X50369Y172559D01*
X55361Y174956D01*
X55363Y174959D01*
X55365Y174958D01*
X55854Y175251D01*
X56228Y175251D01*
X56603Y175063D01*
X56986Y174298D01*
X56802Y173837D01*
X52220Y171745D01*
X52218Y171743D01*
X52216Y171743D01*
X52215Y171736D01*
X52208Y171723D01*
X52198Y171716D01*
X52202Y171711D01*
X52191Y171692D01*
X52208Y171684D01*
X52205Y171665D01*
X52405Y171465D01*
X52419Y171463D01*
X52421Y171455D01*
X56416Y169757D01*
X56706Y169564D01*
X56987Y169188D01*
X56895Y168727D01*
X56862Y168744D01*
X56848Y168741D01*
X56844Y168748D01*
X56839Y168748D01*
X56825Y168737D01*
X56804Y168733D01*
X56805Y168726D01*
X56798Y168725D01*
X56505Y168238D01*
X56138Y168054D01*
X55660Y168245D01*
G37*
%LPD*%
%LPC*%
G36*
X224067Y83197D02*
X224067Y83197D01*
X223684Y83962D01*
X223869Y84424D01*
X224251Y84616D01*
X228450Y86515D01*
X228473Y86556D01*
X228479Y86567D01*
X228469Y86572D01*
X228474Y86582D01*
X228374Y86782D01*
X228353Y86792D01*
X228350Y86805D01*
X224351Y88604D01*
X223967Y88797D01*
X223779Y89172D01*
X223779Y89543D01*
X224164Y90023D01*
X224440Y90208D01*
X224914Y90113D01*
X230398Y87421D01*
X230687Y87036D01*
X230876Y86562D01*
X230688Y86186D01*
X230398Y85799D01*
X224914Y83107D01*
X224437Y83012D01*
X224067Y83197D01*
G37*
%LPD*%
%LPC*%
G36*
X55756Y54667D02*
X55756Y54667D01*
X50272Y57359D01*
X49983Y57744D01*
X49794Y58218D01*
X49982Y58594D01*
X50272Y58981D01*
X55756Y61673D01*
X56233Y61768D01*
X56603Y61583D01*
X56986Y60818D01*
X56801Y60356D01*
X56419Y60164D01*
X52220Y58265D01*
X52208Y58243D01*
X52198Y58236D01*
X52202Y58231D01*
X52191Y58213D01*
X52201Y58208D01*
X52196Y58198D01*
X52296Y57998D01*
X52317Y57988D01*
X52320Y57975D01*
X56319Y56176D01*
X56703Y55983D01*
X56891Y55608D01*
X56891Y55237D01*
X56506Y54757D01*
X56230Y54572D01*
X55756Y54667D01*
G37*
%LPD*%
G36*
X12350Y195522D02*
X12350Y195522D01*
X12353Y195525D01*
X12356Y195523D01*
X12956Y195723D01*
X12958Y195727D01*
X12961Y195726D01*
X19861Y199026D01*
X19865Y199033D01*
X19871Y199032D01*
X20371Y199432D01*
X20373Y199440D01*
X20379Y199440D01*
X20679Y199840D01*
X20679Y199877D01*
X20686Y199888D01*
X20486Y200388D01*
X20483Y200390D01*
X20484Y200392D01*
X20184Y200992D01*
X20157Y201005D01*
X20152Y201018D01*
X19752Y201118D01*
X19732Y201109D01*
X19721Y201115D01*
X19021Y200815D01*
X19020Y200814D01*
X19019Y200815D01*
X11619Y197315D01*
X11617Y197311D01*
X11615Y197312D01*
X11115Y197012D01*
X11101Y196978D01*
X11091Y196970D01*
X11091Y196470D01*
X11099Y196459D01*
X11095Y196451D01*
X11395Y195751D01*
X11410Y195742D01*
X11410Y195731D01*
X11810Y195431D01*
X11839Y195431D01*
X11850Y195422D01*
X12350Y195522D01*
G37*
G36*
X19561Y109037D02*
X19561Y109037D01*
X19575Y109035D01*
X19875Y109335D01*
X19877Y109347D01*
X19883Y109352D01*
X19879Y109358D01*
X19889Y109363D01*
X19989Y110063D01*
X19984Y110072D01*
X19989Y110077D01*
X19889Y110777D01*
X19862Y110804D01*
X19858Y110816D01*
X19358Y111016D01*
X19345Y111012D01*
X19340Y111019D01*
X13360Y111019D01*
X13086Y111294D01*
X12989Y111878D01*
X12965Y111901D01*
X12962Y111914D01*
X12562Y112114D01*
X12546Y112111D01*
X12540Y112119D01*
X11740Y112119D01*
X11729Y112111D01*
X11722Y112116D01*
X11222Y111916D01*
X11206Y111890D01*
X11193Y111886D01*
X11093Y111586D01*
X11097Y111575D01*
X11091Y111570D01*
X11091Y110870D01*
X11094Y110866D01*
X11091Y110863D01*
X11191Y110163D01*
X11196Y110158D01*
X11193Y110154D01*
X11393Y109554D01*
X11410Y109543D01*
X11410Y109531D01*
X11810Y109231D01*
X11826Y109231D01*
X11830Y109222D01*
X12330Y109122D01*
X12331Y109122D01*
X12332Y109121D01*
X12932Y109021D01*
X12937Y109024D01*
X12940Y109021D01*
X19540Y109021D01*
X19561Y109037D01*
G37*
%LPC*%
G36*
X223963Y58309D02*
X223963Y58309D01*
X223779Y58769D01*
X223779Y64451D01*
X223966Y64917D01*
X224430Y65010D01*
X224897Y64916D01*
X225081Y64548D01*
X225081Y62560D01*
X225117Y62513D01*
X225119Y62514D01*
X225120Y62512D01*
X225620Y62412D01*
X225627Y62415D01*
X225630Y62411D01*
X230224Y62411D01*
X230596Y62318D01*
X230781Y61948D01*
X230781Y61366D01*
X230688Y60996D01*
X230221Y60809D01*
X225130Y60809D01*
X225083Y60773D01*
X225088Y60766D01*
X225081Y60760D01*
X225081Y58672D01*
X224900Y58309D01*
X223963Y58309D01*
G37*
%LPD*%
%LPC*%
G36*
X55773Y79864D02*
X55773Y79864D01*
X55589Y80232D01*
X55589Y82220D01*
X55553Y82267D01*
X55551Y82266D01*
X55550Y82268D01*
X55050Y82368D01*
X55043Y82365D01*
X55040Y82369D01*
X50446Y82369D01*
X50074Y82462D01*
X49889Y82832D01*
X49889Y83414D01*
X49982Y83784D01*
X50449Y83971D01*
X55540Y83971D01*
X55587Y84007D01*
X55583Y84013D01*
X55587Y84016D01*
X55586Y84018D01*
X55589Y84020D01*
X55589Y86108D01*
X55770Y86471D01*
X56707Y86471D01*
X56891Y86011D01*
X56891Y80329D01*
X56704Y79863D01*
X56240Y79770D01*
X55773Y79864D01*
G37*
%LPD*%
G36*
X16453Y136230D02*
X16453Y136230D01*
X16462Y136226D01*
X16862Y136426D01*
X16872Y136447D01*
X16875Y136449D01*
X16886Y136452D01*
X17086Y136952D01*
X17082Y136965D01*
X17089Y136970D01*
X17089Y137670D01*
X17076Y137688D01*
X17079Y137700D01*
X16782Y138096D01*
X16696Y138268D01*
X16982Y138745D01*
X16981Y138753D01*
X16987Y138754D01*
X17187Y139354D01*
X17186Y139358D01*
X17187Y139359D01*
X17183Y139365D01*
X17189Y139370D01*
X17189Y139970D01*
X17181Y139981D01*
X17186Y139988D01*
X16986Y140488D01*
X16967Y140500D01*
X16965Y140512D01*
X16465Y140812D01*
X16447Y140810D01*
X16440Y140819D01*
X15940Y140819D01*
X15931Y140812D01*
X15924Y140817D01*
X15324Y140617D01*
X15311Y140597D01*
X15298Y140595D01*
X14998Y140095D01*
X14999Y140080D01*
X14994Y140076D01*
X14999Y140069D01*
X14991Y140062D01*
X15091Y139462D01*
X15092Y139461D01*
X15092Y139460D01*
X15188Y138977D01*
X14904Y138409D01*
X14431Y138219D01*
X11540Y138219D01*
X11519Y138203D01*
X11505Y138205D01*
X11105Y137805D01*
X11102Y137778D01*
X11091Y137770D01*
X11091Y137070D01*
X11094Y137065D01*
X11091Y137062D01*
X11191Y136462D01*
X11216Y136439D01*
X11218Y136426D01*
X11618Y136226D01*
X11634Y136229D01*
X11640Y136221D01*
X16440Y136221D01*
X16453Y136230D01*
G37*
%LPC*%
G36*
X119337Y17350D02*
X119337Y17350D01*
X118246Y17623D01*
X118032Y17766D01*
X117622Y18175D01*
X117551Y18390D01*
X117543Y18404D01*
X117540Y18419D01*
X117464Y18532D01*
X117460Y18538D01*
X117459Y18538D01*
X117459Y18539D01*
X117322Y18675D01*
X117270Y18832D01*
X117270Y19070D01*
X117267Y19085D01*
X117269Y19100D01*
X117232Y19232D01*
X117231Y19239D01*
X117230Y19239D01*
X117230Y19240D01*
X117170Y19360D01*
X117170Y19570D01*
X117167Y19585D01*
X117169Y19600D01*
X117145Y19686D01*
X117145Y19694D01*
X117141Y19702D01*
X117132Y19732D01*
X117131Y19739D01*
X117130Y19739D01*
X117130Y19740D01*
X117070Y19860D01*
X117070Y20971D01*
X117086Y20961D01*
X117148Y20917D01*
X117160Y20915D01*
X117168Y20910D01*
X117205Y20906D01*
X117290Y20890D01*
X117400Y20890D01*
X117720Y20730D01*
X117735Y20726D01*
X117748Y20717D01*
X117882Y20691D01*
X117889Y20690D01*
X117890Y20690D01*
X118300Y20690D01*
X118420Y20630D01*
X118435Y20626D01*
X118448Y20617D01*
X118582Y20591D01*
X118589Y20590D01*
X118590Y20590D01*
X118928Y20590D01*
X119170Y20509D01*
X119207Y20506D01*
X119290Y20490D01*
X119628Y20490D01*
X119870Y20409D01*
X119907Y20406D01*
X119990Y20390D01*
X120100Y20390D01*
X120220Y20330D01*
X120235Y20326D01*
X120248Y20317D01*
X120382Y20291D01*
X120389Y20290D01*
X120390Y20290D01*
X120500Y20290D01*
X121365Y19858D01*
X121678Y19545D01*
X121810Y19280D01*
X121810Y18970D01*
X121818Y18933D01*
X121829Y18850D01*
X121879Y18699D01*
X121850Y18640D01*
X121846Y18625D01*
X121837Y18612D01*
X121823Y18540D01*
X121817Y18525D01*
X121817Y18509D01*
X121811Y18478D01*
X121810Y18472D01*
X121810Y18471D01*
X121810Y18470D01*
X121810Y18332D01*
X121729Y18090D01*
X121726Y18053D01*
X121710Y17970D01*
X121710Y17960D01*
X121678Y17895D01*
X121465Y17683D01*
X121405Y17653D01*
X121320Y17610D01*
X121291Y17586D01*
X121221Y17539D01*
X121165Y17483D01*
X121100Y17450D01*
X120990Y17450D01*
X120975Y17447D01*
X120960Y17449D01*
X120828Y17412D01*
X120821Y17411D01*
X120821Y17410D01*
X120820Y17410D01*
X120700Y17350D01*
X119337Y17350D01*
G37*
%LPD*%
G36*
X53245Y65074D02*
X53245Y65074D01*
X53248Y65071D01*
X53848Y65171D01*
X53850Y65174D01*
X53852Y65172D01*
X54252Y65272D01*
X54259Y65281D01*
X54265Y65278D01*
X54765Y65578D01*
X54769Y65586D01*
X54775Y65585D01*
X55075Y65885D01*
X55077Y65899D01*
X55086Y65902D01*
X55286Y66402D01*
X55284Y66408D01*
X55288Y66410D01*
X55388Y66910D01*
X55385Y66917D01*
X55389Y66920D01*
X55389Y67420D01*
X55380Y67433D01*
X55384Y67442D01*
X55184Y67842D01*
X55178Y67845D01*
X55179Y67850D01*
X54879Y68250D01*
X54870Y68252D01*
X54870Y68259D01*
X54470Y68559D01*
X54460Y68559D01*
X54458Y68566D01*
X53958Y68766D01*
X53952Y68764D01*
X53944Y68764D01*
X53940Y68769D01*
X52840Y68769D01*
X52834Y68764D01*
X52830Y68764D01*
X52825Y68761D01*
X52818Y68764D01*
X52418Y68564D01*
X52415Y68558D01*
X52410Y68559D01*
X52010Y68259D01*
X52008Y68250D01*
X52001Y68250D01*
X51701Y67850D01*
X51701Y67843D01*
X51699Y67842D01*
X51701Y67840D01*
X51694Y67838D01*
X51494Y67338D01*
X51498Y67325D01*
X51491Y67320D01*
X51491Y66820D01*
X51495Y66814D01*
X51492Y66810D01*
X51592Y66310D01*
X51599Y66304D01*
X51596Y66298D01*
X51796Y65898D01*
X51806Y65893D01*
X51805Y65885D01*
X52205Y65485D01*
X52209Y65485D01*
X52209Y65482D01*
X52709Y65082D01*
X52732Y65081D01*
X52740Y65071D01*
X53240Y65071D01*
X53245Y65074D01*
G37*
G36*
X227843Y76020D02*
X227843Y76020D01*
X227852Y76016D01*
X228252Y76216D01*
X228255Y76222D01*
X228260Y76221D01*
X228660Y76521D01*
X228662Y76530D01*
X228669Y76530D01*
X228969Y76930D01*
X228969Y76940D01*
X228976Y76942D01*
X229176Y77442D01*
X229172Y77455D01*
X229179Y77460D01*
X229179Y77960D01*
X229175Y77966D01*
X229178Y77970D01*
X229078Y78470D01*
X229071Y78476D01*
X229074Y78482D01*
X228874Y78882D01*
X228864Y78887D01*
X228865Y78895D01*
X228465Y79295D01*
X228461Y79295D01*
X228461Y79298D01*
X227961Y79698D01*
X227940Y79699D01*
X227936Y79705D01*
X227934Y79705D01*
X227930Y79709D01*
X227430Y79709D01*
X227425Y79706D01*
X227422Y79709D01*
X226822Y79609D01*
X226820Y79606D01*
X226818Y79608D01*
X226418Y79508D01*
X226411Y79500D01*
X226405Y79502D01*
X225905Y79202D01*
X225901Y79194D01*
X225895Y79195D01*
X225595Y78895D01*
X225594Y78883D01*
X225590Y78881D01*
X225590Y78880D01*
X225584Y78878D01*
X225384Y78378D01*
X225386Y78372D01*
X225382Y78370D01*
X225282Y77870D01*
X225285Y77863D01*
X225281Y77860D01*
X225281Y77360D01*
X225290Y77347D01*
X225286Y77338D01*
X225486Y76938D01*
X225492Y76935D01*
X225491Y76930D01*
X225791Y76530D01*
X225800Y76528D01*
X225800Y76521D01*
X226200Y76221D01*
X226210Y76221D01*
X226212Y76214D01*
X226712Y76014D01*
X226725Y76018D01*
X226730Y76011D01*
X227830Y76011D01*
X227843Y76020D01*
G37*
%LPC*%
G36*
X223165Y150179D02*
X223165Y150179D01*
X222693Y150274D01*
X222509Y150642D01*
X222509Y151318D01*
X222694Y151688D01*
X223066Y151781D01*
X229145Y151781D01*
X229419Y151598D01*
X229609Y151026D01*
X229514Y150454D01*
X229240Y150179D01*
X223165Y150179D01*
G37*
%LPD*%
%LPC*%
G36*
X50255Y177149D02*
X50255Y177149D01*
X49981Y177332D01*
X49791Y177904D01*
X49886Y178476D01*
X50160Y178751D01*
X56235Y178751D01*
X56707Y178656D01*
X56891Y178288D01*
X56891Y177612D01*
X56706Y177242D01*
X56334Y177149D01*
X50255Y177149D01*
G37*
%LPD*%
G36*
X55068Y131802D02*
X55068Y131802D01*
X55081Y131803D01*
X55281Y132103D01*
X55281Y132109D01*
X55284Y132112D01*
X55280Y132118D01*
X55280Y132123D01*
X55289Y132130D01*
X55289Y132630D01*
X55285Y132636D01*
X55288Y132640D01*
X55088Y133640D01*
X55077Y133650D01*
X55079Y133660D01*
X54779Y134060D01*
X54770Y134062D01*
X54770Y134069D01*
X54370Y134369D01*
X54360Y134369D01*
X54358Y134376D01*
X53858Y134576D01*
X53845Y134572D01*
X53840Y134579D01*
X53340Y134579D01*
X53334Y134575D01*
X53330Y134578D01*
X52830Y134478D01*
X52826Y134473D01*
X52822Y134476D01*
X52322Y134276D01*
X52314Y134264D01*
X52305Y134265D01*
X51605Y133565D01*
X51604Y133553D01*
X51596Y133552D01*
X51496Y133352D01*
X51499Y133336D01*
X51491Y133330D01*
X51491Y131830D01*
X51527Y131783D01*
X51534Y131788D01*
X51540Y131781D01*
X55040Y131781D01*
X55068Y131802D01*
G37*
G36*
X227336Y105455D02*
X227336Y105455D01*
X227340Y105452D01*
X227840Y105552D01*
X227844Y105557D01*
X227848Y105554D01*
X228348Y105754D01*
X228356Y105766D01*
X228365Y105765D01*
X229065Y106465D01*
X229066Y106477D01*
X229074Y106478D01*
X229174Y106678D01*
X229171Y106694D01*
X229179Y106700D01*
X229179Y108200D01*
X229143Y108247D01*
X229136Y108242D01*
X229130Y108249D01*
X225630Y108249D01*
X225602Y108228D01*
X225589Y108227D01*
X225389Y107927D01*
X225390Y107907D01*
X225381Y107900D01*
X225381Y107400D01*
X225385Y107394D01*
X225382Y107390D01*
X225582Y106390D01*
X225593Y106380D01*
X225591Y106370D01*
X225891Y105970D01*
X225900Y105968D01*
X225900Y105961D01*
X226300Y105661D01*
X226310Y105661D01*
X226312Y105654D01*
X226812Y105454D01*
X226825Y105458D01*
X226830Y105451D01*
X227330Y105451D01*
X227336Y105455D01*
G37*
%LPC*%
G36*
X13645Y46219D02*
X13645Y46219D01*
X13189Y46310D01*
X13189Y48061D01*
X13378Y48532D01*
X13849Y48721D01*
X14220Y48721D01*
X14591Y48350D01*
X14591Y47670D01*
X14599Y47659D01*
X14594Y47652D01*
X14794Y47152D01*
X14826Y47133D01*
X14832Y47121D01*
X15432Y47021D01*
X15442Y47027D01*
X15443Y47027D01*
X15448Y47021D01*
X16048Y47121D01*
X16074Y47148D01*
X16086Y47152D01*
X16286Y47652D01*
X16285Y47653D01*
X16286Y47653D01*
X16285Y47655D01*
X16283Y47660D01*
X16289Y47663D01*
X16385Y48337D01*
X16744Y48517D01*
X17296Y48333D01*
X17391Y47766D01*
X17391Y46582D01*
X17210Y46219D01*
X13645Y46219D01*
G37*
%LPD*%
%LPC*%
G36*
X15489Y79619D02*
X15489Y79619D01*
X15489Y81062D01*
X15681Y81637D01*
X16154Y81921D01*
X16726Y81921D01*
X17200Y81636D01*
X17392Y81157D01*
X17491Y80566D01*
X17491Y79986D01*
X17215Y79619D01*
X15489Y79619D01*
G37*
%LPD*%
%LPC*%
G36*
X15489Y157719D02*
X15489Y157719D01*
X15489Y159455D01*
X15675Y159733D01*
X16154Y160021D01*
X16726Y160021D01*
X17199Y159737D01*
X17391Y159162D01*
X17391Y158086D01*
X17115Y157719D01*
X15489Y157719D01*
G37*
%LPD*%
G36*
X62907Y238727D02*
X62907Y238727D01*
X62902Y238734D01*
X62909Y238740D01*
X62909Y240240D01*
X62896Y240258D01*
X62899Y240270D01*
X62599Y240670D01*
X62584Y240674D01*
X62582Y240684D01*
X62182Y240884D01*
X62161Y240880D01*
X62152Y240889D01*
X61552Y240789D01*
X61534Y240770D01*
X61521Y240770D01*
X61221Y240370D01*
X61221Y240354D01*
X61212Y240350D01*
X61112Y239850D01*
X61115Y239843D01*
X61111Y239840D01*
X61111Y238840D01*
X61136Y238807D01*
X61138Y238796D01*
X61338Y238696D01*
X61354Y238699D01*
X61360Y238691D01*
X62860Y238691D01*
X62907Y238727D01*
G37*
%LPC*%
G36*
X13474Y130407D02*
X13474Y130407D01*
X13189Y130786D01*
X13189Y131262D01*
X13382Y131840D01*
X13760Y132123D01*
X14434Y132219D01*
X14910Y132029D01*
X15291Y131553D01*
X15291Y130984D01*
X15003Y130504D01*
X14621Y130217D01*
X13950Y130121D01*
X13474Y130407D01*
G37*
%LPD*%
G36*
X62907Y220727D02*
X62907Y220727D01*
X62902Y220734D01*
X62909Y220740D01*
X62909Y221740D01*
X62905Y221746D01*
X62908Y221750D01*
X62808Y222250D01*
X62797Y222260D01*
X62799Y222270D01*
X62499Y222670D01*
X62475Y222676D01*
X62470Y222688D01*
X61970Y222788D01*
X61957Y222782D01*
X61950Y222788D01*
X61450Y222688D01*
X61434Y222670D01*
X61421Y222670D01*
X61121Y222270D01*
X61121Y222248D01*
X61111Y222240D01*
X61111Y220940D01*
X61127Y220919D01*
X61125Y220905D01*
X61325Y220705D01*
X61352Y220702D01*
X61360Y220691D01*
X62860Y220691D01*
X62907Y220727D01*
G37*
%LPC*%
G36*
X13756Y115719D02*
X13756Y115719D01*
X13381Y116001D01*
X13189Y116479D01*
X13189Y117053D01*
X13567Y117525D01*
X14135Y117619D01*
X14612Y117428D01*
X14994Y117046D01*
X15088Y116480D01*
X14805Y116008D01*
X14228Y115719D01*
X13756Y115719D01*
G37*
%LPD*%
%LPC*%
G36*
X13852Y95419D02*
X13852Y95419D01*
X13675Y95508D01*
X13389Y95984D01*
X13389Y96556D01*
X13674Y97030D01*
X14145Y97219D01*
X14716Y97124D01*
X15094Y96746D01*
X15188Y96180D01*
X14904Y95706D01*
X14426Y95419D01*
X13852Y95419D01*
G37*
%LPD*%
%LPC*%
G36*
X16668Y190019D02*
X16668Y190019D01*
X16387Y190487D01*
X16292Y191060D01*
X16571Y191525D01*
X17127Y191618D01*
X17499Y191339D01*
X17689Y190865D01*
X17595Y190298D01*
X17224Y190019D01*
X16668Y190019D01*
G37*
%LPD*%
%LPC*%
G36*
X14667Y88111D02*
X14667Y88111D01*
X14653Y88110D01*
X14649Y88118D01*
X14589Y88129D01*
X14589Y89254D01*
X14857Y89610D01*
X15301Y89433D01*
X15488Y88872D01*
X15297Y88395D01*
X14930Y87936D01*
X14667Y88111D01*
G37*
%LPD*%
%LPC*%
G36*
X14689Y149006D02*
X14689Y149006D01*
X14689Y150090D01*
X16130Y149370D01*
X16020Y149315D01*
X14939Y148922D01*
X14689Y149006D01*
G37*
%LPD*%
%LPC*%
G36*
X14689Y206606D02*
X14689Y206606D01*
X14689Y207690D01*
X16130Y206970D01*
X16020Y206915D01*
X14939Y206522D01*
X14689Y206606D01*
G37*
%LPD*%
D10*
X53340Y111760D02*
X53340Y104140D01*
X48260Y104140D01*
X46990Y104140D02*
X49530Y101600D01*
X53340Y139700D02*
X53340Y147320D01*
X46990Y147320D01*
X49530Y149860D01*
X46990Y147320D02*
X49530Y144780D01*
X49530Y106680D02*
X46990Y104140D01*
X53340Y111760D02*
X50800Y114300D01*
X71120Y195580D02*
X71120Y210820D01*
X55372Y191008D02*
X55239Y191010D01*
X55106Y191016D01*
X54974Y191025D01*
X54841Y191039D01*
X54709Y191056D01*
X54578Y191077D01*
X54447Y191102D01*
X54318Y191131D01*
X54189Y191164D01*
X54061Y191200D01*
X53934Y191240D01*
X53808Y191284D01*
X53684Y191331D01*
X53561Y191382D01*
X53440Y191436D01*
X53320Y191494D01*
X53202Y191556D01*
X53086Y191621D01*
X52972Y191689D01*
X52860Y191760D01*
X52750Y191835D01*
X52642Y191913D01*
X52536Y191994D01*
X52433Y192078D01*
X52333Y192165D01*
X52235Y192254D01*
X52139Y192347D01*
X52046Y192443D01*
X51957Y192541D01*
X51870Y192641D01*
X51786Y192744D01*
X51705Y192850D01*
X51627Y192958D01*
X51552Y193068D01*
X51481Y193180D01*
X51413Y193294D01*
X51348Y193410D01*
X51286Y193528D01*
X51228Y193648D01*
X51174Y193769D01*
X51123Y193892D01*
X51076Y194016D01*
X51032Y194142D01*
X50992Y194269D01*
X50956Y194397D01*
X50923Y194526D01*
X50894Y194655D01*
X50869Y194786D01*
X50848Y194917D01*
X50831Y195049D01*
X50817Y195182D01*
X50808Y195314D01*
X50802Y195447D01*
X50800Y195580D01*
X50800Y210820D02*
X50802Y210953D01*
X50808Y211086D01*
X50817Y211218D01*
X50831Y211351D01*
X50848Y211483D01*
X50869Y211614D01*
X50894Y211745D01*
X50923Y211874D01*
X50956Y212003D01*
X50992Y212131D01*
X51032Y212258D01*
X51076Y212384D01*
X51123Y212508D01*
X51174Y212631D01*
X51228Y212752D01*
X51286Y212872D01*
X51348Y212990D01*
X51413Y213106D01*
X51481Y213220D01*
X51552Y213332D01*
X51627Y213442D01*
X51705Y213550D01*
X51786Y213656D01*
X51870Y213759D01*
X51957Y213859D01*
X52046Y213957D01*
X52139Y214053D01*
X52235Y214146D01*
X52333Y214235D01*
X52433Y214322D01*
X52536Y214406D01*
X52642Y214487D01*
X52750Y214565D01*
X52860Y214640D01*
X52972Y214711D01*
X53086Y214779D01*
X53202Y214844D01*
X53320Y214906D01*
X53440Y214964D01*
X53561Y215018D01*
X53684Y215069D01*
X53808Y215116D01*
X53934Y215160D01*
X54061Y215200D01*
X54189Y215236D01*
X54318Y215269D01*
X54447Y215298D01*
X54578Y215323D01*
X54709Y215344D01*
X54841Y215361D01*
X54974Y215375D01*
X55106Y215384D01*
X55239Y215390D01*
X55372Y215392D01*
X66548Y215392D02*
X66681Y215390D01*
X66814Y215384D01*
X66946Y215375D01*
X67079Y215361D01*
X67211Y215344D01*
X67342Y215323D01*
X67473Y215298D01*
X67602Y215269D01*
X67731Y215236D01*
X67859Y215200D01*
X67986Y215160D01*
X68112Y215116D01*
X68236Y215069D01*
X68359Y215018D01*
X68480Y214964D01*
X68600Y214906D01*
X68718Y214844D01*
X68834Y214779D01*
X68948Y214711D01*
X69060Y214640D01*
X69170Y214565D01*
X69278Y214487D01*
X69384Y214406D01*
X69487Y214322D01*
X69587Y214235D01*
X69685Y214146D01*
X69781Y214053D01*
X69874Y213957D01*
X69963Y213859D01*
X70050Y213759D01*
X70134Y213656D01*
X70215Y213550D01*
X70293Y213442D01*
X70368Y213332D01*
X70439Y213220D01*
X70507Y213106D01*
X70572Y212990D01*
X70634Y212872D01*
X70692Y212752D01*
X70746Y212631D01*
X70797Y212508D01*
X70844Y212384D01*
X70888Y212258D01*
X70928Y212131D01*
X70964Y212003D01*
X70997Y211874D01*
X71026Y211745D01*
X71051Y211614D01*
X71072Y211483D01*
X71089Y211351D01*
X71103Y211218D01*
X71112Y211086D01*
X71118Y210953D01*
X71120Y210820D01*
X71120Y195580D02*
X71118Y195447D01*
X71112Y195314D01*
X71103Y195182D01*
X71089Y195049D01*
X71072Y194917D01*
X71051Y194786D01*
X71026Y194655D01*
X70997Y194526D01*
X70964Y194397D01*
X70928Y194269D01*
X70888Y194142D01*
X70844Y194016D01*
X70797Y193892D01*
X70746Y193769D01*
X70692Y193648D01*
X70634Y193528D01*
X70572Y193410D01*
X70507Y193294D01*
X70439Y193180D01*
X70368Y193068D01*
X70293Y192958D01*
X70215Y192850D01*
X70134Y192744D01*
X70050Y192641D01*
X69963Y192541D01*
X69874Y192443D01*
X69781Y192347D01*
X69685Y192254D01*
X69587Y192165D01*
X69487Y192078D01*
X69384Y191994D01*
X69278Y191913D01*
X69170Y191835D01*
X69060Y191760D01*
X68948Y191689D01*
X68834Y191621D01*
X68718Y191556D01*
X68600Y191494D01*
X68480Y191436D01*
X68359Y191382D01*
X68236Y191331D01*
X68112Y191284D01*
X67986Y191240D01*
X67859Y191200D01*
X67731Y191164D01*
X67602Y191131D01*
X67473Y191102D01*
X67342Y191077D01*
X67211Y191056D01*
X67079Y191039D01*
X66946Y191025D01*
X66814Y191016D01*
X66681Y191010D01*
X66548Y191008D01*
X55372Y191008D01*
X55372Y215392D02*
X66548Y215392D01*
X50800Y210820D02*
X50800Y195580D01*
X88350Y237030D02*
X88350Y290030D01*
X178520Y290030D02*
X178520Y237030D01*
M02*
