G04 EAGLE Gerber RS-274X export*
G75*
%MOMM*%
%FSLAX34Y34*%
%LPD*%
%INSolderpaste Top*%
%IPPOS*%
%AMOC8*
5,1,8,0,0,1.08239X$1,22.5*%
G01*
%ADD10C,0.102000*%
%ADD11C,0.300000*%
%ADD12C,0.102869*%
%ADD13C,0.100000*%
%ADD14C,0.099000*%
%ADD15R,1.879600X1.473200*%
%ADD16C,0.104000*%


D10*
X135840Y88930D02*
X135840Y83950D01*
X130860Y83950D01*
X130860Y88930D01*
X135840Y88930D01*
X135840Y84919D02*
X130860Y84919D01*
X130860Y85888D02*
X135840Y85888D01*
X135840Y86857D02*
X130860Y86857D01*
X130860Y87826D02*
X135840Y87826D01*
X135840Y88795D02*
X130860Y88795D01*
X135840Y93950D02*
X135840Y98930D01*
X135840Y93950D02*
X130860Y93950D01*
X130860Y98930D01*
X135840Y98930D01*
X135840Y94919D02*
X130860Y94919D01*
X130860Y95888D02*
X135840Y95888D01*
X135840Y96857D02*
X130860Y96857D01*
X130860Y97826D02*
X135840Y97826D01*
X135840Y98795D02*
X130860Y98795D01*
D11*
X175070Y46680D02*
X175070Y39680D01*
X168070Y39680D01*
X168070Y46680D01*
X175070Y46680D01*
X175070Y42530D02*
X168070Y42530D01*
X168070Y45380D02*
X175070Y45380D01*
X192610Y46680D02*
X192610Y39680D01*
X185610Y39680D01*
X185610Y46680D01*
X192610Y46680D01*
X192610Y42530D02*
X185610Y42530D01*
X185610Y45380D02*
X192610Y45380D01*
D12*
X182493Y94621D02*
X142627Y94621D01*
X142627Y105023D01*
X182493Y105023D01*
X182493Y94621D01*
X182493Y95599D02*
X142627Y95599D01*
X142627Y96577D02*
X182493Y96577D01*
X182493Y97555D02*
X142627Y97555D01*
X142627Y98533D02*
X182493Y98533D01*
X182493Y99511D02*
X142627Y99511D01*
X142627Y100489D02*
X182493Y100489D01*
X182493Y101467D02*
X142627Y101467D01*
X142627Y102445D02*
X182493Y102445D01*
X182493Y103423D02*
X142627Y103423D01*
X142627Y104401D02*
X182493Y104401D01*
X182493Y65157D02*
X142627Y65157D01*
X142627Y75559D01*
X182493Y75559D01*
X182493Y65157D01*
X182493Y66135D02*
X142627Y66135D01*
X142627Y67113D02*
X182493Y67113D01*
X182493Y68091D02*
X142627Y68091D01*
X142627Y69069D02*
X182493Y69069D01*
X182493Y70047D02*
X142627Y70047D01*
X142627Y71025D02*
X182493Y71025D01*
X182493Y72003D02*
X142627Y72003D01*
X142627Y72981D02*
X182493Y72981D01*
X182493Y73959D02*
X142627Y73959D01*
X142627Y74937D02*
X182493Y74937D01*
D13*
X113610Y97480D02*
X113610Y107480D01*
X122610Y107480D01*
X122610Y97480D01*
X113610Y97480D01*
X113610Y98430D02*
X122610Y98430D01*
X122610Y99380D02*
X113610Y99380D01*
X113610Y100330D02*
X122610Y100330D01*
X122610Y101280D02*
X113610Y101280D01*
X113610Y102230D02*
X122610Y102230D01*
X122610Y103180D02*
X113610Y103180D01*
X113610Y104130D02*
X122610Y104130D01*
X122610Y105080D02*
X113610Y105080D01*
X113610Y106030D02*
X122610Y106030D01*
X122610Y106980D02*
X113610Y106980D01*
X113610Y90480D02*
X113610Y80480D01*
X113610Y90480D02*
X122610Y90480D01*
X122610Y80480D01*
X113610Y80480D01*
X113610Y81430D02*
X122610Y81430D01*
X122610Y82380D02*
X113610Y82380D01*
X113610Y83330D02*
X122610Y83330D01*
X122610Y84280D02*
X113610Y84280D01*
X113610Y85230D02*
X122610Y85230D01*
X122610Y86180D02*
X113610Y86180D01*
X113610Y87130D02*
X122610Y87130D01*
X122610Y88080D02*
X113610Y88080D01*
X113610Y89030D02*
X122610Y89030D01*
X122610Y89980D02*
X113610Y89980D01*
X108260Y125040D02*
X98260Y125040D01*
X98260Y134040D01*
X108260Y134040D01*
X108260Y125040D01*
X108260Y125990D02*
X98260Y125990D01*
X98260Y126940D02*
X108260Y126940D01*
X108260Y127890D02*
X98260Y127890D01*
X98260Y128840D02*
X108260Y128840D01*
X108260Y129790D02*
X98260Y129790D01*
X98260Y130740D02*
X108260Y130740D01*
X108260Y131690D02*
X98260Y131690D01*
X98260Y132640D02*
X108260Y132640D01*
X108260Y133590D02*
X98260Y133590D01*
X115260Y125040D02*
X125260Y125040D01*
X115260Y125040D02*
X115260Y134040D01*
X125260Y134040D01*
X125260Y125040D01*
X125260Y125990D02*
X115260Y125990D01*
X115260Y126940D02*
X125260Y126940D01*
X125260Y127890D02*
X115260Y127890D01*
X115260Y128840D02*
X125260Y128840D01*
X125260Y129790D02*
X115260Y129790D01*
X115260Y130740D02*
X125260Y130740D01*
X125260Y131690D02*
X115260Y131690D01*
X115260Y132640D02*
X125260Y132640D01*
X125260Y133590D02*
X115260Y133590D01*
X183840Y31170D02*
X193840Y31170D01*
X193840Y22170D01*
X183840Y22170D01*
X183840Y31170D01*
X183840Y23120D02*
X193840Y23120D01*
X193840Y24070D02*
X183840Y24070D01*
X183840Y25020D02*
X193840Y25020D01*
X193840Y25970D02*
X183840Y25970D01*
X183840Y26920D02*
X193840Y26920D01*
X193840Y27870D02*
X183840Y27870D01*
X183840Y28820D02*
X193840Y28820D01*
X193840Y29770D02*
X183840Y29770D01*
X183840Y30720D02*
X193840Y30720D01*
X176840Y31170D02*
X166840Y31170D01*
X176840Y31170D02*
X176840Y22170D01*
X166840Y22170D01*
X166840Y31170D01*
X166840Y23120D02*
X176840Y23120D01*
X176840Y24070D02*
X166840Y24070D01*
X166840Y25020D02*
X176840Y25020D01*
X176840Y25970D02*
X166840Y25970D01*
X166840Y26920D02*
X176840Y26920D01*
X176840Y27870D02*
X166840Y27870D01*
X166840Y28820D02*
X176840Y28820D01*
X176840Y29770D02*
X166840Y29770D01*
X166840Y30720D02*
X176840Y30720D01*
D14*
X145155Y114844D02*
X140645Y114844D01*
X140645Y125854D01*
X145155Y125854D01*
X145155Y114844D01*
X145155Y115784D02*
X140645Y115784D01*
X140645Y116724D02*
X145155Y116724D01*
X145155Y117664D02*
X140645Y117664D01*
X140645Y118604D02*
X145155Y118604D01*
X145155Y119544D02*
X140645Y119544D01*
X140645Y120484D02*
X145155Y120484D01*
X145155Y121424D02*
X140645Y121424D01*
X140645Y122364D02*
X145155Y122364D01*
X145155Y123304D02*
X140645Y123304D01*
X140645Y124244D02*
X145155Y124244D01*
X145155Y125184D02*
X140645Y125184D01*
X150145Y114844D02*
X154655Y114844D01*
X150145Y114844D02*
X150145Y125854D01*
X154655Y125854D01*
X154655Y114844D01*
X154655Y115784D02*
X150145Y115784D01*
X150145Y116724D02*
X154655Y116724D01*
X154655Y117664D02*
X150145Y117664D01*
X150145Y118604D02*
X154655Y118604D01*
X154655Y119544D02*
X150145Y119544D01*
X150145Y120484D02*
X154655Y120484D01*
X154655Y121424D02*
X150145Y121424D01*
X150145Y122364D02*
X154655Y122364D01*
X154655Y123304D02*
X150145Y123304D01*
X150145Y124244D02*
X154655Y124244D01*
X154655Y125184D02*
X150145Y125184D01*
X159645Y114844D02*
X164155Y114844D01*
X159645Y114844D02*
X159645Y125854D01*
X164155Y125854D01*
X164155Y114844D01*
X164155Y115784D02*
X159645Y115784D01*
X159645Y116724D02*
X164155Y116724D01*
X164155Y117664D02*
X159645Y117664D01*
X159645Y118604D02*
X164155Y118604D01*
X164155Y119544D02*
X159645Y119544D01*
X159645Y120484D02*
X164155Y120484D01*
X164155Y121424D02*
X159645Y121424D01*
X159645Y122364D02*
X164155Y122364D01*
X164155Y123304D02*
X159645Y123304D01*
X159645Y124244D02*
X164155Y124244D01*
X164155Y125184D02*
X159645Y125184D01*
X159645Y140846D02*
X164155Y140846D01*
X159645Y140846D02*
X159645Y151856D01*
X164155Y151856D01*
X164155Y140846D01*
X164155Y141786D02*
X159645Y141786D01*
X159645Y142726D02*
X164155Y142726D01*
X164155Y143666D02*
X159645Y143666D01*
X159645Y144606D02*
X164155Y144606D01*
X164155Y145546D02*
X159645Y145546D01*
X159645Y146486D02*
X164155Y146486D01*
X164155Y147426D02*
X159645Y147426D01*
X159645Y148366D02*
X164155Y148366D01*
X164155Y149306D02*
X159645Y149306D01*
X159645Y150246D02*
X164155Y150246D01*
X164155Y151186D02*
X159645Y151186D01*
X145155Y140846D02*
X140645Y140846D01*
X140645Y151856D01*
X145155Y151856D01*
X145155Y140846D01*
X145155Y141786D02*
X140645Y141786D01*
X140645Y142726D02*
X145155Y142726D01*
X145155Y143666D02*
X140645Y143666D01*
X140645Y144606D02*
X145155Y144606D01*
X145155Y145546D02*
X140645Y145546D01*
X140645Y146486D02*
X145155Y146486D01*
X145155Y147426D02*
X140645Y147426D01*
X140645Y148366D02*
X145155Y148366D01*
X145155Y149306D02*
X140645Y149306D01*
X140645Y150246D02*
X145155Y150246D01*
X145155Y151186D02*
X140645Y151186D01*
D15*
X119126Y11430D03*
D16*
X178670Y142680D02*
X178670Y149640D01*
X189630Y149640D01*
X189630Y142680D01*
X178670Y142680D01*
X178670Y143668D02*
X189630Y143668D01*
X189630Y144656D02*
X178670Y144656D01*
X178670Y145644D02*
X189630Y145644D01*
X189630Y146632D02*
X178670Y146632D01*
X178670Y147620D02*
X189630Y147620D01*
X189630Y148608D02*
X178670Y148608D01*
X178670Y149596D02*
X189630Y149596D01*
X178670Y131640D02*
X178670Y124680D01*
X178670Y131640D02*
X189630Y131640D01*
X189630Y124680D01*
X178670Y124680D01*
X178670Y125668D02*
X189630Y125668D01*
X189630Y126656D02*
X178670Y126656D01*
X178670Y127644D02*
X189630Y127644D01*
X189630Y128632D02*
X178670Y128632D01*
X178670Y129620D02*
X189630Y129620D01*
X189630Y130608D02*
X178670Y130608D01*
X178670Y131596D02*
X189630Y131596D01*
X103270Y87190D02*
X103270Y80230D01*
X92310Y80230D01*
X92310Y87190D01*
X103270Y87190D01*
X103270Y81218D02*
X92310Y81218D01*
X92310Y82206D02*
X103270Y82206D01*
X103270Y83194D02*
X92310Y83194D01*
X92310Y84182D02*
X103270Y84182D01*
X103270Y85170D02*
X92310Y85170D01*
X92310Y86158D02*
X103270Y86158D01*
X103270Y87146D02*
X92310Y87146D01*
X103270Y98230D02*
X103270Y105190D01*
X103270Y98230D02*
X92310Y98230D01*
X92310Y105190D01*
X103270Y105190D01*
X103270Y99218D02*
X92310Y99218D01*
X92310Y100206D02*
X103270Y100206D01*
X103270Y101194D02*
X92310Y101194D01*
X92310Y102182D02*
X103270Y102182D01*
X103270Y103170D02*
X92310Y103170D01*
X92310Y104158D02*
X103270Y104158D01*
X103270Y105146D02*
X92310Y105146D01*
X92310Y70900D02*
X92310Y63940D01*
X92310Y70900D02*
X103270Y70900D01*
X103270Y63940D01*
X92310Y63940D01*
X92310Y64928D02*
X103270Y64928D01*
X103270Y65916D02*
X92310Y65916D01*
X92310Y66904D02*
X103270Y66904D01*
X103270Y67892D02*
X92310Y67892D01*
X92310Y68880D02*
X103270Y68880D01*
X103270Y69868D02*
X92310Y69868D01*
X92310Y70856D02*
X103270Y70856D01*
X92310Y52900D02*
X92310Y45940D01*
X92310Y52900D02*
X103270Y52900D01*
X103270Y45940D01*
X92310Y45940D01*
X92310Y46928D02*
X103270Y46928D01*
X103270Y47916D02*
X92310Y47916D01*
X92310Y48904D02*
X103270Y48904D01*
X103270Y49892D02*
X92310Y49892D01*
X92310Y50880D02*
X103270Y50880D01*
X103270Y51868D02*
X92310Y51868D01*
X92310Y52856D02*
X103270Y52856D01*
M02*
