M48
;GenerationSoftware,Autodesk,EAGLE,9.6.2*%
;CreationDate,2022-12-19T18:27:24Z*%
FMAT,2
ICI,OFF
METRIC,TZ,000.000
T6C0.350
T5C0.381
T4C1.000
T3C1.016
T2C1.200
T1C3.048
%
G90
M71
T1
X22860Y2540
X22860Y22860
X2540Y2540
X2540Y22860
T2
X3683Y14280
X3683Y7280
X3683Y10780
X3683Y17780
T3
X24130Y7620
X24130Y10160
X24130Y12700
X24130Y15240
X24130Y17780
T4
X8636Y20955
X13335Y24003
X13335Y18034
X18034Y20955
T5
X13335Y20955
X21082Y11430
X20320Y4953
X19050Y11430
X13335Y13335
X10795Y14605
X17272Y11430
X13335Y11430
X4826Y4826
X19431Y10160
X24130Y5080
T6
X10795Y22225
X16510Y24130
X10160Y24130
X2540Y12700
X20320Y19050
X22860Y19050
X7620Y5080
X11430Y5080
X13335Y5080
X15240Y5080
X6350Y10160
X6350Y14605
X7620Y24130
X19050Y24130
X6350Y12700
X8255Y9779
X10160Y11430
X8890Y12700
X8890Y14605
X15621Y889
X15875Y22225
M30