M48
;GenerationSoftware,Autodesk,EAGLE,9.6.2*%
;CreationDate,2023-02-06T16:53:13Z*%
FMAT,2
ICI,OFF
METRIC,TZ,000.000
T5C0.381
T4C1.000
T3C1.016
T2C1.200
T1C3.048
%
G90
M71
T1
X28448Y80264
X2540Y22860
X2540Y2540
X22860Y22860
X22860Y2540
X28448Y22860
X28448Y2540
X48768Y22860
X48768Y2540
X54356Y22860
X54356Y2540
X74676Y22860
X74676Y2540
X80264Y22860
X80264Y2540
X100584Y22860
X100584Y2540
X106172Y22860
X106172Y2540
X126492Y22860
X126492Y2540
X132080Y22860
X132080Y2540
X152400Y22860
X152400Y2540
X157988Y22860
X157988Y2540
X178308Y22860
X178308Y2540
X183896Y22860
X183896Y2540
X204216Y22860
X204216Y2540
X2540Y48768
X2540Y28448
X22860Y48768
X22860Y28448
X28448Y48768
X28448Y28448
X48768Y48768
X48768Y28448
X54356Y48768
X54356Y28448
X74676Y48768
X74676Y28448
X80264Y48768
X80264Y28448
X100584Y48768
X100584Y28448
X106172Y48768
X106172Y28448
X126492Y48768
X126492Y28448
X132080Y48768
X132080Y28448
X152400Y48768
X152400Y28448
X157988Y48768
X157988Y28448
X178308Y48768
X178308Y28448
X183896Y48768
X183896Y28448
X204216Y48768
X204216Y28448
X2540Y74676
X2540Y54356
X22860Y74676
X22860Y54356
X28448Y74676
X28448Y54356
X48768Y74676
X48768Y54356
X54356Y74676
X54356Y54356
X74676Y74676
X74676Y54356
X80264Y74676
X80264Y54356
X100584Y74676
X100584Y54356
X106172Y74676
X106172Y54356
X126492Y74676
X126492Y54356
X132080Y74676
X132080Y54356
X152400Y74676
X152400Y54356
X157988Y74676
X157988Y54356
X178308Y74676
X178308Y54356
X183896Y74676
X183896Y54356
X204216Y74676
X204216Y54356
X2540Y100584
X2540Y80264
X22860Y100584
X22860Y80264
X28448Y100584
X204216Y132080
X48768Y100584
X48768Y80264
X54356Y100584
X54356Y80264
X74676Y100584
X74676Y80264
X80264Y100584
X80264Y80264
X100584Y100584
X100584Y80264
X106172Y100584
X106172Y80264
X126492Y100584
X126492Y80264
X132080Y100584
X132080Y80264
X152400Y100584
X152400Y80264
X157988Y100584
X157988Y80264
X178308Y100584
X178308Y80264
X183896Y100584
X183896Y80264
X204216Y100584
X204216Y80264
X2540Y126492
X2540Y106172
X22860Y126492
X22860Y106172
X28448Y126492
X28448Y106172
X48768Y126492
X48768Y106172
X54356Y126492
X54356Y106172
X74676Y126492
X74676Y106172
X80264Y126492
X80264Y106172
X100584Y126492
X100584Y106172
X106172Y126492
X106172Y106172
X126492Y126492
X126492Y106172
X132080Y126492
X132080Y106172
X152400Y126492
X152400Y106172
X157988Y126492
X157988Y106172
X178308Y126492
X178308Y106172
X183896Y126492
X183896Y106172
X204216Y126492
X204216Y106172
X2540Y152400
X2540Y132080
X22860Y152400
X22860Y132080
X28448Y152400
X28448Y132080
X48768Y152400
X48768Y132080
X54356Y152400
X54356Y132080
X74676Y152400
X74676Y132080
X80264Y152400
X80264Y132080
X100584Y152400
X100584Y132080
X106172Y152400
X106172Y132080
X126492Y152400
X126492Y132080
X132080Y152400
X132080Y132080
X152400Y152400
X152400Y132080
X157988Y152400
X157988Y132080
X178308Y152400
X178308Y132080
X183896Y152400
X183896Y132080
X204216Y152400
T2
X3683Y95504
X159131Y59096
X81407Y69596
X55499Y59096
X185039Y43688
X185039Y40188
X3683Y17780
X3683Y14280
X3683Y10780
X3683Y7280
X3683Y117912
X3683Y121412
X185039Y85004
X185039Y88504
X185039Y36688
X55499Y43688
X55499Y40188
X55499Y36688
X55499Y33188
X29591Y17780
X29591Y14280
X29591Y10780
X29591Y7280
X185039Y92004
X185039Y95504
X159131Y85004
X159131Y88504
X159131Y62596
X159131Y66096
X159131Y69596
X133223Y59096
X185039Y33188
X55499Y17780
X55499Y14280
X55499Y10780
X55499Y7280
X29591Y62596
X159131Y92004
X159131Y95504
X133223Y85004
X159131Y43688
X159131Y40188
X159131Y36688
X81407Y43688
X81407Y40188
X81407Y17780
X81407Y14280
X81407Y10780
X81407Y7280
X133223Y88504
X133223Y92004
X133223Y95504
X107315Y85004
X81407Y36688
X81407Y33188
X133223Y62596
X133223Y66096
X133223Y69596
X107315Y17780
X107315Y14280
X107315Y10780
X107315Y7280
X107315Y88504
X107315Y92004
X107315Y95504
X81407Y85004
X107315Y59096
X159131Y33188
X55499Y62596
X55499Y66096
X55499Y69596
X133223Y17780
X133223Y14280
X133223Y10780
X133223Y7280
X81407Y88504
X81407Y92004
X81407Y95504
X55499Y85004
X29591Y59096
X107315Y43688
X107315Y40188
X107315Y36688
X107315Y33188
X159131Y17780
X159131Y14280
X159131Y10780
X159131Y7280
X55499Y88504
X55499Y92004
X55499Y95504
X29591Y85004
X107315Y62596
X107315Y66096
X107315Y69596
X81407Y59096
X29591Y66096
X185039Y17780
X185039Y14280
X185039Y10780
X185039Y7280
X29591Y88504
X29591Y92004
X29591Y95504
X3683Y85004
X29591Y69596
X3683Y59096
X3683Y66096
X3683Y69596
X133223Y43688
X3683Y43688
X3683Y40188
X3683Y36688
X3683Y33188
X3683Y62596
X3683Y88504
X3683Y92004
X185039Y59096
X133223Y40188
X133223Y36688
X133223Y33188
X81407Y62596
X81407Y66096
X29591Y43688
X29591Y40188
X29591Y36688
X29591Y33188
X185039Y62596
X185039Y66096
X185039Y69596
X3683Y114412
X3683Y110912
X29591Y121412
X29591Y117912
X29591Y114412
X29591Y110912
X55499Y121412
X55499Y117912
X55499Y114412
X55499Y110912
X81407Y121412
X81407Y117912
X81407Y114412
X81407Y110912
X107315Y121412
X107315Y117912
X107315Y114412
X107315Y110912
X133223Y121412
X133223Y117912
X133223Y114412
X133223Y110912
X159131Y121412
X159131Y117912
X159131Y114412
X159131Y110912
X185039Y121412
X185039Y117912
X185039Y114412
X185039Y110912
X3683Y147320
X3683Y143820
X3683Y140320
X3683Y136820
X29591Y147320
X29591Y143820
X29591Y140320
X29591Y136820
X55499Y147320
X55499Y143820
X55499Y140320
X55499Y136820
X81407Y147320
X81407Y143820
X81407Y140320
X81407Y136820
X107315Y147320
X107315Y143820
X107315Y140320
X107315Y136820
X133223Y147320
X133223Y143820
X133223Y140320
X133223Y136820
X159131Y147320
X159131Y143820
X159131Y140320
X159131Y136820
X185039Y147320
X185039Y143820
X185039Y140320
X185039Y136820
T3
X127762Y41148
X127762Y38608
X127762Y36068
X127762Y33528
X153670Y43688
X153670Y41148
X153670Y38608
X153670Y36068
X153670Y33528
X179578Y43688
X179578Y41148
X179578Y38608
X179578Y36068
X179578Y33528
X205486Y43688
X205486Y41148
X205486Y38608
X205486Y36068
X205486Y33528
X24130Y69596
X24130Y67056
X24130Y64516
X24130Y61976
X24130Y59436
X24130Y144780
X50038Y69596
X50038Y67056
X50038Y64516
X50038Y61976
X50038Y59436
X75946Y69596
X75946Y67056
X75946Y64516
X75946Y61976
X75946Y59436
X101854Y69596
X101854Y67056
X101854Y64516
X101854Y61976
X101854Y59436
X127762Y69596
X127762Y67056
X127762Y64516
X127762Y61976
X127762Y59436
X153670Y69596
X153670Y67056
X153670Y64516
X153670Y61976
X153670Y59436
X179578Y69596
X179578Y67056
X179578Y64516
X179578Y61976
X179578Y59436
X205486Y69596
X205486Y67056
X205486Y64516
X205486Y61976
X205486Y59436
X24130Y95504
X24130Y92964
X24130Y90424
X24130Y87884
X24130Y85344
X50038Y95504
X50038Y92964
X50038Y90424
X50038Y87884
X75946Y95504
X75946Y92964
X75946Y90424
X75946Y87884
X75946Y85344
X101854Y95504
X101854Y92964
X101854Y90424
X101854Y87884
X101854Y85344
X127762Y95504
X127762Y92964
X127762Y90424
X127762Y87884
X127762Y85344
X153670Y95504
X153670Y92964
X153670Y90424
X153670Y87884
X153670Y85344
X179578Y95504
X179578Y92964
X179578Y90424
X179578Y87884
X179578Y85344
X205486Y95504
X205486Y92964
X205486Y90424
X205486Y87884
X205486Y85344
X24130Y121412
X24130Y118872
X24130Y116332
X24130Y113792
X24130Y111252
X24130Y17780
X24130Y15240
X50038Y121412
X50038Y118872
X50038Y116332
X50038Y113792
X50038Y111252
X24130Y12700
X24130Y10160
X24130Y7620
X50038Y17780
X75946Y121412
X75946Y118872
X75946Y116332
X75946Y113792
X75946Y111252
X50038Y15240
X50038Y12700
X50038Y10160
X50038Y7620
X101854Y121412
X101854Y118872
X101854Y116332
X101854Y113792
X101854Y111252
X75946Y17780
X75946Y15240
X75946Y12700
X75946Y10160
X127762Y121412
X127762Y118872
X127762Y116332
X127762Y113792
X127762Y111252
X75946Y7620
X50038Y85344
X101854Y17780
X101854Y15240
X153670Y121412
X153670Y118872
X153670Y116332
X153670Y113792
X153670Y111252
X101854Y12700
X101854Y10160
X101854Y7620
X127762Y17780
X179578Y121412
X179578Y118872
X179578Y116332
X179578Y113792
X179578Y111252
X127762Y15240
X127762Y12700
X127762Y10160
X127762Y7620
X205486Y121412
X205486Y118872
X205486Y116332
X205486Y113792
X205486Y111252
X153670Y17780
X153670Y15240
X153670Y12700
X153670Y10160
X24130Y147320
X24130Y142240
X24130Y139700
X24130Y137160
X153670Y7620
X179578Y17780
X179578Y15240
X179578Y12700
X50038Y147320
X50038Y144780
X50038Y142240
X50038Y139700
X50038Y137160
X179578Y10160
X179578Y7620
X205486Y17780
X205486Y15240
X75946Y147320
X75946Y144780
X75946Y142240
X75946Y139700
X75946Y137160
X205486Y12700
X205486Y10160
X205486Y7620
X24130Y43688
X101854Y147320
X101854Y144780
X101854Y142240
X101854Y139700
X101854Y137160
X24130Y41148
X24130Y38608
X24130Y36068
X24130Y33528
X127762Y147320
X127762Y144780
X127762Y142240
X127762Y139700
X127762Y137160
X50038Y43688
X50038Y41148
X50038Y38608
X50038Y36068
X153670Y147320
X153670Y144780
X153670Y142240
X153670Y139700
X153670Y137160
X50038Y33528
X75946Y43688
X75946Y41148
X75946Y38608
X179578Y147320
X179578Y144780
X179578Y142240
X179578Y139700
X179578Y137160
X75946Y36068
X75946Y33528
X101854Y43688
X101854Y41148
X205486Y147320
X205486Y144780
X205486Y142240
X205486Y139700
X205486Y137160
X101854Y38608
X101854Y36068
X101854Y33528
X127762Y43688
T4
X194691Y43942
X189992Y46863
X194691Y49911
X173482Y46863
X39243Y43942
X34544Y46863
X39243Y127635
X34544Y124587
X39243Y121666
X43942Y124587
X39243Y49911
X18034Y46863
X194691Y75819
X189992Y72771
X194691Y69850
X199390Y72771
X39243Y75819
X142875Y43942
X138176Y46863
X65151Y127635
X60452Y124587
X65151Y121666
X69850Y124587
X142875Y49911
X121666Y46863
X13335Y49911
X13335Y43942
X8636Y46863
X199390Y20955
X13335Y101727
X8636Y98679
X13335Y95758
X91059Y127635
X86360Y124587
X91059Y121666
X95758Y124587
X18034Y98679
X91059Y75819
X86360Y72771
X91059Y69850
X95758Y72771
X194691Y18034
X189992Y20955
X194691Y24003
X173482Y20955
X116967Y127635
X112268Y124587
X116967Y121666
X121666Y124587
X39243Y101727
X34544Y98679
X39243Y95758
X43942Y98679
X34544Y72771
X39243Y69850
X43942Y72771
X199390Y46863
X13335Y75819
X142875Y127635
X138176Y124587
X142875Y121666
X147574Y124587
X168783Y18034
X164084Y20955
X168783Y24003
X147574Y20955
X65151Y101727
X60452Y98679
X65151Y95758
X69850Y98679
X116967Y43942
X168783Y127635
X164084Y124587
X168783Y121666
X173482Y124587
X112268Y46863
X116967Y49911
X95758Y46863
X116967Y75819
X142875Y18034
X138176Y20955
X142875Y24003
X121666Y20955
X91059Y101727
X194691Y127635
X189992Y124587
X194691Y121666
X199390Y124587
X86360Y98679
X65151Y24003
X91059Y95758
X95758Y98679
X112268Y72771
X116967Y69850
X121666Y72771
X8636Y72771
X13335Y69850
X13335Y153543
X8636Y150495
X13335Y147574
X18034Y150495
X116967Y18034
X112268Y20955
X116967Y24003
X95758Y20955
X116967Y101727
X112268Y98679
X116967Y95758
X121666Y98679
X18034Y72771
X39243Y153543
X34544Y150495
X39243Y147574
X43942Y150495
X168783Y43942
X164084Y46863
X91059Y43942
X86360Y46863
X91059Y18034
X86360Y20955
X91059Y24003
X69850Y20955
X142875Y101727
X65151Y153543
X60452Y150495
X65151Y147574
X69850Y150495
X138176Y98679
X142875Y95758
X147574Y98679
X91059Y49911
X69850Y46863
X142875Y75819
X138176Y72771
X142875Y69850
X65151Y18034
X91059Y153543
X86360Y150495
X91059Y147574
X95758Y150495
X60452Y20955
X43942Y20955
X39243Y18034
X168783Y101727
X164084Y98679
X168783Y95758
X173482Y98679
X147574Y72771
X168783Y49911
X116967Y153543
X112268Y150495
X116967Y147574
X121666Y150495
X147574Y46863
X65151Y75819
X60452Y72771
X34544Y20955
X39243Y24003
X18034Y20955
X13335Y18034
X194691Y101727
X189992Y98679
X142875Y153543
X138176Y150495
X142875Y147574
X147574Y150495
X194691Y95758
X199390Y98679
X65151Y69850
X65151Y43942
X60452Y46863
X65151Y49911
X43942Y46863
X8636Y20955
X13335Y24003
X168783Y153543
X164084Y150495
X168783Y147574
X173482Y150495
X168783Y75819
X164084Y72771
X13335Y127635
X8636Y124587
X13335Y121666
X18034Y124587
X168783Y69850
X173482Y72771
X69850Y72771
X194691Y153543
X189992Y150495
X194691Y147574
X199390Y150495
T5
X32258Y92329
X32258Y87884
X41148Y82804
X33528Y82804
X48768Y96774
X46228Y96774
X32258Y90424
X28448Y90424
X41529Y78613
X41783Y99949
X36703Y99949
X42418Y101854
X36068Y101854
X39878Y82804
X30480Y82296
X32385Y82042
X71247Y87884
X75946Y82804
X65151Y98679
X72898Y89154
X72136Y82677
X70866Y89154
X65151Y89154
X65151Y91059
X62611Y92329
X60706Y92329
X60706Y90424
X61976Y89154
X69088Y89154
X60071Y87503
X70866Y101854
X59436Y101854
X58166Y92329
X58166Y87884
X67056Y82804
X59436Y82804
X74676Y96774
X72136Y96774
X58166Y90424
X54356Y90424
X67437Y78613
X67691Y99949
X62611Y99949
X68326Y101854
X61976Y101854
X65786Y82804
X56388Y82296
X58293Y82042
X97155Y87884
X101854Y82804
X91059Y98679
X98806Y89154
X98044Y82677
X96774Y89154
X91059Y89154
X91059Y91059
X88519Y92329
X86614Y92329
X86614Y90424
X87884Y89154
X94996Y89154
X85979Y87503
X96774Y101854
X85344Y101854
X84074Y92329
X84074Y87884
X92964Y82804
X85344Y82804
X100584Y96774
X98044Y96774
X84074Y90424
X80264Y90424
X93345Y78613
X93599Y99949
X88519Y99949
X94234Y101854
X87884Y101854
X91694Y82804
X82296Y82296
X84201Y82042
X123063Y87884
X127762Y82804
X116967Y98679
X124714Y89154
X123952Y82677
X122682Y89154
X116967Y89154
X116967Y91059
X114427Y92329
X112522Y92329
X112522Y90424
X113792Y89154
X120904Y89154
X111887Y87503
X122682Y101854
X111252Y101854
X109982Y92329
X109982Y87884
X118872Y82804
X111252Y82804
X126492Y96774
X123952Y96774
X109982Y90424
X106172Y90424
X119253Y78613
X119507Y99949
X114427Y99949
X120142Y101854
X113792Y101854
X117602Y82804
X108204Y82296
X110109Y82042
X148971Y87884
X153670Y82804
X142875Y98679
X150622Y89154
X149860Y82677
X148590Y89154
X142875Y89154
X142875Y91059
X140335Y92329
X138430Y92329
X138430Y90424
X139700Y89154
X146812Y89154
X137795Y87503
X148590Y101854
X137160Y101854
X135890Y92329
X135890Y87884
X144780Y82804
X137160Y82804
X152400Y96774
X149860Y96774
X135890Y90424
X132080Y90424
X145161Y78613
X145415Y99949
X140335Y99949
X146050Y101854
X139700Y101854
X143510Y82804
X134112Y82296
X136017Y82042
X174879Y87884
X179578Y82804
X168783Y98679
X176530Y89154
X175768Y82677
X174498Y89154
X168783Y89154
X168783Y91059
X166243Y92329
X164338Y92329
X164338Y90424
X165608Y89154
X172720Y89154
X163703Y87503
X174498Y101854
X163068Y101854
X161798Y92329
X161798Y87884
X170688Y82804
X163068Y82804
X178308Y96774
X175768Y96774
X161798Y90424
X157988Y90424
X171069Y78613
X171323Y99949
X166243Y99949
X171958Y101854
X165608Y101854
X169418Y82804
X160020Y82296
X161925Y82042
X200787Y87884
X205486Y82804
X194691Y98679
X202438Y89154
X201676Y82677
X200406Y89154
X194691Y89154
X194691Y91059
X192151Y92329
X190246Y92329
X190246Y90424
X191516Y89154
X198628Y89154
X189611Y87503
X200406Y101854
X188976Y101854
X187706Y92329
X187706Y87884
X196596Y82804
X188976Y82804
X204216Y96774
X201676Y96774
X187706Y90424
X183896Y90424
X196977Y78613
X197231Y99949
X192151Y99949
X197866Y101854
X191516Y101854
X195326Y82804
X185928Y82296
X187833Y82042
X19431Y113792
X24130Y108712
X13335Y124587
X21082Y115062
X20320Y108585
X19050Y115062
X13335Y115062
X13335Y116967
X10795Y118237
X8890Y118237
X8890Y116332
X10160Y115062
X17272Y115062
X8255Y113411
X19050Y127762
X7620Y127762
X6350Y118237
X6350Y113792
X15240Y108712
X7620Y108712
X22860Y122682
X20320Y122682
X6350Y116332
X2540Y116332
X15621Y104521
X15875Y125857
X10795Y125857
X16510Y127762
X10160Y127762
X13970Y108712
X4572Y108204
X6477Y107950
X45339Y113792
X50038Y108712
X39243Y124587
X46990Y115062
X46228Y108585
X44958Y115062
X39243Y115062
X39243Y116967
X36703Y118237
X34798Y118237
X34798Y116332
X36068Y115062
X43180Y115062
X34163Y113411
X44958Y127762
X33528Y127762
X32258Y118237
X32258Y113792
X41148Y108712
X33528Y108712
X48768Y122682
X46228Y122682
X32258Y116332
X28448Y116332
X41529Y104521
X41783Y125857
X36703Y125857
X42418Y127762
X36068Y127762
X39878Y108712
X30480Y108204
X32385Y107950
X71247Y113792
X75946Y108712
X65151Y124587
X72898Y115062
X72136Y108585
X70866Y115062
X65151Y115062
X65151Y116967
X62611Y118237
X60706Y118237
X60706Y116332
X61976Y115062
X69088Y115062
X60071Y113411
X70866Y127762
X59436Y127762
X58166Y118237
X58166Y113792
X67056Y108712
X59436Y108712
X74676Y122682
X72136Y122682
X58166Y116332
X54356Y116332
X67437Y104521
X67691Y125857
X62611Y125857
X68326Y127762
X61976Y127762
X65786Y108712
X56388Y108204
X58293Y107950
X97155Y113792
X101854Y108712
X91059Y124587
X98806Y115062
X98044Y108585
X96774Y115062
X91059Y115062
X91059Y116967
X88519Y118237
X86614Y118237
X86614Y116332
X87884Y115062
X94996Y115062
X85979Y113411
X96774Y127762
X85344Y127762
X84074Y118237
X84074Y113792
X92964Y108712
X85344Y108712
X100584Y122682
X98044Y122682
X84074Y116332
X80264Y116332
X93345Y104521
X93599Y125857
X88519Y125857
X94234Y127762
X87884Y127762
X91694Y108712
X82296Y108204
X84201Y107950
X123063Y113792
X127762Y108712
X116967Y124587
X124714Y115062
X123952Y108585
X122682Y115062
X116967Y115062
X116967Y116967
X114427Y118237
X112522Y118237
X112522Y116332
X113792Y115062
X120904Y115062
X111887Y113411
X122682Y127762
X111252Y127762
X109982Y118237
X109982Y113792
X118872Y108712
X111252Y108712
X126492Y122682
X123952Y122682
X109982Y116332
X106172Y116332
X39243Y37338
X119507Y125857
X114427Y125857
X120142Y127762
X113792Y127762
X117602Y108712
X108204Y108204
X110109Y107950
X148971Y113792
X153670Y108712
X142875Y124587
X150622Y115062
X149860Y108585
X148590Y115062
X142875Y115062
X142875Y116967
X140335Y118237
X138430Y118237
X138430Y116332
X139700Y115062
X146812Y115062
X137795Y113411
X148590Y127762
X137160Y127762
X135890Y118237
X135890Y113792
X144780Y108712
X137160Y108712
X152400Y122682
X149860Y122682
X135890Y116332
X132080Y116332
X145161Y104521
X145415Y125857
X140335Y125857
X146050Y127762
X139700Y127762
X143510Y108712
X134112Y108204
X136017Y107950
X174879Y113792
X179578Y108712
X168783Y124587
X176530Y115062
X175768Y108585
X174498Y115062
X168783Y115062
X168783Y116967
X166243Y118237
X164338Y118237
X164338Y116332
X165608Y115062
X172720Y115062
X163703Y113411
X174498Y127762
X163068Y127762
X161798Y118237
X161798Y113792
X170688Y108712
X163068Y108712
X178308Y122682
X175768Y122682
X161798Y116332
X157988Y116332
X171069Y104521
X171323Y125857
X166243Y125857
X171958Y127762
X165608Y127762
X169418Y108712
X160020Y108204
X161925Y107950
X200787Y113792
X205486Y108712
X194691Y124587
X202438Y115062
X201676Y108585
X200406Y115062
X194691Y115062
X194691Y116967
X192151Y118237
X190246Y118237
X190246Y116332
X191516Y115062
X198628Y115062
X189611Y113411
X200406Y127762
X188976Y127762
X187706Y118237
X187706Y113792
X196596Y108712
X188976Y108712
X204216Y122682
X201676Y122682
X187706Y116332
X183896Y116332
X196977Y104521
X197231Y125857
X192151Y125857
X197866Y127762
X191516Y127762
X195326Y108712
X185928Y108204
X187833Y107950
X19431Y139700
X24130Y134620
X13335Y150495
X21082Y140970
X20320Y134493
X19050Y140970
X13335Y140970
X13335Y142875
X10795Y144145
X8890Y144145
X8890Y142240
X10160Y140970
X17272Y140970
X8255Y139319
X19050Y153670
X7620Y153670
X6350Y144145
X6350Y139700
X15240Y134620
X7620Y134620
X22860Y148590
X20320Y148590
X6350Y142240
X2540Y142240
X15621Y130429
X15875Y151765
X10795Y151765
X16510Y153670
X10160Y153670
X13970Y134620
X4572Y134112
X6477Y133858
X45339Y139700
X50038Y134620
X39243Y150495
X46990Y140970
X46228Y134493
X44958Y140970
X39243Y140970
X39243Y142875
X36703Y144145
X34798Y144145
X34798Y142240
X36068Y140970
X43180Y140970
X34163Y139319
X44958Y153670
X33528Y153670
X32258Y144145
X32258Y139700
X41148Y134620
X33528Y134620
X48768Y148590
X46228Y148590
X32258Y142240
X28448Y142240
X41529Y130429
X41783Y151765
X36703Y151765
X42418Y153670
X36068Y153670
X39878Y134620
X30480Y134112
X32385Y133858
X71247Y139700
X75946Y134620
X65151Y150495
X72898Y140970
X72136Y134493
X70866Y140970
X65151Y140970
X65151Y142875
X62611Y144145
X60706Y144145
X60706Y142240
X61976Y140970
X69088Y140970
X60071Y139319
X70866Y153670
X59436Y153670
X58166Y144145
X58166Y139700
X67056Y134620
X59436Y134620
X74676Y148590
X72136Y148590
X58166Y142240
X54356Y142240
X67437Y130429
X67691Y151765
X62611Y151765
X68326Y153670
X61976Y153670
X65786Y134620
X56388Y134112
X58293Y133858
X97155Y139700
X101854Y134620
X91059Y150495
X98806Y140970
X98044Y134493
X96774Y140970
X91059Y140970
X91059Y142875
X88519Y144145
X86614Y144145
X86614Y142240
X87884Y140970
X94996Y140970
X85979Y139319
X96774Y153670
X85344Y153670
X84074Y144145
X84074Y139700
X92964Y134620
X85344Y134620
X100584Y148590
X98044Y148590
X84074Y142240
X80264Y142240
X93345Y130429
X93599Y151765
X88519Y151765
X94234Y153670
X87884Y153670
X91694Y134620
X82296Y134112
X84201Y133858
X123063Y139700
X127762Y134620
X116967Y150495
X124714Y140970
X123952Y134493
X122682Y140970
X116967Y140970
X116967Y142875
X114427Y144145
X112522Y144145
X112522Y142240
X113792Y140970
X120904Y140970
X111887Y139319
X122682Y153670
X111252Y153670
X109982Y144145
X109982Y139700
X118872Y134620
X111252Y134620
X126492Y148590
X123952Y148590
X109982Y142240
X106172Y142240
X119253Y130429
X119507Y151765
X114427Y151765
X120142Y153670
X113792Y153670
X117602Y134620
X108204Y134112
X110109Y133858
X148971Y139700
X153670Y134620
X142875Y150495
X150622Y140970
X149860Y134493
X148590Y140970
X142875Y140970
X142875Y142875
X140335Y144145
X138430Y144145
X138430Y142240
X139700Y140970
X146812Y140970
X137795Y139319
X148590Y153670
X137160Y153670
X135890Y144145
X135890Y139700
X144780Y134620
X137160Y134620
X152400Y148590
X149860Y148590
X135890Y142240
X132080Y142240
X145161Y130429
X145415Y151765
X140335Y151765
X146050Y153670
X139700Y153670
X143510Y134620
X134112Y134112
X136017Y133858
X174879Y139700
X179578Y134620
X168783Y150495
X176530Y140970
X175768Y134493
X174498Y140970
X168783Y140970
X168783Y142875
X166243Y144145
X164338Y144145
X164338Y142240
X165608Y140970
X172720Y140970
X163703Y139319
X174498Y153670
X163068Y153670
X161798Y144145
X161798Y139700
X170688Y134620
X163068Y134620
X178308Y148590
X175768Y148590
X161798Y142240
X157988Y142240
X171069Y130429
X171323Y151765
X166243Y151765
X171958Y153670
X165608Y153670
X169418Y134620
X160020Y134112
X161925Y133858
X200787Y139700
X205486Y134620
X194691Y150495
X202438Y140970
X201676Y134493
X200406Y140970
X194691Y140970
X194691Y142875
X192151Y144145
X190246Y144145
X190246Y142240
X191516Y140970
X198628Y140970
X189611Y139319
X200406Y153670
X188976Y153670
X187706Y144145
X187706Y139700
X196596Y134620
X188976Y134620
X204216Y148590
X201676Y148590
X187706Y142240
X183896Y142240
X196977Y130429
X197231Y151765
X192151Y151765
X197866Y153670
X191516Y153670
X195326Y134620
X185928Y134112
X187833Y133858
X19431Y10160
X24130Y5080
X13335Y20955
X21082Y11430
X20320Y4953
X19050Y11430
X13335Y11430
X13335Y13335
X10795Y14605
X8890Y14605
X8890Y12700
X10160Y11430
X17272Y11430
X8255Y9779
X19050Y24130
X7620Y24130
X6350Y14605
X6350Y10160
X15240Y5080
X7620Y5080
X22860Y19050
X20320Y19050
X6350Y12700
X2540Y12700
X15621Y889
X15875Y22225
X10795Y22225
X16510Y24130
X10160Y24130
X13970Y5080
X4572Y4572
X6477Y4318
X45339Y10160
X50038Y5080
X39243Y20955
X46990Y11430
X46228Y4953
X44958Y11430
X39243Y11430
X39243Y13335
X36703Y14605
X34798Y14605
X34798Y12700
X36068Y11430
X43180Y11430
X34163Y9779
X44958Y24130
X33528Y24130
X32258Y14605
X32258Y10160
X41148Y5080
X33528Y5080
X48768Y19050
X46228Y19050
X32258Y12700
X28448Y12700
X41529Y889
X41783Y22225
X36703Y22225
X42418Y24130
X36068Y24130
X39878Y5080
X30480Y4572
X32385Y4318
X71247Y10160
X75946Y5080
X65151Y20955
X72898Y11430
X72136Y4953
X70866Y11430
X65151Y11430
X65151Y13335
X62611Y14605
X60706Y14605
X60706Y12700
X61976Y11430
X69088Y11430
X60071Y9779
X70866Y24130
X59436Y24130
X58166Y14605
X58166Y10160
X67056Y5080
X59436Y5080
X74676Y19050
X72136Y19050
X58166Y12700
X54356Y12700
X67437Y889
X67691Y22225
X62611Y22225
X68326Y24130
X61976Y24130
X65786Y5080
X56388Y4572
X58293Y4318
X97155Y10160
X101854Y5080
X91059Y20955
X98806Y11430
X98044Y4953
X96774Y11430
X91059Y11430
X91059Y13335
X88519Y14605
X86614Y14605
X86614Y12700
X87884Y11430
X94996Y11430
X85979Y9779
X96774Y24130
X85344Y24130
X84074Y14605
X84074Y10160
X92964Y5080
X85344Y5080
X100584Y19050
X98044Y19050
X84074Y12700
X80264Y12700
X93345Y889
X93599Y22225
X88519Y22225
X94234Y24130
X87884Y24130
X91694Y5080
X82296Y4572
X84201Y4318
X123063Y10160
X127762Y5080
X116967Y20955
X124714Y11430
X123952Y4953
X122682Y11430
X116967Y11430
X116967Y13335
X114427Y14605
X112522Y14605
X112522Y12700
X113792Y11430
X120904Y11430
X111887Y9779
X122682Y24130
X111252Y24130
X109982Y14605
X109982Y10160
X118872Y5080
X111252Y5080
X126492Y19050
X123952Y19050
X109982Y12700
X106172Y12700
X119253Y889
X119507Y22225
X114427Y22225
X120142Y24130
X113792Y24130
X117602Y5080
X108204Y4572
X110109Y4318
X148971Y10160
X153670Y5080
X142875Y20955
X150622Y11430
X149860Y4953
X148590Y11430
X142875Y11430
X142875Y13335
X140335Y14605
X138430Y14605
X138430Y12700
X139700Y11430
X146812Y11430
X137795Y9779
X148590Y24130
X137160Y24130
X135890Y14605
X135890Y10160
X144780Y5080
X137160Y5080
X152400Y19050
X149860Y19050
X135890Y12700
X132080Y12700
X145161Y889
X145415Y22225
X140335Y22225
X146050Y24130
X139700Y24130
X143510Y5080
X134112Y4572
X136017Y4318
X174879Y10160
X179578Y5080
X168783Y20955
X176530Y11430
X175768Y4953
X174498Y11430
X168783Y11430
X168783Y13335
X166243Y14605
X164338Y14605
X164338Y12700
X165608Y11430
X172720Y11430
X163703Y9779
X174498Y24130
X163068Y24130
X161798Y14605
X161798Y10160
X170688Y5080
X163068Y5080
X178308Y19050
X175768Y19050
X161798Y12700
X157988Y12700
X171069Y889
X171323Y22225
X166243Y22225
X171958Y24130
X165608Y24130
X169418Y5080
X160020Y4572
X161925Y4318
X200787Y10160
X205486Y5080
X194691Y20955
X202438Y11430
X201676Y4953
X200406Y11430
X194691Y11430
X194691Y13335
X192151Y14605
X190246Y14605
X190246Y12700
X191516Y11430
X198628Y11430
X189611Y9779
X200406Y24130
X188976Y24130
X187706Y14605
X187706Y10160
X196596Y5080
X188976Y5080
X204216Y19050
X201676Y19050
X187706Y12700
X183896Y12700
X196977Y889
X197231Y22225
X192151Y22225
X197866Y24130
X191516Y24130
X195326Y5080
X185928Y4572
X187833Y4318
X19431Y36068
X24130Y30988
X13335Y46863
X21082Y37338
X20320Y30861
X19050Y37338
X13335Y37338
X13335Y39243
X10795Y40513
X8890Y40513
X8890Y38608
X10160Y37338
X17272Y37338
X8255Y35687
X19050Y50038
X7620Y50038
X6350Y40513
X6350Y36068
X15240Y30988
X7620Y30988
X22860Y44958
X20320Y44958
X6350Y38608
X2540Y38608
X15621Y26797
X15875Y48133
X10795Y48133
X16510Y50038
X10160Y50038
X13970Y30988
X4572Y30480
X6477Y30226
X45339Y36068
X50038Y30988
X39243Y46863
X46990Y37338
X46228Y30861
X44958Y37338
X39243Y39243
X36703Y40513
X34798Y40513
X34798Y38608
X36068Y37338
X43180Y37338
X34163Y35687
X44958Y50038
X33528Y50038
X32258Y40513
X32258Y36068
X41148Y30988
X33528Y30988
X48768Y44958
X46228Y44958
X32258Y38608
X28448Y38608
X41529Y26797
X41783Y48133
X36703Y48133
X42418Y50038
X36068Y50038
X39878Y30988
X30480Y30480
X32385Y30226
X71247Y36068
X75946Y30988
X65151Y46863
X72898Y37338
X72136Y30861
X70866Y37338
X65151Y37338
X65151Y39243
X62611Y40513
X60706Y40513
X60706Y38608
X61976Y37338
X69088Y37338
X60071Y35687
X70866Y50038
X59436Y50038
X58166Y40513
X58166Y36068
X67056Y30988
X59436Y30988
X74676Y44958
X72136Y44958
X58166Y38608
X54356Y38608
X67437Y26797
X67691Y48133
X62611Y48133
X68326Y50038
X61976Y50038
X65786Y30988
X56388Y30480
X58293Y30226
X97155Y36068
X101854Y30988
X91059Y46863
X98806Y37338
X98044Y30861
X96774Y37338
X91059Y37338
X91059Y39243
X88519Y40513
X86614Y40513
X86614Y38608
X87884Y37338
X94996Y37338
X85979Y35687
X96774Y50038
X85344Y50038
X84074Y40513
X84074Y36068
X92964Y30988
X85344Y30988
X100584Y44958
X98044Y44958
X84074Y38608
X80264Y38608
X93345Y26797
X93599Y48133
X88519Y48133
X94234Y50038
X87884Y50038
X91694Y30988
X82296Y30480
X84201Y30226
X123063Y36068
X127762Y30988
X116967Y46863
X124714Y37338
X123952Y30861
X122682Y37338
X116967Y37338
X116967Y39243
X114427Y40513
X112522Y40513
X112522Y38608
X113792Y37338
X120904Y37338
X111887Y35687
X122682Y50038
X111252Y50038
X109982Y40513
X109982Y36068
X118872Y30988
X111252Y30988
X126492Y44958
X123952Y44958
X109982Y38608
X106172Y38608
X119253Y26797
X119507Y48133
X114427Y48133
X120142Y50038
X113792Y50038
X117602Y30988
X108204Y30480
X110109Y30226
X148971Y36068
X153670Y30988
X142875Y46863
X150622Y37338
X149860Y30861
X148590Y37338
X142875Y37338
X142875Y39243
X140335Y40513
X138430Y40513
X138430Y38608
X139700Y37338
X146812Y37338
X137795Y35687
X148590Y50038
X137160Y50038
X135890Y40513
X135890Y36068
X144780Y30988
X137160Y30988
X152400Y44958
X149860Y44958
X135890Y38608
X132080Y38608
X145161Y26797
X145415Y48133
X140335Y48133
X146050Y50038
X139700Y50038
X143510Y30988
X134112Y30480
X136017Y30226
X174879Y36068
X179578Y30988
X168783Y46863
X176530Y37338
X175768Y30861
X174498Y37338
X168783Y37338
X168783Y39243
X166243Y40513
X164338Y40513
X164338Y38608
X165608Y37338
X172720Y37338
X163703Y35687
X174498Y50038
X163068Y50038
X161798Y40513
X161798Y36068
X170688Y30988
X163068Y30988
X178308Y44958
X175768Y44958
X161798Y38608
X157988Y38608
X171069Y26797
X171323Y48133
X166243Y48133
X171958Y50038
X165608Y50038
X169418Y30988
X160020Y30480
X161925Y30226
X200787Y36068
X205486Y30988
X194691Y46863
X202438Y37338
X201676Y30861
X200406Y37338
X194691Y37338
X194691Y39243
X192151Y40513
X190246Y40513
X190246Y38608
X191516Y37338
X198628Y37338
X189611Y35687
X200406Y50038
X188976Y50038
X187706Y40513
X187706Y36068
X196596Y30988
X188976Y30988
X204216Y44958
X201676Y44958
X187706Y38608
X183896Y38608
X196977Y26797
X197231Y48133
X192151Y48133
X197866Y50038
X191516Y50038
X195326Y30988
X185928Y30480
X187833Y30226
X19431Y61976
X24130Y56896
X13335Y72771
X21082Y63246
X20320Y56769
X19050Y63246
X13335Y63246
X13335Y65151
X10795Y66421
X8890Y66421
X119253Y104521
X8890Y64516
X10160Y63246
X17272Y63246
X8255Y61595
X19050Y75946
X7620Y75946
X6350Y66421
X6350Y61976
X15240Y56896
X7620Y56896
X22860Y70866
X20320Y70866
X6350Y64516
X2540Y64516
X15621Y52705
X15875Y74041
X10795Y74041
X16510Y75946
X10160Y75946
X13970Y56896
X4572Y56388
X6477Y56134
X45339Y61976
X50038Y56896
X39243Y72771
X46990Y63246
X46228Y56769
X44958Y63246
X39243Y63246
X39243Y65151
X36703Y66421
X34798Y66421
X34798Y64516
X36068Y63246
X43180Y63246
X34163Y61595
X44958Y75946
X33528Y75946
X32258Y66421
X32258Y61976
X41148Y56896
X33528Y56896
X48768Y70866
X46228Y70866
X32258Y64516
X28448Y64516
X41529Y52705
X41783Y74041
X36703Y74041
X42418Y75946
X36068Y75946
X39878Y56896
X30480Y56388
X32385Y56134
X71247Y61976
X75946Y56896
X65151Y72771
X72898Y63246
X72136Y56769
X70866Y63246
X65151Y63246
X65151Y65151
X62611Y66421
X60706Y66421
X60706Y64516
X61976Y63246
X69088Y63246
X60071Y61595
X70866Y75946
X59436Y75946
X58166Y66421
X58166Y61976
X67056Y56896
X59436Y56896
X74676Y70866
X72136Y70866
X58166Y64516
X54356Y64516
X67437Y52705
X67691Y74041
X62611Y74041
X68326Y75946
X61976Y75946
X65786Y56896
X56388Y56388
X58293Y56134
X97155Y61976
X101854Y56896
X91059Y72771
X98806Y63246
X98044Y56769
X96774Y63246
X91059Y63246
X91059Y65151
X88519Y66421
X86614Y66421
X86614Y64516
X87884Y63246
X94996Y63246
X85979Y61595
X96774Y75946
X85344Y75946
X84074Y66421
X84074Y61976
X92964Y56896
X85344Y56896
X100584Y70866
X98044Y70866
X84074Y64516
X80264Y64516
X93345Y52705
X93599Y74041
X88519Y74041
X94234Y75946
X87884Y75946
X91694Y56896
X82296Y56388
X84201Y56134
X123063Y61976
X127762Y56896
X116967Y72771
X124714Y63246
X123952Y56769
X122682Y63246
X116967Y63246
X116967Y65151
X114427Y66421
X112522Y66421
X112522Y64516
X113792Y63246
X120904Y63246
X111887Y61595
X122682Y75946
X111252Y75946
X109982Y66421
X109982Y61976
X118872Y56896
X111252Y56896
X126492Y70866
X123952Y70866
X109982Y64516
X106172Y64516
X119253Y52705
X119507Y74041
X114427Y74041
X120142Y75946
X113792Y75946
X117602Y56896
X108204Y56388
X110109Y56134
X148971Y61976
X153670Y56896
X142875Y72771
X150622Y63246
X149860Y56769
X148590Y63246
X142875Y63246
X142875Y65151
X140335Y66421
X138430Y66421
X138430Y64516
X139700Y63246
X146812Y63246
X137795Y61595
X148590Y75946
X137160Y75946
X135890Y66421
X135890Y61976
X144780Y56896
X137160Y56896
X152400Y70866
X149860Y70866
X135890Y64516
X132080Y64516
X145161Y52705
X145415Y74041
X140335Y74041
X146050Y75946
X139700Y75946
X143510Y56896
X134112Y56388
X136017Y56134
X174879Y61976
X179578Y56896
X168783Y72771
X176530Y63246
X175768Y56769
X174498Y63246
X168783Y63246
X168783Y65151
X166243Y66421
X164338Y66421
X164338Y64516
X165608Y63246
X172720Y63246
X163703Y61595
X174498Y75946
X163068Y75946
X161798Y66421
X161798Y61976
X170688Y56896
X163068Y56896
X178308Y70866
X175768Y70866
X161798Y64516
X157988Y64516
X171069Y52705
X171323Y74041
X166243Y74041
X171958Y75946
X165608Y75946
X169418Y56896
X160020Y56388
X161925Y56134
X200787Y61976
X205486Y56896
X194691Y72771
X202438Y63246
X201676Y56769
X200406Y63246
X194691Y63246
X194691Y65151
X192151Y66421
X190246Y66421
X190246Y64516
X191516Y63246
X198628Y63246
X189611Y61595
X200406Y75946
X188976Y75946
X187706Y66421
X187706Y61976
X196596Y56896
X188976Y56896
X204216Y70866
X201676Y70866
X187706Y64516
X183896Y64516
X196977Y52705
X197231Y74041
X192151Y74041
X197866Y75946
X191516Y75946
X195326Y56896
X185928Y56388
X187833Y56134
X19431Y87884
X24130Y82804
X13335Y98679
X21082Y89154
X20320Y82677
X19050Y89154
X13335Y89154
X13335Y91059
X10795Y92329
X8890Y92329
X8890Y90424
X10160Y89154
X17272Y89154
X8255Y87503
X19050Y101854
X7620Y101854
X6350Y92329
X6350Y87884
X15240Y82804
X7620Y82804
X22860Y96774
X20320Y96774
X6350Y90424
X2540Y90424
X15621Y78613
X15875Y99949
X10795Y99949
X16510Y101854
X10160Y101854
X13970Y82804
X4572Y82296
X6477Y82042
X45339Y87884
X50038Y82804
X39243Y98679
X46990Y89154
X46228Y82677
X44958Y89154
X39243Y89154
X39243Y91059
X36703Y92329
X34798Y92329
X34798Y90424
X36068Y89154
X43180Y89154
X34163Y87503
X44958Y101854
X33528Y101854
M30